<mxfile host="app.diagrams.net" agent="Mozilla/5.0 (Windows NT 10.0; Win64; x64; rv:133.0) Gecko/20100101 Firefox/133.0" version="25.0.3">
  <diagram name="Page-1" id="uiWsp7fMsKCu-piVsH7X">
    <mxGraphModel grid="1" page="1" gridSize="10" guides="1" tooltips="1" connect="1" arrows="1" fold="1" pageScale="1" pageWidth="850" pageHeight="1100" math="0" shadow="0">
      <root>
        <mxCell id="0" />
        <mxCell id="1" parent="0" />
        <mxCell id="6NX9De0AIqx8eO8tG6Va-20" value="" style="rounded=1;whiteSpace=wrap;html=1;" vertex="1" parent="1">
          <mxGeometry x="-1081.95" y="690" width="781.95" height="330" as="geometry" />
        </mxCell>
        <mxCell id="6NX9De0AIqx8eO8tG6Va-21" value="&lt;font style=&quot;font-size: 50px;&quot;&gt;AWS EC2&lt;br&gt;&lt;/font&gt;" style="text;strokeColor=none;align=center;fillColor=none;html=1;verticalAlign=middle;whiteSpace=wrap;rounded=0;" vertex="1" parent="1">
          <mxGeometry x="-840.9700000000003" y="690" width="300" height="100" as="geometry" />
        </mxCell>
        <mxCell id="6NX9De0AIqx8eO8tG6Va-15" value="" style="rounded=1;whiteSpace=wrap;html=1;" vertex="1" parent="1">
          <mxGeometry x="-1060" y="800" width="290.32" height="200" as="geometry" />
        </mxCell>
        <mxCell id="6NX9De0AIqx8eO8tG6Va-14" value="" style="shape=image;verticalLabelPosition=bottom;labelBackgroundColor=default;verticalAlign=top;aspect=fixed;imageAspect=0;image=data:image/png,iVBORw0KGgoAAAANSUhEUgAABAAAAAFxCAYAAADtW9pAAAAACXBIWXMAAAjbAAAI2wHNrPlDAAAAGXRFWHRTb2Z0d2FyZQB3d3cuaW5rc2NhcGUub3Jnm+48GgAAIABJREFUeJzs3XmclXXd//HX5zoDM4ALCuK+565o7u1ZeVe26F1StmgoOjCDmhTLYMs0dylzRgwLmTOSGlaaSZp2q6n93DK91VxySU1Nc09AwQWYgXOuz++PGU0MheH6nrnOOdf7+XgQEsPn+2Y4MOf6fDdzd0RERERERESktkVpBxARERERERGR8lMDQERERERERCQD1AAQERERERERyQA1AEREREREREQyQA0AERERERERkQxQA0BEREREREQkA9QAEBEREREREckANQBEREREREREMkANABEREREREZEMUANAREREREREJAPUABARERERERHJADUARERERERERDJADQARERERERGRDFADQERERERERCQD1AAQERERERERyQA1AEREREREREQyQA0AERERERERkQxQA0BEREREREQkA9QAEBEREREREckANQBEREREREREMkANABEREREREZEMUANAREREREREJAPUABARERERERHJADUARERERERERDJADQARERERERGRDFADQERERERERCQD1AAQERERERERyQA1AEREREREREQyQA0AERERERERkQxQA0BEREREREQkA9QAEBEREREREckANQBEREREREREMkANABEREREREZEMUANAREREREREJAPUABARERERERHJADUARERERERERDJADQARERERERGRDFADQERERERERCQD1AAQERERERERyQA1AEREREREREQyQA0AERERERERkQxQA0BEREREREQkA9QAEBEREREREckANQBEREREREREMkANABEREREREZEMUANAREREREREJAPUABARERERERHJADUARERERERERDJADQARERERERGRDFADQERERERERCQD1AAQERERERERyQA1AEREREREREQyQA0AERERERERkQxQA0BEREREREQkA9QAEBEREREREckANQBEREREREREMkANABEREREREZEMUANAREREREREJAPUABARERERERHJADUARERERERERDJADQARERERERGRDFADQERERERERCQD1AAQERERERERyQA1AEREREREREQyQA0AERERERERkQxQA0BEREREREQkA9QAEBEREREREckANQBEREREREREMkANABEREREREZEMUANAREREREREJAPUABARERERERHJADUARERERERERDJADQARERERERGRDFADQERERERERCQD1AAQERERERERyQA1AEREREREREQyQA0AERERERERkQxQA0BEREREREQkA9QAEBEREREREckANQBEREREREREMkANABEREREREZEMUANAREREREREJAPUABARERERERHJADUARERERERERDJADQARERERERGRDFADQERERERERCQD1AAQERERERERyQA1AEREREREREQyQA0AERERERERkQxQA0BEREREREQkA9QAEBEREREREckANQBEREREREREMkANABEREREREZEMUANAREREREREJAPUABARERERERHJADUARERERERERDJADQARERERERGRDFADQERERERERCQD1AAQERERERERyQA1AEREREREREQyQA0AERERERERkQxQA0BEREREREQkA9QAEBEREREREckANQBEREREREREMkANABEREREREZEMUANAREREREREJAPUABARERERERHJADUARERERERERDJADQARERERERGRDFADQERERERERCQD1AAQERERERERyYC6tAOIhGRzztyW3Mod8WhbjG1w3xZjY9xH4ozAbOO+D60Hhvb99xLAMVbg/jLYS+AvY7xIbE8R8U/cnob4797Usjid35mIiIiIiEgy5u5pZxBZJ3bOGTvhfjDuBwB7AXsCG5Z3VH8GeBDjPtzuII5v94nTXyrvmCIiIiIiIsmpASBVw87t2IoVfBKLPwn2fmBU2pnAHXgU5yai3LW8bjf65MlL004lIiIiIiLydmoASEWzOfk9yNmRuB8B7JF2njXzHrBbwC8j13O5N7YuSjuRiIiIiIgIqAEgFcjmnrU5pe6xwFFgu6WdJ4Ei5jeC/ZKG7st9bGt32oFERERERCS71ACQimBgFPKfwjke49PU2gGVxss4F4LN9aapf087joiIiIiIZI8aAJIqmz27nrplY4DJwO5p5yk/d4huAD+bpmlXO+gvoIiIiIiIDAg1ACQVNrdtKKXBEyD6NrBJ2nlScjfwP9407Q9pBxERERERkdqnBoAMKGtrG8yohvHgU8A2SztPZfDbMX7gE1puSDuJiIiISAh2fsf6rIhHEOeGE5WGU7INiWw47sPf/B42BFuv9xf4YJxhvf/Nv/8bwG0F5m/csrQcrBt8OcZLOItwFhL5Ijy3CC+9QN3GT3lj48oB/i2LVAU1AGTA2JzTP04U/bjKD/YrI7ueqPRtHz/9obSTZI0V8t998w2IvDuP7/Pmll+nHUNE5O3s3NM3ZWXdpERFcsWfeOOpLwSKVLPs7I4tqIt3JWYbYDuM7cC2xtgEZyQwAhicYsQi8BTwOOb/wKPHsPivDI7u9uOmvpZirrKzrvb/xqODEhXxuNubW34QJpFUmto6aE0qks2ZsTNR9FOi3MfSzlLZ/OPE0Z1WaD+bpXU/9MmTl67510gQzomYb5p2jKpgdjGgBoCIVJ4VuVMwn5aoRqkuAqaGCVT9bP78HIue2gOKB2O2P84ewO7kGI4b2Nt+QeXMK9YBOwI74gY4uEGPx1bIPwzcifEXYrvJm6c+nG7UwGL7JObjE9UwWwL8IEgeqThqAEjZWFtbHaPqJxFF3wMa0s5TJQaDfYthxS9aZ/tEb265Lu1AIiKydmxeWwNLh+4O4BOn3JN2niyx2W0bUNfQlLySj7ezzjrdTzllSfJa1c268k04HcB6YJX0cJ9EBOwB7IFzLOZYIf8kcDVwFd2Db/JJk5anG1GkvNQAkLKwc/J7M6rh58CeaWepTrYtxpXW2X4hdXaKN057Je1EIiLSy9ra6ths8M7EtgfOXpjtDoyGhh2I4hxYFxDgYVTWWl19E7BhgEobUN/TDJweoFZ1c7YAsrA9bntgIjCRhhXLrJC/HPPzmNByo25rklqkBoAEZWAU8ieCnw5Wn3aeqmf2NUr+YZuTP9YnTvtT2nFERLKk92ta+/a47YHZnhh74b47oxp2I+7b3/z2JdAy4GxeWwM0fDNYQedkm9f2Yx/b2h2splSLocBXcfsqhfwT5nY+MT/3E6c+n3YwkVDUAJBg7Cenb8rg3C+AQ/SOKCTbmsivtUJ+Bgu6f+StrXHaiUREapV1nrY1VtcKjAZ2A1uv90ua5gIr1vL6Y4DNg9UzNqW74VigEKymVKMdMP8ROb5nXe3nEZfavfk7z6QdSiSpKO0AUhus0L4fg3O3AoeknaU2WQ74Lps2XGNdbaPSTiMiUrNs0JbAOOAAsrH8uarZ/Pk5sMnBCzuTe2uLUI9bM1b3mBXyZ9vsjq3SDiSShBoAkph15k8AuxnYJu0sNc/5KF5/qxVmjk47ioiISOoW/uNIYKcyVN6Bl54YU4a6Ur3qgYnU+aNWaJ+mBpFUKzUAZJ0ZmHV1fA9jDune9Zoxti2UbrJC/jNpJxEREUmV2ZSy1XZaVnPRncgQsHYWPXGXndOxf9phRPpLDQBZJzZr1hAK7b/B/XtpZ8mo9YD5vasvREREssfO6TgU2K+MQ+xNV/6/ylhfqts+xP5/1tXxPTWKpJqoASD9ZjNnDqNhxe/Ajkg7S8bVYcyxQv60tIOIiIgMuNhbyj6GM63sY0g1q8P9f+jsuNIK7RulHUZkbagBIP1iZ7UNZ1jxD8DH0s4ib5qiJoCIiGSJdbYfwMC8FznE5sw4aADGkWpmfhjYHdZ1+p5pRxFZEzUAZK1ZoX0j6uuvAzs47SzyH6ZYIX9G2iFEREQGhNnAzcxbpFUAsjZ2wnN/7mtOiVQsNQBkrdjMmcPALgPbJ+0s8o6+aV3tP0g7hIiISDlZoWMX4L8HbkCOsHNm7D5g40k12xCz63Q4oFSyurQDSOWzWbOGMKz0e+ADaWeRNXA71QrtS72pRasBRESkNrlPwgZ0Esvw6BSgcQDHrEWvgL0K/hrwau83e+XfP+3LwbpX/SW+DKwHPAe2AcRDIGoA3wAYBGwIbARs3ffjSjCc2K+xwsyPedPk+9MOI/J2agDIu7K2tohR9ReAfSjtLLLWfmRdHf/yCVN/mXaQjLkbfH7aIcovejjtBCKSXTZnxgii6OgBH9j5us2e8R0/afrCAR+72hXjUeX+vNn8+TkWProFNng7zLfDfXuM7YH9cHYHcuUcfzVGQPH3dt6sfX3cpJcHeGyRd6UGgLy7TYZ0gOu0/6pihsddNuf0533iqdennSYzjAd8Qks+7RgiIjUtisYDQ1MYeQh10XjgRymMXd3qRywp9xA+ZkwJeKbv2y1v/TnrbFuPqH5/PDoM/HBg53Ln6Rt5W1b0/NzgCAcfmDFF1kxnAMg7skL7BMxPTjuHrAsbRJT7tZ1zxk5pJxEREQnB5rcNBiamGKHZZs+uT3F8WQfe3Pq6T2i5yZumTvWmabtgpb1wP5vebQhlZp+nq/1b5R9HZO2pASCrZYWOg8Fmpp1DEhlOHP/OZrdtkHYQERGRxBY1fAnYIsUEm1O3/KgUx5cAfMKpD3pzy0l495Y4U4DF5R3QZtjcGbuWdQyRflADQP6DdZ6xGR5fDAxOO4sktjN19ecbWNpBREREEjol7QDgFZBBQvDm1te9edpM8B2BHwPFMg01iFLUUabaIv2mBoCswtraIiz+JWZpdtglKPs8ne1pLpkUERFJxObkPwzsl7DMcwGi7GOdHYcEqCMVwptaFnvTtG9jfiDGPWUa5nM2p+PjZaot0i9qAMiqRtVPAT6SdgwJzJhhhZmj044hIiKyTiImJaxQJOIzwOuJs5gnzSIVyCe03MuL3Qdh3lmWASI/UysypRKoASBvskL7fsD3084h5WD1ULrA5rU1pJ1ERESkP2zuGTsCn0tUxLnMx0+7D7ggQKTP6JDd2uStrUWf0DIR5xQgDlx+bwrtWgUgqdM1gAKAtbUNZlTDecCgtLOUw7BBg9h1+Iiq67q+sOw1nl+6NNTVMXvQXf9d4LuB6omIiJRfsXQyZsnucff4xwBE0U+I4yaSTYJFxPE3gRMTZZKK5c3TfmKdHSsxnxO2ctQI/L+wNUX6Rw0A6bXpkOm47552jHL55l77Rz844IPJ3jwMsIseeyg+6c9/LAUt6vYt62q/1Ce03Bu0roiISBnY3PyGmB2bsMqtPnH6HQA+fspjVshfC3w6YbSxVmj/nje1lPcEeUmNN0/ttEJ+RyDgNX5+uJ17+qZ+/Kkvhqsp0j/aAiDYnPweuE9JO0e51OdyTNjjvVXzWl/S080x119ZGnvDVaXXVqwIXb4Op2BtbWr+iYhI5SsxDlg/UQ3nx6v+2H+aqF6vYbidEKCOVLIF3dOAuwNWHMzK6JiA9UT6rWoeiqSMcvyEGr7y7yvv2S3abOiwqlj+f8NzT/k+888vXvz4w6H3nb2F7cumDXrTIiIiFc3mz8+RfJn9k2yy/RWr/D/NLdcCDyesC8bJNnduTW6dlF7e2lrE7WigO1xVOyxcLZH+UwMg4+ycjiNxPpx2jnI6aa/9K/513l0s8t07/1Q67Kr5xYB7/t+Z8wOb2zay7OOIiIisq4VP/jewfcIqs3zMmFW20zk4xuyEdQG2JF78xQB1pIJ589SHMQoBS77fZs4cFrCeSL9U/IORlI/NmjWEOJ6Rdo5y+tQ2O9heIzap6Nn/hxYv8g9e/qtix713xLGX/9m/z0YU6783UIOJiIj0m3FKwgqL8e6fr/Znou4LgJcT1ofYTk5cQypfHHUAywJVG8zQ4ocC1RLpN+0DzrKG7iaItk07RjmdMnr/ij34z93p/Nu98bTbbyqtKIU962+tGI12zhln+/gpjw384CL9Z3PbhlIcsi3OFlg8ksiG4z4coo3A1wPrXYprPhinDmwZHndj0XI87gZbTORPE/Ms5J7x5in/Svm3VDVsbn5D3Hai5JtjvjkWbY4zBPfhmBn4ULBueq/NegXiIm4vYv485s+DPceInud9TGvwg02kNllX+3vBPpCwylxvbn19dT/jja3LrJA/H5icbAh/nxXa9/OmlpD7xKXCePOUf1ln+/mYBbr5IfoEcE2YWiL9owZARtnMmcMYFgU81bTy7DVipB2yxTYVOfv/7NLX/Lgbry7d9NzTAzbl/58sRxxPB45LL4PIqgyMzvYdIRqN+a6Y7Yn7bsC20LAR5mB9H+l93/PGXyNf5TtwMHvL94Bb36+PsUJ+OXAvxl9w7gS/3ZtanhiQ32gFs8629aD+g2AfwdgXY3ecrXo/j9D7ue/7JBv8x+f/jZ9482P7PveLGmIr5P+F21MYT2P8DeIHiXL388KyJ721tYxnn0jVie1Ekn0FX0mRs9/1I8zn4DYJSDZZ0PtQmPCmAql4kV+MB2oAmO8dpI7IOlADIKuGFU8GG5V2jHL69t4HRWaV9/x/2ZOPxk03X1ta3BPwPJl15l+xuTM6vHH6I2knkez598M++2HRfuD7AftiNvzfD/Nl7ZENAd6P8/43Elmh40E8vpQo/q1POPXBcg5eSezsji2o40jcx2ANB/PW9wfh/ggiYAvMtwDe92YDpxTDqIbXrbPjAfD7gbupi2+p7n+X4q2s0P6JtFO8qdhzp5/U+mraMdaWzT1zJMZXEpb5jZ809dl3+wCf0PJPK+SvAL6QaCTnKJt75hRv/PaiRHWksr244v8Y1fACsHmAajsHqCGyTtQAyCCb2zYUGmp6z9oWw4bZkTvsUlFnXLyyoptT/nx96cLHHqqgWS7LUWQamrmQAWLnnr4pK6PPgX0K+BhmG/X+TIqLYVbhe/auOsi1WiF/H3gnS+su9MmTl6adLDQDo+uMz0B8CjkOwVM9F2g9zN8HvA+AUkTvagG/nsh+z8rua6rpARbss8Bn007xplz9gcBf0o6x1uLi8fQ26BLUiGat3QdGP4U4WQMAGvoytyesIxXMW1tjK+SvIcx7pq1s1qwhPmnS8gC1RPqloh6QZIAU68cCI9KOUU4n7bV/NDhXOdv/b3ruad/nkp8XK+vhv4/xJev88dZpx5DaZvPn56yQ/z0rc8+C/Qz4IrBR2rnWYG+wcxhWetYKHR1WaK/0vGvF2toi6+o4mkL+b3j8vzgfpzLfD2yG2ddwfkNdw0LrzF9nZ89MeiK8VDhra6vDaUpY5kafOOWetflAb5pyM/DXhOOB09R3baHUNLs/UKGIhtJOgWqJ9EslfsGXMur74nRS2jnKaf3Bgxm36+iKeG33lHqv9/vUVZcUn1v6eqVMcb6NDSJaGehQG5HV67uGa9Wl5dVjOPgUsMeskJ9obW3V+HsAwDrz72dUw+24/wLYLe08/TAY41B85WoPdJMasmn94cA2yYrYWf36cLd3Pytg7WzDS//4fIA6UtHicFvDvFTTB3FL5aqIhyQZQC8/cRhmO6Ydo5yO23V0NLy+Ie0YPLz4Jf/QwF/vt26ccbqTVgZAtd84MQI4m1ENd9mcGVW1f9Nmz663rvxZGH8GDkg7zzp6wk+avjDtEFJmnnSSwp5h5PZX9euXLIsuBpJvMQl1QJxUrmIU7mwSY/1gtUT6QQ2ArIn9+LQjlFPOjIl77pvq69rdOe+R++P3XfbL4l8XLazwJ/83bcCw+Mi0Q0jNezztAIHsTRTdZV35L6UdZG3YnBk7U7fsdpxvQsJz1dN1Z9oBpLysMHM02EeSFeFnfSuO1lrvGR92UaJxex1ic/J7BKgjlaonWhyslhoAkhI1ADLEzu3YCvivtHOU0xd22Dnabv0NU3uD++LypX7ENZcVm26+trSsuDKtGOsoHpd2AqlxZrXSAABYH+c3Vsh/N+0g78YKZ3yEKPo/YJ+0syRnd6SdQMrMSkln0FcSFc9dp18Z288Sjg1gREwMUEcq1eTJy4B+NZjema8Xpo5I/6gBkCUr4mPBavqAmm+O3j+11/Tvnnw03ueSnxf/8PQT1TLr/zZ2sJ0zY/e0U0gt82rfArA6P7TOju+kHWJ1elcoxNcCG6edJQh3rQCoYXberI1xvpasCFd446kvrMsv7Ts08O5E4/c62ubmNwxQRyqQ915Z81qYapEaAJIKNQCyxKiK5arr6kObb20HjtpiwGf/X13Rw8Q/XVf68nVXlF7qrvLbXOLoy2lHkBpWWysA/s38R9bZPintGG9l58w4DOdXQH3aWQJZSc/ge9MOIWW0omccMDRRDfdzEv16I8QqgPUoMjZAHalcYd5rxnFNT8pJ5VIDICPsnPzeYLuknaOcJu19wIC/nu948Xk/6NILij97+L7Ku95v3agBIOVjNbkCoJfZGVbIfzrtGAA2Z8ZBxNF8YFDaWYIxHtB92bWr94Yia05Y5lGaWq5PVGFl96+BpQlzgNFs1X3ehry7MDP3FmolgUj/qAGQFTE1fcDbThsOt8O22WHAXs/FOOZHd99W+ugVFxX/8eorVbrkf7V2sK7296YdQmqTN057BajVU9xzwEVW6Ei10WpnnTWcyH5D0pnUSuNo/38tW/Tk54DtEtUwn9u3PHud+UmtrwIXJ8rRa2c62z8ZoI5UGJs1awi9/94HKGa61lRSoQZAZnhN3017yt4HRpENTLP970te8g9e/svi/9x1a1yq9Ov91kn02bQTSE2r3VUAMBz8F9bWlt7X1vqeAljt3S2t/f+1zT3p7H83JZ8XIgpxHGIbABhNQepIZakvhjvfwbUCQNJRl3YAKb/e0/9tt7RzlMvGDUP46nt2K/sbbnfn/L8/EE++7YbS0pXVdsJ/P7h/Cvhh2jGkZj0OvD9QreXAYqD7LT/upnf2ux7YEBhOqNmatXMgoxqagDkDOCYAdk7HocBRAzDUK8DfgL9jvAr++qpvZKONAHDfBPOReLQJ5psD27CuEw85NQBqlc2ZsTNR9ImEZS7xidNfCpHHJ06/wwrt94ONTlbJPmOzO7byk6Y+GyKXVIiouCMe6i2nVgBIOtQAyIIV/ula3ok2cc/3RsMGDS7rGAuWL/MJf7q2dOU/H6/FKf+328+62kb5hNYFaQeRmrS2KwCKwD+AB4GHcZ4mFz+H+9PUsZDl6y/xk07qWVMRm982mAWDt6OO9xBH7wM+ChxEeffHn2bnnv5bP/7UF8s4xiqsrS1iVEO+TOWXAtfi/r9Qut6bv/PMuhSx2bPrqevZBY93xvx9wAeA/Vjze5FX+deKR9ZlTKkCUTSepPvlo7grTJg+Fv0M99kJq+TIxccDPwiQSCpFnNsVC/RWMPaXwxQS6R81ALLA/NBaPYumPpejcfd9yjr7//t/Ph5PuPna0qLuZeUcppJE0PAxwuyDFFmV8fhqdunGwCPgfwH7C2Z/YeWQ+9bmAX9NfEzrCuDRvm9XA1jnGZuBj8MYD7510jFWY0NW1k0CWspQe/U2rf9vnNDnd/wDfCbd9ReEOICv78/z/r5vvwWwmTOHsZ4fgseHAZ9mdfvAjb94a2u1HbS6EHg67RBvynnyg+3KwGbNGkJD4hPz7/Px0/8vRJ43eXwhWAcwJFGdyMbZ/Pk/9DFjAt0bL6kzwp3zYtGjwWqJ9IMaANlwcNoByuXonfeINh0yrCzdjWXFlXz/zltKP33g7mp745mc837UAJByMHuc3rMzFmBcgfM7it239h2+NSC8ecq/gNNsftsZvNQwDue7wBaBR5lgs9tOH7DfV2zjw/V57RmM6YzY/uJyP7j45MlLgSv7vmGdHbsRxYeBfRVn394Pqsbl/3apN03VHvA1aVh5FLBxsiIedvYf8KaWxVbIzweOSVaIrVj05GeA3wcJJhXAPxyo0Ct9X4tEBpwaADXOOtvfg9lmaecoBwNOHr1/WWb//7LgBR97w5Wlx15ZkoUl///J+UDaEaRG2fKHYOiHGbndbWnPivWtDihYof1i4CdgRwcsvyGD6k8AzgxYc7Ws0L4DZh8PVG0+9Yzz46amcjiVN099GHgYONMKM0dD6dtgt6aRRQaCT0hY4DXqowuDRHk752dYwgZAb6FG1ACoCTZ7xibURQcEKvf3QHVE+k0NgFoXRe+jJk+qh8O23dF2HT4i6Ox/MY456/674ta/3FJaGWdv4v9Nxh42N79h37VtIsF4Y+sy4Ja0c7yVN7UsBo6xQv4vwFmEuiHH7WsMQAMAt89hQTL/nKap45JepRaKN02+H/hG2jmkPKzQvh/YgQmrXFiuZpU3T/uzFfIPA0kPUf6UzTlzW5/47adC5JIU5aJPE+wGNVcDQFKjawBrnu+XdoJyOWX0/kFP9n7qtVf80Ct/Uzz1jpuz/fDfK6IU75N2CJGB5E3TZuMcS7gH4Pfa3DN2DFTrnZknPUEdjHsY2T2hUh7+JQss+RaJiPMCBHln5iHq54iKxweoI2kzawxXLLonXC2R/lEDoNY5e6UdoRz23WSUfWSLbYLN/l/02EPxe+fPK976wrN68/sGt5p87Yi8G2+e9gvgtGAFS6Ujg9VaDWtri8CS70n16Ft9WyJEys7OOms48JWEVR708VPvChLoHdX9Egjx9+I4a2vTqtsqZoWOg8HDbY90rg1WS6Sf1ACofXumHaAcJu19UJDX7qLu5X7ktb8rjb3hqtLrK/Xed1VWk68dkTUaucMPgu07Nzs0SJ13MnK9rYENkhWxB71pys1B8oisjcE93wCGJqph8bwgWd6FT5i8APjfAKW2YNP6zwWoI2lxvhew2tN9552IpEINgBpm53dsAWyUdo7Qthy2nn1h+50Sv3b/+MyTvv9v5xV//8/HM7/ef7WMPdKOIJIGHzOmRGTHEmLmzznY5s4dlDzVO6gr7Rygyh8C1BBZK9Z7hm/Sw/+K1MW/CpFnLYTZZuB416/yAAAgAElEQVQ2PkgdGXDWlT8K88PCFdTsv6RLy5FqWbfvEO5aqMrxzdEHRIOidd/+v7y4ku/deUtp9gN3x1rv/662TztAVXE+Z4V8mZejDqAcX/DGaZVzj/kA8/FTHrNC/jwg6T7lYcRL3guU5yo79x0S1zAeCJBEZO10tR+C2a4Jq/zBjz/1xSB51mTkDtex6MlnwLdOWOlQO3vm9n7i5CeD5JIBYeeevime+2nYqq6mq6RKDYBaZmyXdoTQ1h88mGN33XOdZ//vXvgvH3vDlaW/L1msZ/81G2Wdbet5c+vraQepEiP6vtWGlXFD2hFSF9fliYrjSb5a7kDK1wDYgKSdXiu9FCaMyNoIcPif27zkOdZyqDFjStbZPg+zpEvAI3LFE4BTQ+SS8rO5bUMpNVwBbBKw7EusHHZ1wHoi/aYtALVtu7QDhHbCbntHGw7u/3NJyWNm/vXO+CNXXFTUw38/5AZvk3YEkbT0Xdv1x+SV4qTXiL0LWy9xiTinyQAZEHZ2xxY4hycss4hNll8ZJNDaiut+DgTYLmjHlnVLkARjbW11FBt+BRwUuPQv/aSTegLXFOkXfdGvZeab47WzB6Auijhxr/3WqWnVUypx5I672JE77jKgr/mSx3Tce0f880ceqM5zBkq2FfBQ2jFEUuM2H/NPJqxRzgbAkOQ398WbBYkisiY5Px5I9gDsftFA31jhJ05+0gr5G4CkV25uRnHJ4cBvA8SSMrHzO9ZnVMNvgE8HLl2kFHo7gUj/qQFQyzzokqXUjdlhl2irYeuvU0djaN0gtlt/wwHthjzz+qt+/E3Xlv70/DPVvOKgdpa0i6yLOv8jpcRVku53fhe+PHkNUwNAys7a2iJGNYxLXMhzFwSI03/GeXjiBgDgjagBULGs0L4D2KXAPmUof4nOgJBKoC0ANc1q6uHtpHWc/U/DZU8+Gu//2wuKVf7wD2oASMZ547SnMZ5NWGbTsi37dZYGqPLeADVE3t2mDYcCCbeV+f0+cco9QfL0V0P35cDLiesYH7ezZ+qQ3QpjbW2RdXWcDHY/5Xn4X475d8pQV6TfquaBStbJxmkHCOWjW25j+4/avOL3Myzp6eYb119ZOuq6K0qLe7rTjpOcWc28hkTWmfO3hBUiViwpz4qsiFcCVPmYzW1Ldie7yJq4BZj9Z17yIOs49NjWbtxDXD0YkSsdH6COBGBg1pn/HKMabsf9J8Cwsgzk3uETWv5Zltoi/aQGQC1zr5k3dKeMPqDiX6s3PPeU7zP//OKvH3+4Ovf7r1btvIZEEkjaAIC6eNMAOf6T2RMBqmxAPOS4AHVEVsvmnjkSPOnhfyuJ6i4MEmhdWd15gSqNtbY2bcNNkZ3fsb4VOo6lkL8H4/fAAeUbzZ+irqejfPVF+qfiH6okAWNw2hFC2GX4Rvaprbev2Ndqd7HId+/8U+mwq+YXn1+6tNqX/K/KrCZeQyKJmCdvAMRlOpPF48fC1PHTrat9uyC1RN6uVPo6JHxPYlztEyYvCBNo3XjT5Ptx7gpQagtGNnwmQB3pB+tsW8/m5A+3Qvs8evwF8PMpz3L/t3Iib/bG1mVlHkdkran7WNOsJq6ambT3gVFklbn6/+HFL/kx1/9v6b6XFtbWg/+bvD7tBCKpK0VPESX8K+42JEyYt3mx52lGNSwBhiestD7OPJs791BvbFwZIprIWwRY/m/zkscIwPw8sP0T14k4AbgieSB5JzZnxgjMDiCKDsD9o1jDB3snxwb0PeVpPn761QM5oMiaqAFQ26q+ATBqyDC+8p7dKm72393p/Nu9ccvtN5V6SsmPCK9YXhurSEQSsfjVxG8YzRvChFmVt7bGVsjfBByRvJp9hNLii23u3KPUBJBQbM6Mg4iiPROWWUhu+FVBAiWVs19T4kwg6Ra5T1nnaVt783eeCREra+z8jvVZyoZENooo3hRnE4xtgO0wtsPZgSjqPWzR05qjsWtYsLw1pcFF3pEaALWt6t/ANe+xTzSkrrL6GM8tfc2Pu/EPpRufe6pGZ/3fwhjQu5ZFKpL7KyRehWTlW03j9kfMAzQAAPgCpcUX26xZX/dJkwJcMSiZl4vGkfyr5cWV0pTyxmmvWCF/GfD1hKVyRIOOA9oCxKps8eLbrZBf11fBRn3fD6e3E7sBkAP6nmL6yr71n+jKeHf2GIMHfc1bp9bQuVBSK9QAqGm+coCXOQXVkKvj+N33qajZ/8uefDRu/tN1pZe7s/K+2HrSTiCSOqt7FRK+hzMv32qaUmk+ddGZQKhVBl+gYcUDdk5Hk4+f+sdANSWDbObMYQzjqMSF3H8ZIE5AfgFY0gYAOONs/vwf+ZgxNbyUEHD2TTvCgHIeIbaP+7hJya+NFCmDinq4ksC8umdvv7HLntGoIUMrooPx6ooejrvx6tJR112RoYd/wL2qX0MiQZSWJT+8yct3kImfNH0h+PzAZXck9uuskL9Qd5bLOhsWfwlYP1EN5xFvbvlLmECBLOi5AXg6eSHfmpcf/2TyOlI57EEGlz7qJ059Pu0kIu9EDYBaZla1J44acOJe+1bE6/P2F5/zAy+9oPirR/+WwWVc1fsaEskUizuAcswifpVc6e9WyJ+rRoCsg+SH/2G/Sl4jLG9tjbFAqxLi6IQgdaQS3EEud4gff+qLaQcReTfaAlDbFqUdYF19drv32C7DR6Q6+78yLpG/947SaXffFpdSO0AmdS+lHaBqGPN8wrRj046RNQbG7BkjyeVGgo/AbCQeD8H6Zh3dhmC+vO+DXyK2FzF/niE9z/vY1u40s4fkE0590Aod54E3lqH8IGAcudIx1tl+CRad7U1Tby/DOFJDbO6MXSH6QMIyThRfGCRQaJa7AI9PJfley8/a2R1baMa4qjnwE0Z2T/MxrVo5KRVPDYBa5rxcrUcATBq9fy7N8R9Z8pJ/4/orS/cuWpDZJ38A3Ku2iSS1xebOHUT88p7E0b6Y7wn+HrAdge2pixr+feqTs8qBffbm//R+yBs/Xt6AFfIvgz+LRX/D4/vA7sf8YSa0POWVcoxUfxRL3yUXHY6xaZlGGITZ18C/ZoX83WBz6B50sQ4LlNUq5Y5L/NfIuMUntPwzSJ7AfPyUx6zQcRt40iZHHTkfC5weIJYMvCVgx3rT1MvTDiKyttQAqGWRL8KrrwOw/6jN7IObb51KcHdnzt/uiU+9/U+l7lIxjQiVZnHaASSbbNasIQxd+UFiPg5+CLAP2GDsjQeKIP9EbAy2Me6jwb4CgBsU8q8bPIzzABF3Ujf0ocSHAA4AP2n6Qus643g8/j3lPwF2P/DzaVgxy7ryl0B8gU+YfmuZx5QqYXPnDsL9mMSvwpiKW/6/qngeWNIGAMDx1tbW7q2tlf8Pjfybcwl1TPHGqQHOgxAZOGoA1DK3F9KOsC6+tfeBqez9X7B8mTfefE3p6qf+UX0zf2UT6X5iGTA2a9YQ6ns+j/FVGuy/iIOdat9f6wEHYByAc1w1PPy/wSdMudIKHR3g0wZoyA1xToDoBCvkHwUuoGTztJw54+KXP4tZ0pUo3ayoD324ZVjFnkuoa/gJMDRhpe3ZbMjHAd26UR3uhmiSN0+5Je0gIuuiIg5ZkzIxezLtCP21zfrr2xHb7TTgr8vL//lYvPcl5xf18P82yyJ1taXsrLNjN+vKz6VhxYuYXQz2ecJdaZc9TVOng/0mhZF3Bk4j509ZIf87K+Q/bW1tep+RRW7JD/8zrvRTTlkSIE3Z+Emtr+L+uyDFYnQYYMXz+zE7hgXdB3qTHv6lemkFQC2L/alqOwPgm3sdENVFA/d+8bUVPbTcfnPpZw/fVz1TfAPFeNEnT16adgypXdaZfz/GqRiH4dX2r1XlcnDLDT+a0hLAv5xChDrgCOAIRtU/ZV0d51HkPK0KyAabe/rmkEt+tZ1bmFP2y82YB3wteSH/vM2ZMcInTtfhu5XFgWvAf+xNLf8v7TAiIagBUMvq6v9BqSftFGttg8H1HLPLHgP29H/ngud97A1XlR5/ZYlm/VfHvepWkEh1sLn5bSiRx/gy5d+rnkne2LjS5s//GoueWARMTC+JbYv7/5Dj+9aVv5xSPNMnTr8jvTxSdqXo6yR/f7mIkcuvCRGn7Bb03MCoIc+Ab52wUj1R9FVgdohYktijwCXk4gu9cfojaYcRCUlL82qYN57yAlV0jdv43feONhxc/lW/xTjmR3ffVvrI5RcV9fD/buzBtBNIbTEw62r/NiUeAY5CD/9l5WPGlLxp2omYjwPSvvKwDudIouh2K+RvsULHEdoeUKtsbPISfkm1XKfmra0xFv8iUDldJZuuh4DTidjHm6bt4k3TvqeHf6lFWgFQ+x4EPpJ2iDUZFEU077lv2d8MPrrkZR9741Wluxb8Sw/+a+KuBoAEY3NP35xi7gLMDk07S9b4hJbzrTDzLij9Atg77TzAB8E/yKiGx6zQ/mOG9Mzzsa1pNygkAJsz4yCiaPfEhTyqjuX/b7DcBXh8Ksmbmu+1zjP28eYpfw0RS96VAw9jfhPYzcTRn7x5yr/SDiUyENQAqHXGA3jlNwC+/J7doi2HrV/W2cCLHnsonnjLdaWlK1eWc5jaYf5A2hGkNljnGftguT9gbJZ2lqzypsn32/y2A1lYfypm06iMQxZ3AiuwvOH71tl+BnU953hj67K0Q0kCUW5s73NVIo/RNLWqton4+CmPWaHjNvAAVwKWjgW+mbyOvMUrwN9wHsB4AKIHGVz3gI+b9HLawUTSoAZArXPuSTvC2vjm6P3LNvu/sHuZj7/52tKV/3xcs/5rLyYX3Z92CKl+VjjjQ1j8v8CGaWfJur4l1T+wQvsvMPsxzuFpZ+qzOWY/Jm74lnW2T6W55WIP8BQpA8vmtTVAw1EBSv2qKv/83S/ASN4AMPuazZ491U86qXoOcUrPEmAxxmJgMc5C4HnMnqLkT0H0DHHxGT9p+sKUc4pUFDUAap7fVunbbD+x1Xa294hRZQl53TNPeuPN1xSfX/p6OcrXLucBb5z2StoxpLr1nfJ/LTAk7Szyb97U8gRwhBU6Dgb/IfCJtDMB4GyF2UV05SeY+7F9OaVadDccAQwPUOnrVsh/PkCdgWXB/p0bQW7554DfBqqXvjg+mMiK614geh3i3uWbg+KlrIxW0NSypCobRSIVQA2AGudNLU9YV/4FnM3TzvJOThm9fy50zeXFlXzvzltKP33gbl3vty4ibk07glQ3O3vm9uT4HXr4r1jeNPV24NDeLRreBP41YFjauXA+DHafFdoneVPLuWnHkbXkjA1UaadAdarZsdRSA2DQiHu8sVH7L0UqhE7gzYKY29OO8E523WhjO3Sr7YLO/t+14AU/4NILinr4T+S2tANI9bLOtvXIla4ERqWdRdbMm6f81ZumjifHlsDJwMNpZwLWA/uZdea7bO7cQWmHkXdnszu2olJWktQC80/a2R1bpB1DRGqTVgBkgfkfwf477Rir8+29D4rMwjz/F+OYs+6/K279yy2llbGe/ROIofumtENINaufASQ/CXztLKD3tpMnged6f2zP4b4I8+XE1k3kywHI5YxS6Y0lyhsR+WA82hr3bcG2BbYDdgFGDFD2itK37We2wdl0dnyUyJv7zglI7wHcGE9p8U7W2Xa4N7dqL1elqvNjgOCr+TIs1/c5bU87iIjUHjUAssDq/4BX3nW6o4YM48s77hpkFcrTr7/qY2+4qvTnF57VfrDE/C6f0Log7RRSnWxO/sNE1lzGIVYA1+J2BXF0g584+cnQA9jc0zfH6/bEfT+cI4ADqfTDVAJycJqn3gjcaGd3bEEdJ+B+ArBlSpE+BkOus7POOsxPOWVJShnkHVjv341vpJ2j5jjHGuS1z11EQlMDIAN8wqTnrJB/iIGbkVsrJ+61b66hLvlL8KLHHopPvOWPpddXVl6Toyo516YdQaqTtbVFjGroohzby4xncf8pcK43tSwOXv8tvPHUF4AXgD8C7TYnvwcRD5ZzzErlJ059HmiztrbT2LT+cNxOBD464EHM30d9z+9s7tz/0l7iCtM14/0Q7Zx2jBq0M10z3s+E6TqTR0SCUgMgO66gghoAQ+sGccJueyd6SFjUvdybbr4mvuKfj2u9f1C5/007gVSpUUM+D75b4KqLcH7EyO5C3zV2Ay/ufoaoIZWhK4W3thaBS4FLrev0PfG6ieBHM7CHBn6U0pKfAk0DOKasiefGapK6TDw6FnQor4iEpUMAsyJXWafJjt1lz2hEw7ofDn79s//0/X87r6iH/+Ae9eYpf007hFQrnxK2nl3DoNKe3jztJ6k9/Mt/8AmnPuhNU5vIsSXu3wJ7ZiBHt0JH9V0RV6NsbttQ8C+lnaOGfclmzkz/Zg4RqSlqAGSEN057ALwSTnYmMuPk0fuv02uvu1hk8m03lA67an7x+aU6D6oMLkk7gFQnK8wcDbw/WEH3n7Jg+Wf8+FNfDFZTgvLGaa94c8sscsN3xP1YnEcGaOROm922wcCMJe8qHvJFQH8W5bM+w+Ij0w4hIrVFDYBMsflpJwA4fLv3RDtsMLzfB2r97eVF/oHLf1n86QN3x1psWCZeGa8RqUalcLOybmd6c8s3vbVVK3yqgDc2rvTmlnks7N4Dty+C31/mIbckVz+5zGPI2nAfm3aE2hcfm3YCEaktagBkiQ3+OXgp7RiT9j6gX6+72J05D94TH3TZL4oPvLRIz/7lYvyfN0+tiFUiUpU+G6jO5SxcPjVQLRlA3toae/PUy1jQ817cjy3r1gCzk+2ss4av+QPXQVwK8XWm5s9YsjlnbksaB0Jmjn3YCu07pJ1CRGqHGgAZ4hMmPYdZqie8HzBqczt40y3Xevb/mddf9U9eeUlx0q3Xl1aUUu9d1LaY89KOINXJCu0bAQckLuS8SK7uBM38V7feRkDLPLoH7YIxHVhehmE2ZHDP8WWoC9Qlv2XABvRwxHRY6evofeRAMCw6Ou0QIlI79A935kTnpjn6lPcetNavucuefDTe/7cXFG9+/mnN+pffKyzLXZp2CKlWuT0J8fXE/Pve+O1FyfNIJfBJk5b7hGntRNHeGH8KPoB5eR6KPA5wzaAPTV6jwpkfk3aEzHA/2qDfWydFRFZHDYCseXHZ1cDjaQy9/QYb2Oe23XGNr7lXVnQz9oarSkddd0VpcU/3QEQT41yfPHlp2jGkSlkc4orRV1lad2GAOlJhfPyUx3ix+5DeGwMohqtso63r9D3D1esTWfKMXtsrAOycGe8Ddk47R4bsSOGMD6YdQkRqQ83vUZNVeWtrbIX2n4L9dKDHPmX0gVHO3v35/8bnnvLjbry69NzS1zXrP2B8JXXRnLRTSBVz9khexK5VE6p29W3rmGVd+YdwLgcawlSu+xjwYJhab4hXJp5sdavpBgBx7hgI8mX6KrBlIQpVJHPD+SJBZu/9GOCW5HVEJOvUAMiiXM8vKDV8Hxg5UENuVN/A0Tvv8Y5P/93FIj+657bSzL/eGceuZ/+BZb/x46c+m3YKqWa2WeKHAfc7w2SRSuYTpl1rc/JHEfE7QjwUxf4BIHBDO/c6JDyGwmp3C4DNnl1PnX85QKknaZr2OQ/USahUVsjfSpArUn2MzZp1sk+aVI4zNUQkQ7QFIIO8sXUZ+E8GcswJe+wTrTdo8Gp/7uHFL/mHr/hVsePeO/TwP+C8BJZPO4VUvfUTVzB0A0VG+MRpVwCzghQzDgxS562GLlsSoEryvxOVqm7p54GNEtcxv6jWH/4BMPt1oEobUt9zRKBaIpJhagBk1dK6szFeHIihBudyNO2x73+81rzver8DL72g+NdFC2v/TUBFsgu9aerf004hVS9AAyAO8dAl1aLefoAH+Rq0lc2dOyhAnTf52NZuIOkBNFvU8KFtYQ7/M78oSJ1KV1ecD4S5xsgiHbwoIompAZBRPnnyUjw+cyDG+up7dos2GzpslTdCzy19zT911fzipFuvL/Xoer+U+EoG5U5LO4XUAk++39mi1wMEkSrhx019DeOcAKXqWPHqVgHqvF3ShlQD554+KkiSCmJdM0eBfSpAqXt9/PSHAtSpeH78qS8C1weqdqjNPX3zMLVEJKvUAMiyISu6cH+y3MOctNf+q7zOLnvy0Xi/315QvPG5pzTrnyazc/z4yWX/85dMWJG4glt9gBxSTaL4N0Hq1K3cIkidVVjy6yhLtkOAIJXF468S4vwo84zd+GEXByqUo5j7WqBaIpJRagBkmI9t7caiaeUc45PbbG97jdjEAF5d0cPEP11XOuq6K0ovd+sMm1QZL1OKNfsvoQQ4vT9eL3kNqSZ9M8ALEheKy3LifvKDUT3aJ0COCuPfCFAkphiF2hdfHXJ+Gcm3lfQyC/FnICIZpgZAxnnT1MuB/1eu+qfstX8O4I4Xn/cDL72g+LOH70t4tLIE4f59nzj9pbRjSK3w5A0Aj7YOEESqjfFI8hpR+BP3zZ8JUOW9AWpUDCvMHA0kb2oYN/qJU59Pnqh6eOO0V3D+EKjanjbnjH3D1BKRLFIDQMDt2+A9ocvuNWKkfXiLre1Hd99W+ugVFxWfePUVLfmvBO53MXLH89KOITXEoteS14h3CpBEqo2TfKm9x+G3j3iIFQB8JECSyuFxmAPo3DK2/L+PebhVD7lAfxYikklqAAjePPVhnI7QdQ/bZkf70OW/Kv7PXbfGJV3vVymKkGv2MWN08qKE4/E/k9ew9yUPIlXHKSauEeUCbEH5D08EqLGznT1z+wB1UmdtbXWYh9h73t23HD57uuuvBJI3SwGcr4S+/UJEskMNAOm1sCcP/C1kyZl/vTO+Z+ECPflXEvOZ3jzlr2nHkBpjPB6gysE2c2Y59nJLZUt+n7wHeqh6K/MwXw+j0pggddK22eD/AjZLXMe40hunvZI8UPXxSZOWg18eqNwoSks+HaiWiGSMGgACgLe2rsD8OEKc5t1Hs/4V5yGW189IO4TUoJKFaAAMZWjpiwHqSDUxdklcwwn/QNnQ8zAh7m43xhnYmj+wwsU5Lf8PwgIefujaBiAi60QNAHmTT2i5F/fWtHNIWXST4+jeGQiRwBoGPwgkP+Az4pvW1qavSxlhne3vAbZJWMZp8H+EyLNK0bGt3UCIujtT6Dg8QJ3U2FlnDQcP8XtYzMjlVweoU71yG/0/CHDuRa/P2nmzNg5US0QyRG+0ZFULe2YBN6QdQ0Lzqd447YG0U0ht8nGTXgbuT16Ifdl0iO64zoqIsQGqPO/HTQ2/BaDXrYHq/NDa2uoC1Rp49d1fAhqSF7L5PqY12CrDauSNjSuB+YHK1dOz8qhAtUQkQ9QAkFV4a2uMdR8D/lzaWSQQ90u8qaUr7RhS44wbg9Rxn22F9h2C1JKKZV2nbYnbiYkLOQ8FiPMOtf3aQIX2ZJP674aplYYozFLz2DO+/L9PzMXBapm2AYhI/6kBIP/BJ7QuwKIvl+NqQBlwD7KsbnzaISQDnD8GqrQh2DXWedrWgerVPJs9u94K+auts32szc1vmHaeNbF5bQ1QdxGQPGtUxhVr9fV/JMQ5AABm37HOji8EqdXfodva6vq2W/T/13a2vwf8/QFiPM2i7j8HqFP9FnX/GeyZQNUOskJH8nM0RCRT1ACQ1fIJU+8EJqWdQxIwXiYXjfHJk8txRZbIqhZ0/xF4PlC1nbBBt1rhjA8Fqlfbotf3AT6N2c8p8S/rys+3rvb/ttmz69OO9nZ21lnDWd5wOc6Hw1QMNUu/msrjJr2MBdsGUIf5xdbVflygemtk55yxk3XmZzCq4WnMfr5uRexoghxiaL/21tbk54TUgL7PQ7hVADoMUET6SQ0AeUfe1HIuxqy0c8g6WQH+VW+cEvxwLJHV8dbWIjAvYMWtIb7RuvJzreu0LcPVrUFRdOBbftSAcyRul1G37F9WyJ9rXe0fq4TDFa0z/znqe+4FPhmmoj/FhJbyXmvqdn7AaoNwO8+6Oi6y2R1bBaz7Jps1a4h1dRxthfabiOO/Y7QAmwMH9Lch1Hd7wdFBgpW0/H8VUcjPhx1dCX+/RaR6VO+hNDIwJkxrodC+OZgOmqka7lg03idM02GOMsD8PLCphPvaksM5Aeq+YV0dl4JfQEP3zX0ntMu/HfgO//9wYBxu4xjV8LwV8pcSxdfw2qCbB2plkM2cOYz1Sl/H7USMPcNWj85xKO99s7nl8yk1/IQQ2xXe4P4V6jjcCvlf48xjkx3+z8eMWeetBtY1cxRe+gTuh9Fgn8EZvppJ+3pyyw4A1n4ZfuGMDwPbr2uuf/P7/cQWHUL7Fj5+2n1WaL8fbHSAalszcsghwPXJa4lIFqgBIO/Kwa27fjwNKzYHPpJ2HlkbPt0nTNVsiww4b2p5wgod54M3Bi49GPevAF9hecNSK7Rfj9nVxH4PdfaoN04Leg+8tbVFbDxkCwb5HsTsTd2Qfcv9nJnQQWvxMVsAJxFHJzGs1GOF/G1gd+HxQ+SiB7HlD3lj67KkQazQvhGx7UXERzE+zDDehzO0DJ+/Hiw6L3TRt/PG1mXW2X4BZicHLj0UGIcxjkVPLLZC/nac+3r3hseLiexlsMV4XCL2OiJbH2wQ2CjMNwc2w9kV2IveP1uwNazUj/gg/WkAeHxMiMX/uOnr0eq4/RLjjCC1Ij8GNQBEZC2pASBr5JMmLbe5bYdTargS+GDaeeRdmP3QJ0z/cdoxJMNKtJHj6/Q+4JTDMLDP43weMyiBFfIvAI+ALQBeAX8d8+U4b7kezjYAy735Q/fhWN8Tk7kRMxJjU4xtGNWwKfggnL6J1Mp9+O+7B7y/B7zVA4eAH4IZxA40YIX8S8CL4AvBngN7Hec1jGLvobDe1yCw9XofRn0DjDrcN8dsW5xtwTZ4c3NhWT9tdpZPmLygnCO8qS5up5Q7nvK9pjcCPo3xad540Tm8+d/RW5/CE6x5cP/A2n7o/2/v3mP9rus7jr8+v0Npi8wFrUxRJ+JcnEAMiZcAAAz4SURBVGKiThPHVLYYweG8spoZNTNe6jkHamCjPQWSnVSn4wCLJJXCTvyDZU7/cHPihXndnGxzRuNQcWZzzqIBFNuuyqWn5ZzfZ3+ciqgtvX17vqe/z+ORnNCkh8/n3dPT9vye5/v5fsvs5pNSVv3BEe70YMNk/gMdrDN6huX9GatXJBk76Pse3Pll6+YL6uT0PR2sBYw4AYBDUtdN31eu2fyqrFz1ySTP7Hse9qPk3XV84zv6HoO21Qs33lGum3lnkncu4baPWXx70Cujur9vXT7o5x/8wv6BF/pZzq/19+/+vc9JJzdpS5I8cvHtQR+Mn1n5516IPvCfstQftzuzcuk+v+q6y+4s1125JalTS7XnsVHOKkk5pIQwXP3KpD786PesN9fJy7u64/1IqRduvKNsnfnHlLyog+UelrL6/CR/1cFawIhz0xAOWb1oelf2zJ2bki/0PQu/4Ko6PnWcf3HKyFhzxkwO51JjjkI50Pn/UVWTMlnfuPHug79rl4YzSe5c2j0794hcO/PUQ3rP2tGd5V3+/9AG5a+7W8zTAIBDIwBwWOpF07tyz9h5ST7T9yw84O11YuryvoeAn6hr1y6k1Ncn2dX3LCOv1kM5/z9CytV1YuOHl3rXOrHp/5K8Zan37dzYwY/x7Xvqxgs72G1PSv3bDtYZXcPdf5+kqxty/k6ZnfnVjtYCRpgAwGGrl1xyb1bPvSrVP+z9qven1nV1YurP+p4Efl4d37QtGbwsye6+Zxlxz+l7gCVTy025a/dlvW0/MfXxpLy3r/07cSj3Aahjr0sX59JrbtoXTjiAxTP79UMdLTfIfOnmsY3ASBMAOCL1DdNzmdz02pTizHkfSu5Ozfl1ctMNfY8CB1InNtycMnh1kvm+ZxlF5borzkhyat9zLI3yiZy0+/w6Pd3v59Lq3euTenOvMxyVcgg38h28rpOtOn3W/QireV9na5X6R6W7e4IAI0oA4IjVpNbxje9IresW7xDNkqj121nIC+rkpk/0PQocTB3f8LEMhi9PssRnthtQm/nu//syv/oV9Q3Tc30PUt8wPZcTV74iyX/2PcsReuK+S/z3q/zllc9O6pkd7LMrq/Z8vIN1Rt+jnvTZJHd0tNqTc92VjR0LAg6XAMBRq5Obbkgde36SbX3PMvJKbkrJWfWCqW/0PQocqvrWS2/KQn47/o7o1qCM+hf6e1PK+jox9fq6fv2yicz1TRfvTJk/J8ktfc9yRIZjB74KYNjVzf/yoeUQbI4Hde3ahSTv73BFNwMEHpIAQCfq5IZbMjZ3VpJP9T3LiJpPzZ9mfOqVzlRyPKoXTn09Y3lGkuuSDPueZyTUkX4CwJdS6nPr+Mb39D3I/tTxy29PnXt+Uj/W9yyHrZT93gegfHDziUle08keLv8/TGMdPg0gf1i2bFnZ4XrAiBEA6ExdN709E1MvTepkkvv6nmd01NtShi+qk1NXHNLzm2GZquumflQnpiZT8/wkX+x7nuNf/XFGL6ZsT3Jh7pp7bh3f9B99D/NQ6uT0PVnzpFek5NIkx8t3uxcO+DPbV5+XZE0He9yeH+z5XAfrNKNOXPK1JF/taLlTMrb7pR2tBYwgAYBO1aTWiU3vTVl4Xmpn/5g1qtaU3JC7B8+q45f+a9/TQFfq5NS/1Ymp56bkxUnxuX2E6sTUeanzpyd1U1K/1vc8R+n7KfWS3Dt2ep2YurZOTx8XYaOuXbtQx6euSMozUvL5vud5CLen1ndkLGfUiam37fc9ameXjn/gePn9W1ZK7e4qgOIYAHBgJ/Q9AKOpjl92a9m8+bdy6qqJJG9P8rC+Zzqu1Pqd1MGF9YKNn+57FDhW6vjUJ5N8smy96hkpwzcmeW2SR/Q8Vhe+m1puTcnXF1+Yj92aEx7+zWOxUZ28/HtJZpLMLD4VoLwkye8nOTvJcr8MeCEpn04d3pCT9tx4PJ8ZrxMb/yvJ2eX6mXOTXJaaF/Q9U5L/SfLh1NyYR53xhX1nzferzP7FmpS8pJNd68Dl/0difvCBjNWZdPEIxuTF5fqrT63jl9zVwVrAiBEAOGb2Pa5pS5m96qYsLFyTlHP7nmn5q3uSck32rHxXvfhiz09fKqV8NMkvH9Uaw3ypm2HaUyc33JLkbWXLlg0Zu/fslPJ7Sc5L8us9j3Ygd6dkW2q2JfveatmWMrwte1Z9u1500a4+hqoTm/43yZYkW8rWzScnq89J6ktS8rtJntjHTPtxT0o+m1o/kbLw0Tp++e19D9Sln0atmbNSsjbJy5KcsUTbzyfli0m9KcPceFg3i10Y/kZSbjzqCWrdue/PM4epXrjxjnLdzExSntzNivNPTXJ0AaDkG6nlg0c9yimnuCJkKZX6lWRwdL9vpd7b0TQsQ6VWR4pZGuXad70wg7Grkzyt71mWqY9nxdgf1zdf8p2+B4HloLznytMylmcn9TlJfjOLQeAJOTbx+t4sfrH8g6RuT8oPU/ODpN6VwWB7hsMfZqzcmRNO/F5908U7j8H+x1TZ+s7Hp5xwdpKzkjwlix/LAz4OriN7k3wrqV9JGXw5w/rlPGruy3Xt9N5jvO+yUq6deVpKOTslz0ypz0rNmUlO7GDpO5LcmpJbksHNGd73uTo5fU8H6wIwwgQAllSZnV2RhZ1vSs2mlHJa3/MsE/+SDKfrxKU39z0ILHdldnZF6o9Oz0J9XAb1V5KyJsPhmpTBqpThL6UOfi4O1PuS8pNHyP0ope5KsiMLZUdK2ZEThjuTue113XRzNy4tWzefnMHKJ6cOHp/kkclwTVJOXfxxOTmpJ+Wnxwgenp+9NHnf00jqXJIdqYPtKdmR5Pspw9uysOLb2X7P95wF/0VldnZF7r/7tIztfVwyeGxqOS2ppyRlZepwdcpg1QPvXIdzKYPdKdmdOrwztdyZUu/IsG6rF1y6o8dfBgDHKQGAXpQbNq/K7lVvSeqGpDy673n6Uf89ydvrxKbP9D0JAAAw+gQAelU2bz4xp656dZI/SRtHA4ZJ/iHDhffUCy77bN/DAAAA7RAAWBZKUnL9zDkZ5s0p9bykrOh7po5tT/I3GQxm61s3fKvvYQAAgPYIACw7ZetVj05ZeH1SXpPkzL7nOXL1/iSfSfK+zD/sI3X9+j0H+z8AAACOFQGAZa3M/vlTMl/WpuTlSZ6elNL3TAcxl9R/Ts3fZc+ej9SLp4+7u4UDAACjSQDguFFmr3lMFvaek9RzUvK81Dym75myeKb/myn5pwzrp3LCns+3eDdxAABg+RMAOG6V9179xMwPz9r3jPAzU/P0JKcc213rbUm5NaV+NbV8MXvmvlAvmt51bPcEAAA4egIAI6Vc/+7Hps79WurgCRmUJ2Q4PD2lPCKpj8zis61PyeKzrFckOTmpNSmLL+BL5lKzMyU7UuvOpHw/Nd/NWNmWZFv27v7vun76x7394gAAAI6CAAAAAAANGPQ9AAAAAHDsCQAAAADQAAEAAAAAGiAAAAAAQAMEAAAAAGiAAAAAAAANEAAAAACgAQIAAAAANEAAAAAAgAYIAAAAANAAAQAAAAAaIAAAAABAAwQAAAAAaIAAAAAAAA0QAAAAAKABAgAAAAA0QAAAAACABggAAAAA0AABAAAAABogAAAAAEADBAAAAABogAAAAAAADRAAAAAAoAECAAAAADRAAAAAAIAGCAAAAADQAAEAAAAAGiAAAAAAQAMEAAAAAGiAAAAAAAANEAAAAACgAQIAAAAANEAAAAAAgAYIAAAAANAAAQAAAAAaIAAAAABAAwQAAAAAaIAAAAAAAA0QAAAAAKABAgAAAAA0QAAAAACABggAAAAA0AABAAAAABogAAAAAEADBAAAAABogAAAAAAADRAAAAAAoAECAAAAADRAAAAAAIAGCAAAAADQAAEAAAAAGiAAAAAAQAMEAAAAAGiAAAAAAAANEAAAAACgAQIAAAAANEAAAAAAgAYIAAAAANAAAQAAAAAaIAAAAABAAwQAAAAAaIAAAAAAAA0QAAAAAKABAgAAAAA0QAAAAACABggAAAAA0AABAAAAABogAAAAAEADBAAAAABogAAAAAAADRAAAAAAoAECAAAAADRAAAAAAIAGCAAAAADQAAEAAAAAGiAAAAAAQAMEAAAAAGiAAAAAAAANEAAAAACgAQIAAAAANEAAAAAAgAYIAAAAANAAAQAAAAAaIAAAAABAAwQAAAAAaIAAAAAAAA0QAAAAAKABAgAAAAA0QAAAAACABggAAAAA0AABAAAAABogAAAAAEADBAAAAABogAAAAAAADRAAAAAAoAECAAAAADRAAAAAAIAGCAAAAADQAAEAAAAAGiAAAAAAQAMEAAAAAGiAAAAAAAANEAAAAACgAQIAAAAANEAAAAAAgAYIAAAAANAAAQAAAAAaIAAAAABAAwQAAAAAaIAAAAAAAA0QAAAAAKAB/w/iRyfuW9D9FwAAAABJRU5ErkJggg==;imageBorder=default;imageBackground=default;" vertex="1" parent="1">
          <mxGeometry x="-1040" y="880.25" width="248.37" height="89.5" as="geometry" />
        </mxCell>
        <mxCell id="6NX9De0AIqx8eO8tG6Va-17" value="" style="endArrow=classic;startArrow=classic;html=1;rounded=0;exitX=1;exitY=0.5;exitDx=0;exitDy=0;entryX=0;entryY=0.5;entryDx=0;entryDy=0;" edge="1" parent="1" source="6NX9De0AIqx8eO8tG6Va-15" target="7tyj4xhOJmE-xARo_hg0-1">
          <mxGeometry width="50" height="50" relative="1" as="geometry">
            <mxPoint x="-769.6800000000002" y="899.2899999999995" as="sourcePoint" />
            <mxPoint x="-710" y="899" as="targetPoint" />
          </mxGeometry>
        </mxCell>
        <mxCell id="6NX9De0AIqx8eO8tG6Va-22" value="" style="endArrow=classic;startArrow=classic;html=1;rounded=0;entryX=0;entryY=0.5;entryDx=0;entryDy=0;" edge="1" parent="1" target="6NX9De0AIqx8eO8tG6Va-24">
          <mxGeometry width="50" height="50" relative="1" as="geometry">
            <mxPoint x="-300" y="855" as="sourcePoint" />
            <mxPoint x="-110.32" y="1005" as="targetPoint" />
          </mxGeometry>
        </mxCell>
        <mxCell id="6NX9De0AIqx8eO8tG6Va-23" value="" style="group" connectable="0" vertex="1" parent="1">
          <mxGeometry x="-180" y="825" width="120" height="60" as="geometry" />
        </mxCell>
        <mxCell id="6NX9De0AIqx8eO8tG6Va-24" value="" style="rounded=1;whiteSpace=wrap;html=1;" vertex="1" parent="6NX9De0AIqx8eO8tG6Va-23">
          <mxGeometry width="120" height="60" as="geometry" />
        </mxCell>
        <mxCell id="6NX9De0AIqx8eO8tG6Va-25" value="Client" style="text;strokeColor=none;align=center;fillColor=none;html=1;verticalAlign=middle;whiteSpace=wrap;rounded=0;fontSize=30;" vertex="1" parent="6NX9De0AIqx8eO8tG6Va-23">
          <mxGeometry x="30" y="15" width="60" height="30" as="geometry" />
        </mxCell>
        <mxCell id="6NX9De0AIqx8eO8tG6Va-26" value="HTTP" style="text;html=1;align=center;verticalAlign=middle;whiteSpace=wrap;rounded=0;fontSize=20;" vertex="1" parent="1">
          <mxGeometry x="-270" y="822.84" width="60" height="30" as="geometry" />
        </mxCell>
        <mxCell id="6NX9De0AIqx8eO8tG6Va-34" value="" style="shape=image;verticalLabelPosition=bottom;labelBackgroundColor=default;verticalAlign=top;aspect=fixed;imageAspect=0;image=data:image/svg+xml,PHN2ZyB4bWxucz0iaHR0cDovL3d3dy53My5vcmcvMjAwMC9zdmciIHZpZXdCb3g9IjAgMCA0NTEuODQgMTUyLjQiIHZlcnNpb249IjEuMSIgZmlsbD0ibm9uZSIgaGVpZ2h0PSIxNTIuNCIgd2lkdGg9IjQ1MS44NCI+JiN4YTsgPGcgZmlsbD0iI2RjMjQ0YyI+JiN4YTsgIDxwYXRoIGQ9Im0yMTIuNjkgMTE2YzAgNS41MjMtNC40NzcgMTAuMDAxLTEwIDEwLjAwMWgtNi44MzZ2LTcuODA4aC0wLjI0NGMtMC43MzIgMS4wNTctMS43MDggMi4xNTUtMi45MjggMy4yOTMtMS4xMzkgMS4wNTgtMi41MjEgMi4wMzQtNC4xNDggMi45MjktMS41NDUgMC44OTQtMy4yOTQgMS42MjYtNS4yNDYgMi4xOTYtMS44NzEgMC41NjktMy44MjMgMC44NTMtNS44NTYgMC44NTMtNC4zOTIgMC04LjM3Ny0wLjczMi0xMS45NTYtMi4xOTYtMy41NzktMS41NDUtNi42NjktMy42Ni05LjI3Mi02LjM0NC0yLjUyMS0yLjc2NS00LjQ3My02LjAxOC01Ljg1Ni05Ljc1OS0xLjM4My0zLjc0Mi0yLjA3NC03Ljg0OS0yLjA3NC0xMi4zMjIgMC00LjE0OCAwLjYxLTguMDkzIDEuODMtMTEuODM1IDEuMzAxLTMuODIyIDMuMDkxLTcuMTk4IDUuMzY4LTEwLjEyNiAyLjM1OS0yLjkyNzUgNS4yMDUtNS4yNDU1IDguNTQtNi45NTM1IDMuMzM1LTEuNzg5MyA3LjExNy0yLjY4NCAxMS4zNDYtMi42ODQgMy44MjMgMCA3LjM2MSAwLjYxIDEwLjYxNCAxLjgzIDMuMzM1IDEuMTM4NyA2LjA1OSAzLjEzMTMgOC4xNzQgNS45Nzg1aDAuMjQ0di0yOS4yODRjMC01LjUyMjkgNC40NzctMTAgMTAtMTBoOC4zem0tMTYuODM2LTE5LjY0NmMwLTQuNDczLTEuMzAxLTguMDkyLTMuOTA0LTEwLjg1OC0yLjUyMS0yLjc2NS02LjEtNC4xNDgtMTAuNzM2LTQuMTQ4cy04LjI1NSAxLjM4My0xMC44NTggNC4xNDhjLTIuNTIxIDIuNzY2LTMuNzgyIDYuMzg1LTMuNzgyIDEwLjg1OCAwIDQuNDc0IDEuMjYxIDguMDkzIDMuNzgyIDEwLjg1OCAyLjYwMyAyLjc2NiA2LjIyMiA0LjE0OSAxMC44NTggNC4xNDlzOC4yMTUtMS4zODMgMTAuNzM2LTQuMTQ5YzIuNjAzLTIuNzY1IDMuOTA0LTYuMzg0IDMuOTA0LTEwLjg1OHoiLz4mI3hhOyAgPHBhdGggZD0ibTIyNC41MyA3Ni43MDhjMC01LjUyMjMgNC40NzctOS45OTk1IDEwLTkuOTk5NWg4LjN2OS41MTU1aDAuMjQ0YzEuOTUyLTMuNjU5NSA0LjI3LTYuMzg0MiA2Ljk1NC04LjE3MzUgMi42ODQtMS44NzA3IDYuMDU5LTIuODA2IDEwLjEyNi0yLjgwNiAxLjA1NyAwIDIuMTE0IDAuMDQwNyAzLjE3MiAwLjEyMiAxLjA1NyAwLjA4MTMgMi4wMzMgMC4yNDQgMi45MjggMC40ODh2MTYuNzE0Yy0xLjMwMi0wLjQwNy0yLjYwMy0wLjY5Mi0zLjkwNC0wLjg1NS0xLjIyLTAuMjQ0LTIuNTIyLTAuMzY2LTMuOTA0LTAuMzY2LTMuNDk4IDAtNi4yNjMgMC40ODgtOC4yOTYgMS40NjQtMi4wMzQgMC45NzYtMy42MiAyLjM1OS00Ljc1OCA0LjE0OC0xLjA1OCAxLjcwOC0xLjc0OSAzLjc4Mi0yLjA3NCA2LjIyMi0wLjMyNiAyLjQ0MS0wLjQ4OCA1LjEyNC0wLjQ4OCA4LjA1MnYxNC43NjZjMCA1LjUyMy00LjQ3NyAxMC4wMDEtMTAgMTAuMDAxaC04LjN6Ii8+JiN4YTsgIDxwYXRoIGQ9Im0zMTAuNjQgMTE4LjU2aC0wLjI0NGMtMi4wMzMgMy4xNzItNC43NTggNS40NDktOC4xNzQgNi44MzItMy4zMzQgMS4zODItNi44NzIgMi4wNzMtMTAuNjE0IDIuMDczLTIuNzY1IDAtNS40NDktMC40MDYtOC4wNTItMS4yMTktMi41MjEtMC43MzItNC43NTgtMS44NzEtNi43MS0zLjQxNi0xLjk1Mi0xLjU0Ni0zLjQ5Ny0zLjQ1Ny00LjYzNi01LjczNS0xLjEzOC0yLjI3Ny0xLjcwOC00LjkyLTEuNzA4LTcuOTI5IDAtMy40MTYgMC42MS02LjMwNCAxLjgzLTguNjYyIDEuMzAyLTIuMzU5IDMuMDEtNC4zMTEgNS4xMjQtNS44NTYgMi4xOTYtMS41NDYgNC42NzctMi43MjUgNy40NDItMy41MzggMi43NjYtMC44OTUgNS42MTItMS41NDYgOC41NC0xLjk1MyAzLjAxLTAuNDA2IDUuOTc4LTAuNjUgOC45MDYtMC43MzIgMy4wMS0wLjA4MSA1Ljc3NS0wLjEyMSA4LjI5Ni0wLjEyMSAwLTMuMjU0LTEuMTc5LTUuODE2LTMuNTM4LTcuNjg3LTIuMjc3LTEuOTUyLTUuMDAyLTIuOTI4LTguMTc0LTIuOTI4LTMuMDA5IDAtNS43NzQgMC42NTEtOC4yOTYgMS45NTItMi40NCAxLjIyMS00LjYzNiAyLjkyOS02LjU4OCA1LjEyNGwtOS43Ni0xMC4wMDRjMy40MTYtMy4xNzE1IDcuNDAyLTUuNTMwMiAxMS45NTYtNy4wNzU1IDQuNTU1LTEuNjI2NyA5LjI3Mi0yLjQ0IDE0LjE1Mi0yLjQ0IDUuMzY4IDAgOS43NiAwLjY5MTMgMTMuMTc2IDIuMDc0IDMuNDk4IDEuMzAxMyA2LjI2MyAzLjI1MzMgOC4yOTYgNS44NTU1IDIuMTE1IDIuNjAzIDMuNTc5IDUuODE2IDQuMzkyIDkuNjM4IDAuODE0IDMuNzQyIDEuMjIgOC4wOTMgMS4yMiAxMy4wNTR2MjAuMTM1YzAgNS41MjItNC40NzcgMTAtMTAgMTBoLTYuODM2em0tNC41MTQtMTguNTQ1Yy0xLjM4MiAwLTMuMTMxIDAuMDgyLTUuMjQ2IDAuMjQ0LTIuMDMzIDAuMDgyLTQuMDI2IDAuNDA3LTUuOTc4IDAuOTc2LTEuODcgMC41Ny0zLjQ5NyAxLjQyNC00Ljg4IDIuNTYyLTEuMzAxIDEuMTM5LTEuOTUyIDIuNzI1LTEuOTUyIDQuNzU5IDAgMi4xOTYgMC45MzYgMy44MjIgMi44MDYgNC44NzkgMS44NzEgMS4wNTggMy44MjMgMS41ODYgNS44NTYgMS41ODYgMS43OSAwIDMuNDk4LTAuMjQ0IDUuMTI0LTAuNzMyIDEuNzA4LTAuNDg4IDMuMjEzLTEuMTc5IDQuNTE0LTIuMDc0IDEuMzAyLTAuODk0IDIuMzE4LTIuMDMzIDMuMDUtMy40MTYgMC44MTQtMS4zODIgMS4yMi0zLjAwOSAxLjIyLTQuODc5di0zLjkwNXoiLz4mI3hhOyAgPHBhdGggZD0ibTM0MC4xOCA3Ni43MDhjMC01LjUyMjMgNC40NzctOS45OTk1IDEwLTkuOTk5NWg3LjU2OHY4LjA1MTVoMC4yNDRjMC41NjktMS4xMzggMS4zODItMi4yNzY4IDIuNDQtMy40MTU1IDEuMDU3LTEuMTM4NyAyLjMxOC0yLjE1NTMgMy43ODItMy4wNXMzLjEzMS0xLjYyNjcgNS4wMDItMi4xOTZjMS44Ny0wLjU2OTMgMy45MDQtMC44NTQgNi4xLTAuODU0IDQuNjM2IDAgOC4zNzcgMC43MzIgMTEuMjI0IDIuMTk2IDIuODQ2IDEuMzgyNyA1LjA0MiAzLjMzNDcgNi41ODggNS44NTU1IDEuNjI2IDIuNTIyIDIuNzI0IDUuNDkgMy4yOTQgOC45MDYgMC41NjkgMy40MTYgMC44NTQgNy4xMTcgMC44NTQgMTEuMTAzdjIyLjY5NWMwIDUuNTIzLTQuNDc3IDEwLjAwMS0xMCAxMC4wMDFoLTguM3YtMjkuMDM3YzAtMS43MDgtMC4wODItMy40NTYtMC4yNDQtNS4yNDYtMC4wODItMS44Ny0wLjQ0OC0zLjU3OC0xLjA5OC01LjEyMy0wLjU3LTEuNTQ2LTEuNTA1LTIuODA3LTIuODA2LTMuNzgzLTEuMjItMC45NzYtMy4wMS0xLjQ2NC01LjM2OC0xLjQ2NC0yLjM1OSAwLTQuMjcgMC40NDgtNS43MzQgMS4zNDItMS40NjQgMC44MTQtMi42MDMgMS45NTItMy40MTYgMy40MTYtMC43MzIgMS4zODMtMS4yMiAyLjk2OS0xLjQ2NCA0Ljc1OC0wLjI0NCAxLjc5LTAuMzY2IDMuNjYtMC4zNjYgNS42MTJ2MTkuNTI0YzAgNS41MjMtNC40NzcgMTAuMDAxLTEwIDEwLjAwMWgtOC4zeiIvPiYjeGE7ICA8cGF0aCBkPSJtNDUxLjg0IDcxLjM0OGMwIDUuNTIyNS00LjQ3NyA5Ljk5OTUtMTAgOS45OTk1aC02LjEwNHYxOS43NjVjMCAxLjYyNiAwLjA4MiAzLjEzMSAwLjI0NCA0LjUxMyAwLjE2MyAxLjMwMiAwLjUyOSAyLjQ0IDEuMDk4IDMuNDE2IDAuNTcgMC45NzYgMS40MjQgMS43NDkgMi41NjIgMi4zMTkgMS4yMiAwLjQ4OCAyLjgwNiAwLjczMSA0Ljc1OCAwLjczMSAwLjk3NiAwIDIuMjM3LTAuMDgxIDMuNzgyLTAuMjQ0IDEuNjI3LTAuMjQ0IDIuODQ3LTAuNzMxIDMuNjYtMS40NjN2OC43MjRjMCAzLjkxNS0yLjQ1MiA3LjU1Ny02LjM0NCA3Ljk4OS0yLjE5NiAwLjI0NC00LjM1MSAwLjM2Ni02LjQ2NiAwLjM2Ni0zLjA5IDAtNS45MzctMC4zMjUtOC41NC0wLjk3Ni0yLjYwMi0wLjY1LTQuODgtMS42NjctNi44MzItMy4wNDktMS45NTItMS40NjQtMy40OTctMy4zMzUtNC42MzYtNS42MTMtMS4wNTctMi4yNzctMS41ODYtNS4wNDItMS41ODYtOC4yOTV2LTI4LjE4M2gtMTEuNzEydi00LjY0YzAtNS41MjI0IDQuNDc4LTkuOTk5NSAxMC05Ljk5OTVoMS43MTJ2LTcuNTY4YzAtNS41MjI5IDQuNDc4LTEwIDEwLTEwaDguM3YxNy41NjhoMTYuMTA0eiIvPiYjeGE7IDwvZz4mI3hhOyA8ZyBmaWxsLXJ1bGU9ImV2ZW5vZGQiIGNsaXAtcnVsZT0iZXZlbm9kZCI+JiN4YTsgIDxwYXRoIGZpbGw9IiMyNDM4NmMiIGQ9Im0xMDMuNzkgMTQwLjA5LTMuMDM4OS04My43ODQtNS41MDM2LTIyLjA4OSAzNi43MzUgMy44ODg5djEwMS4zNWwtMjIuNDQgMTIuOTUxeiIvPiYjeGE7ICA8cGF0aCBmaWxsPSIjNzU4OWJlIiBkPSJtMTMxLjk4IDM4LjEtMjIuNDQgMTIuOTYtNDYuMzA4LTEwLjE1OC01NC4yMDMgMjIuMDY5LTkuMDMwNi0yNC44NzEgMzIuOTktMTkuMDUgMzMtMTkuMDUgMzIuOTkxIDE5LjA1eiIvPiYjeGE7ICA8cGF0aCBmaWxsPSIjYjJiZmU4IiBkPSJtMCAzOC4xIDIyLjQ0IDEyLjk2IDEzLjAwOCAzOC42ODYgNDMuOTIxIDM1LjE0Mi0xMy4zNzggMjcuNTEyLTMzLTE5LjA1MS0zMi45OTEtMTkuMDV2LTc2LjIiLz4mI3hhOyAgPHBhdGggZmlsbD0iIzI0Mzg2YyIgZD0ibTgwLjg2OCAxMDQuNTYtMTQuODc3IDIxLjkzMnYyNS45MWwyMS4xMS0xMi4xOCAxMC44NzctMTYuMjQyIi8+JiN4YTsgIDxwYXRoIGZpbGw9IiM3NTg5YmUiIGQ9Im02NiAxMDAuNTktMjEuMTE5LTM2LjU2NSA0LjU0ODktMTIuMTE5IDE3LjI5My04LjM4NDQgMjAuMzc4IDIwLjUwNHoiLz4mI3hhOyAgPHBhdGggZmlsbD0iI2IyYmZlOCIgZD0ibTQ0Ljg4MSA2NC4wMjIgMjEuMTEgMTIuMTh2MjQuMzhsLTE5LjUyNCAwLjg0MDAxLTExLjgxLTE1LjA4IDEwLjIyNC0yMi4zMiIvPiYjeGE7ICA8cGF0aCBmaWxsPSIjMjQzODZjIiBkPSJtNjUuOTkxIDc2LjIgMjEuMTEtMTIuMTc5IDE0LjM2NyAyMy45MjItMTcuMzg2IDE0LjM2NS0xOC4wOTEtMS43MjcyeiIvPiYjeGE7ICA8cGF0aCBmaWxsPSIjZGMyNDRjIiBkPSJtODcuMTAxIDE0MC4yMiAyMi40NCAxMi4xODF2LTEwMS4zNGwtMjEuNzgtMTIuNTctMjEuNzctMTIuNTctMjEuNzggMTIuNTctMjEuNzcgMTIuNTd2NTAuMjg5bDIxLjc3IDEyLjU3IDIxLjc4IDEyLjU3MSAyMS4xMS0xMi4xOTF6bTAtNTEuODMtMjEuMTEgMTIuMTktMjEuMTEtMTIuMTl2LTI0LjM3bDIxLjExLTEyLjE5IDIxLjExIDEyLjE5djI0LjM3Ii8+JiN4YTsgPC9nPiYjeGE7IDxwYXRoIGZpbGw9InVybCgjcGFpbnQwX2xpbmVhcl80MjVfNTYpIiBkPSJtNjYgMTI2LjV2LTI1LjkxNGwtMjEtMTIuMDg2djI1Ljg3MXoiLz4mI3hhOyA8ZGVmcz4mI3hhOyAgPGxpbmVhckdyYWRpZW50IGdyYWRpZW50VW5pdHM9InVzZXJTcGFjZU9uVXNlIiB5Mj0iMTA1LjU0IiB5MT0iMTA1LjU0IiB4Mj0iNDEuMjAyIiB4MT0iNjIuMTI4IiBpZD0icGFpbnQwX2xpbmVhcl80MjVfNTYiPiYjeGE7ICAgPHN0b3Agb2Zmc2V0PSIwIiBzdG9wLWNvbG9yPSIjRkYzMzY0Ii8+JiN4YTsgICA8c3RvcCBvZmZzZXQ9IjEiIHN0b3Atb3BhY2l0eT0iMCIgc3RvcC1jb2xvcj0iI0M5MTU0MCIvPiYjeGE7ICA8L2xpbmVhckdyYWRpZW50PiYjeGE7IDwvZGVmcz4mI3hhOzwvc3ZnPg==;imageBorder=default;imageBackground=default;" vertex="1" parent="1">
          <mxGeometry x="-1451.95" y="864" width="214.11" height="72" as="geometry" />
        </mxCell>
        <mxCell id="6NX9De0AIqx8eO8tG6Va-35" value="" style="endArrow=classic;startArrow=classic;html=1;rounded=0;exitX=1;exitY=0.5;exitDx=0;exitDy=0;entryX=0;entryY=0.5;entryDx=0;entryDy=0;" edge="1" parent="1" source="6NX9De0AIqx8eO8tG6Va-34" target="6NX9De0AIqx8eO8tG6Va-15">
          <mxGeometry width="50" height="50" relative="1" as="geometry">
            <mxPoint x="-1211.95" y="1024" as="sourcePoint" />
            <mxPoint x="-1081.95" y="854" as="targetPoint" />
          </mxGeometry>
        </mxCell>
        <mxCell id="6NX9De0AIqx8eO8tG6Va-36" value="Similarity Search" style="text;html=1;align=center;verticalAlign=middle;whiteSpace=wrap;rounded=0;fontSize=20;" vertex="1" parent="1">
          <mxGeometry x="-1180" y="856.83" width="60" height="30" as="geometry" />
        </mxCell>
        <mxCell id="6NX9De0AIqx8eO8tG6Va-37" value="" style="shape=image;verticalLabelPosition=bottom;labelBackgroundColor=default;verticalAlign=top;aspect=fixed;imageAspect=0;image=data:image/png,iVBORw0KGgoAAAANSUhEUgAAAgAAAACLCAQAAAC9melDAAAABGdBTUEAALGPC/xhBQAAACBjSFJNAAB6JgAAgIQAAPoAAACA6AAAdTAAAOpgAAA6mAAAF3CculE8AAAAAmJLR0QA/4ePzL8AAAAHdElNRQfoBwMAJgxcPo++AAAhUElEQVR42u2dd2AWRd7HPyn0FhBBmoLSQWmigIVDEBSP8+wIiiCKyitSBFFsnJ6IBWkWEM7j8ECUEykWkCIqchSFs1AEwQpIM/SWkLx/RITkmbo7+ySB+e5fybM7O7sz893f/GoC8UMitWhCI87mTCpRkBIkspt9HORH1rKWVSzlEB4eHicZStKZyewgU3McYA4DqO5fmIfHyYLWTOKAdumfeGSwkC4U9a/OwyM/I5Eb+cJq6Z947GAgxfxL9PDIn2gVYvEfO7bSh2T/Kj088hfKMiX04j92rKChf6EeHvkHV7PV2fLPJJMjPOnlAA+P/IAkBnPU6fLPOj7mdP9yPTzyNkrwYQSLP+tYTz3/gj083CLBYVun8z7na87Zy8esZC0bSeUARyhGCmdxDo1pTlXNtam0YYUfMg+PvIiyrFJ+wbczihbKvXwtBvKNso2dNDqBuspxNmdzNmVJ9K/fwyN3hf/lioW7mi4UMGzpUmYqvQP68Qqfspm0bP/fxn+ZQF+aGd/Hw8PDEZKYLV2yW7jF+gt9IZ8F1hXsZzrdOM0PiodHvDBEuhzHUCpQi4n0ZG8IleEhJtHSD4yHR/RoT4ZwEe7ihlDt1tFoBPTHEq7yw+PhESXKsEm4+H4ObbarzwIH5sNFJygOPTw8HGOicNl9y5mhWj2Nl3Ko+YIf6bzow4o8PKLAhULxf5PWpq9CMj3Y5tiNaCMX+cHy8HCLBBYLFtueUML/5Rp/guARBXf5AfPwcImrhEutY+D2qjPDalEf5pDV+aNJ8oPm4eEKHwsW2fiAbZXkGQ4bJQqZwgDacQ4lfr+yMLW4nP5MM9g4vOHjCj083KCpMIVH6QAtJXI7W7SLN5WXaKb8hidxKSNJVbYyzVOAh4cLvCJYXl0DtHMRn2sX/8/cQxHD9opxNz8o2hrvh87DIywKsTNmaa2z3mNXYbLEjej48Rt9KWzZbmH6s0va4qN++Dw8giKRhvRjvmBhdbdqpwiPs19rw3+FsgH7WYW5klaPcqUfRg8Pe1zAy2yX7tHNv9MJ3MSPWsF/PueF6m0CAyX5ibZRyQ+mh4eNyN9T45v/qnFbjflEu/g3cK2Tfl/NPmH7H/gh9fAwQ0Hu5iftkr3MqK3yjNNmDdzLQ9a7fjlaSjYaHf3AepzqMEkJ1pqxnKM96yBltJX9CnIfj2gChDOZyCA2O33K1rxHoZj/bqU6+3LlrSdRjVrUphplKEZRCnGAPexhC2tZx1r2+onpkTcIIIXn6G5EEwtorTnjzwyjpuacJfRmWQTPeQfjBP99hKfi/L5r05bLaEmK4pyjrGQBC1jIYT9BTzIUZ5jy9xGscXKfevxJ+qF+zbyZJgaKumPH88qW6ihyBh07fuEWp0lKs2OM0MCYErehT6EHi6wcl1MZy8V+zZxUuF0z5qMc3eduhSetMW6xKup5p7SdwrzAEW1d4CcjDtktxgbBff8Wl2GvzGgOBk5q4k2WJw8+1Yz2TsFWNZcI4CnLiSpTARYyyO/3VqjwYVO0EbgcbYk8iWgZRluGLIlI4FK/dk4C1NA6vWVyfd4ggGesJ2kTSUsPaK5baZm7rwUjmMLT1A7wWqYJ7v/XSIe8A784CWbOYCJl/ArK5zD5qL6XFwhgqLKLS7mNPTH/rSVpa6WipW30sHIersm7J3jzjaO85WupLzBAzoxw1z/NaUaDTVo1q0deRqKBKT2TdCrnNgH0UXRv8e/axd0xv8iE+J3SBB3DrFRwpXg+Jlx4F/0paPViYmsOpAXMW6wnq9XOk5qkM9Cvo3yLdoajPDB3CaC1NBffNjr/cZY5AYhDct6VSgxi7rxTWnH4W/5s0dKVcdoEtBfISG6Of/nSJ/kUUwxH+FsHtrDABFCNHZILZ2ULyglDAGu4wuphLmWF5pXNpo4xlcTmHXjR+VBfGVrtpzre9hSQD1HKwqbWPLcIIIGFEhXUIzlYKSgBpNLHavqexZuGGf9GGKYiGSsgJNdf/yiXf5b8VMivqHyGnhbj+2puEcAdwkvSuC3mzGAE8K5VaG9RnrDyRNjOPQYqxb8KgoOLOBzoJlZ9DnpM8Csqn2G5xejupmhuEEAFYTKtdGF9H3MC2G3kLBQri3Ti5wAL40taaVouJ7iqobNhrmyQ2iyLdJbxFDdQn9IUAEpRhTbcx9uKNCbZj15+TeUj1LOcx7fkBgH8Q3jBPdpl7Z4Azpc4Dx1lljQbwYl75GrK1mPThd3saJgLGSQ3y+RnHqGCtI1kruVDg1bSpN7eHnkPwywJYH78CaAO6cLinsSZAM7gNUm48GKaAqUZrnUsPsgQikvvMC/m/IcdDbPe0WMn/Yz27y0M/Cd/+CMvskfeRrKhXHii1u3seBPAW0IvvcJxJYBCDJSYz36h8wlqyNp8YOA200ViThkfc+4zToa5kZaY5lrkIUqghzZh2it+beULXB1gM/t4fAngTMH3P13q3hsNAbSRuM4cZqTgW9fGoHbw58KCYM/HnPeSE5b/StObv1nbdxuzWfOd8NuA/IB3pCP4oaKYXWI8CUDk+z9ccQPXBFBPmsBTHihUkPu1KrMMJlIxx3WDY8563cEgd9f0I1hhsmp8p2x3WYQB1B5uUE4qGa6ipiI8qFX8CCBJ4Ge3R2myc0kAZRgt8T7UBwqV41WDBGODsm1lnhB414VFYY2f9/2BWz5bs3+83q+wPI5+0rEbAMLqmlnHxPgRQGvBiX9X3sAVASRzryRawDxQqJGwRFlOgeo6xRZgdISDrFKlmqGpsmTaGl/vMI/jf9LIjgrAnYocGSnRE0BWmaxYS39aBA6yol3/CEkl4cN0ZIFhKytpyQ08x1lKUfo/fEQfvgJBWG3YHHxJ3Kf49Rv6hmp9OQ8pEknVpj2znIxGKepSh3KkUJhD7CKV1azitwjHP4Wa1KIixSlGOgfZy4+sYx0H4zD3ynAe9ShNCQpymK18zyrWR3CfJjSQ/DKHLcAbvCCxWBXh+uirWGURwOUx/3+PXyO+8zkM42rpr4WYyz95mK2GrU3lXfozUJlVqBUrGMejAlllV8hnaa8gn6PcGnpCD+caRXKwe6QE0IW6wv9vyiHz1ORW2tFYKEus4QNm8gmZTmddW67gMgn5p7OUBUzjf5attqKd5JeHOXrCX9W5lQ40FGhPfmU2k5jv9Fm7SX/J2nju4x1ulV4blzJ2ZwoEhWs015hvAfYItgAlGGrkL7/bMty3Mv82KDS2y/ppdVAZJV92MkaNhF4axxSMNSRXTZdc8cUJ51zKfIM8Navp6Sj+oBJDNbaN473sbhU3Mkja0vFWGjJDqzP6hpucra2CUse1XX84oLdS9KV2wPta6QA6CUJrSkZGAIl0s3KLWEcHq0dvzjJrm2vtUINcQTGl9lPO0VR6XWlgDEYAlQT5EVSlWm4IrQ8fYZkb8TuL6g06AijBKwoazX7Mo4qTUbvR4MOQoLD0PB0PAng65qSPtTcISgAtJEER6YyhqdReOkciyoqRSFfDb8wxP4NwBcPvikOWV6ijoJn/BSKAq6XJWuTH1BCKqRsM3LjFSbIqOiCAhqyzuus2LnEwanLZ8MITznpM4c6WFD0BzLRM8R2cANZJhM2P/lCUtOZrief7SMNw32ObjKeNg3I/DznI7ymE83NwhzmKZzjLmgD6akVhmQNyvQB9L2qcDkN0bFa4pJkRQNsACVr2h07BVkkqcWRP+lFZIZlcGT0BxHrUdY2IAETH9zks2cn0lCQl2WEU7nuimvEdo4F+OtQgF1MItYuc6mo6K57hXksCuC/EcvxN6F+pQhVtShfdsY/2IQigXcCk7HuoH2rEHpK2/GCOM+cqMmZHTgCxglmLOBHAPh4WRhuUYZTENegrwwqEaCQK+5qGct2zvOWeTgmgmKTMqXyaTJdamDNCLcfdVgHUlTXejKYbtbaBCWB/4LuuCVWjco00GLyKVg93/LnLRksAyYLJUCMOBJDB68rQmLpSkXeaVaSUXKLIOg6F1G4/qGi7qmN7zbvSO/1oRQAuMhSfadjn8pZ7b9X3uE5AAghzBJcPL5K2OSfm3MLCXBwq6c4ZARQXnFQmcgJYSjODx+ggmTyHlOG+YolCvst6INSinKawX7hGX8VErRhXAshkkZHqtIAkyVyw4xtlppxoCOBg4DTd46VtdhKcPUZhDo2UAFIEJ5V0SAB7BSqdHsaRTgXoLQn4sWklywL8hVQguzrEopRXT3TvxNFYMVE7xJkAzAJWRxsr3Mw2JaPiTgCZjAi4YdttlfDrQkUPGsSbAE6PTAI4xNNW3+4sIXK8RGNtJkccJ5PhUqeMoMJ6IYUu/V7nBFBIkXGgT0gCWMUrPM7ddONehrNQGX9wbHeqq/XcSrOsUxlDR6pSBEikHA3oyxylrT6dRnEngNRAGfq6WKf8lIeTD4+SAJIEU7hqRBLAvMB5TppIXo9Ok5ATt0j0wZ8EtLfWVEycKOr5fW31nZpuuLd+XGCuLMndrNdcqY5BKKK8/jd6ST4FtZmquO6j0ATwXx6jNXWpQgPa8xwbtVdcF2CkPpK2JrOh9Fcs2kLREQAC9cMlERHAHSGm/rNKW4J5Xt/LJTrhfoF61VYxbSpEQAByw+Y7AQlgvMJXsSCDNFmOVBns+yuum6Nx7umqkEAuCkEAs7M54GQhkZ6avBL/sB6nqlLJcL00g0N5xbu+JkoCiDVWdM5XBCDyJlDhMqEUsDvQgu2uSNoZRZiufE+9IgABHKW39o5/Ui6OadLrSij8/t4wUCBeKV1CMwMSQJqi6FZ9paXIXp37N2lbjyiumiG9amaUBDAr5qRn8x0BZJLJQmNlSWfh3jRIWpC+ity/UeBBhde8LQFkSKPQsqOFwo3mqHRTd79iMptR42DpQj4jAAGkaVyJWii0ORmW9SMT2CBtSZWx+q+K3leIhgASQTB1mpG38bPwe9eSLxhjoMCEScI0oJ2t6hUe0/UiVX5GAXmr9oqq5wxToS1W1CBIlEiLCfSQXLGF27MF58rxFD8I/59sIKHGojfva57yn4oFXd3qXpdJaXEB3yuue1cahB/smQ2QCKyM+e/5yrj63McWmnKnIFdAEnexjr4GQaSPCSgkiUHWPZHrHqJJanEwABWJsY7HjM8dz1yFNIWQjGUWgl5mFeqBNKkkam+2/dQgLHuIIg/AmVZ30+UAkCGdyQHaDE0AiwXTul0elwEyGE8tnudIzC8pvMDX2hCKNG4jLea/nQzjzkwI4HCcCcBWAnjWqocDpIujlnCpy/Tmq4TKShneIkP4/+YGnio5+6/HRpZJfytjca+SUpXdPu3Tvyb9pS4XREUAGwSCh87wsTvmP43iTgK7GcC5vCuclO/znkag/0aQqS/ZmmfTpb9Ek6mvgILSbLCNSVbnf8ln0t/aCP4nK9n+d8mSFmOnxAsuWZEfSdz7pUbnfeiEXjtKz36LfZprVyliU7tFRQCZgt3RtZq9dOwLfZs3HCVRsBNkO3CFsL5ve1ZqElg8KdhRd7dMs31A+kvhSJ5XLnHst2rnHxyyvLN8hxybvrq2RCW831qb/bXk/3afm1nGRGFPvO42ALr3fHPokqESAoAZgunbQ3nd0BjhO4GOrOXxmE5Gn7d+Dg3oQ6pgsUxU+qptF9h3q9HYEQEUjTMBHLBqZ4H1nadKtx+xb0wmrH5g2UvY4oQAFhp/TmQwn8U1BZ4GWfiBTw2unyR9z6VCuaxLkGWPnUtqTLqN3rwoEPSP4Qs6MiFmJ1aUwXTnAd50mlZRjzRGMoknuTOH4F2Ye5QZeV+id0w8wV+sgi/kE7pcJE9a3okEkM4S6zvvZYXEBacapXLMlKaSNppbJ185Q/J/O638ZsPzXFhu5DLkBKNVsZsZ0jRo3XgjqiU0SmAxHKK5phKvS3y9Pz0hg8u+CPwAZDu6O2J6ovvSzRPU2rHBjQrLcxSlOydauchOd5oDaaRReitQucG6OkSWBLkfgKkKr3Towi7JbAqdHaqtwuvC1Bph5QcAME7ATn00yTI3cSsthAvmYpbxDyl7R4dYw6DOOPZ2zH8aWgnvKqtuFBoReZs/WrQSzEnpC8WnIDvOinykT7PSsZjWfUgP3a92UjvSx2wwbGMeP0k37F2i0QHA1wJFYBEmaF02l9CMroKdWiK38y0PWCX1zg3MEKh7mlpcr1p29SPor7zNHyxaSQ10b3nZjOwR80mBI+htUDxPzqdwCsAsZCiKgt3uWqd2fAcsKgV2IU9oW8jkX9TkaYFWuSTPsMpRNvmosFnwDT/P4vptir13A+e9raRID2VDADsD3X2XQnQ+ESWsdOZBUSQPzqbTpObP/QJZU47XpNqCapYGUIM9y/Fv+Uz+EvP7g6zm39pW9jGI8TzHtSGVNbmBJTHe2TWsrv9GqvU933lfVbLJ1xGIxKYEUFTxV1QonAfnUifp5263Qabt7CNUUioDfBoNAUBf2sa81gTGsYPZBi1t5DouYwTnkr+wOuY/dqm8l0oJ4BKKOHYIlqepPsRXkb+p3YZf4/h8m/NiWfTbpb9U1JjVzXED94WuZSncAsBGhgqZdrpUsMmJBTSiZ0ABM7cQq3A53er65Ypl0cJxXy+X/rLC0hMwCOSC/dEce9hTE+da5UoOimKB0pMYEQAMEU7nQkwzTm91lFeowSjJdOwTMAV3Ah2FiRRd4BfNjlYvAajY2iXOUzg3Lwkx6qaQh8Rml3MOnKIEcEec7uPUJTi7lj+NW1ghMJ0VYDRN6KX1ZM5CKr0Zw3BBQFE95jONAWy06mMTRrhWfWQTnmM51gbrWS/VGtxIb4dBQaro/Q+sWkoJdH/5VdmX/H7pvHjV4bj9lseWf0FujtOdLqG6MPuDI1wjTYzwvWWMYBtBzaGs0qMjjaO5TmOkIEmk7KvbwfjM47hAkPPeDsMUDivu5JYibJXeZZfE3CpzBJoYqAd/kt7/zhxn7pMk2E6KdGGYVAdWo0QIR6DrInd+On48qe2NtSPQcbwjjROvymymWERGz6MxAwSqowLcxxpu06pxCjKAjdwX8bQpqNnR6jFD8dtAZ8qqbgrn4g8EYdFqWg2CBsbbKLF3RGGnlRLzGrrF8V5d3a0J0W5QFTt1E2sYbGzoOcLz1GK8QC1UkQksUWYe+gureNY67tsesYvBVsf6mcLX/DxHARyF6a/49W3L1moE6oM8TCqnZ6HMP7L+Sbv8y8c1g0blkOXsNASgrsFWlMdZS0fjL9tW7qSp0HZ5AYslSb3r8iEz4uRDUE7QYzscVZYAGebEYt1fkUtui1IGERNAxQB9OF9K8zmj6GQ+Ca1PWgK4LWSJ+VyTN0QEoOeyKryRLeBHhxW0pKPA4JbALXybo0BoGUbxpcLg5Rp1QhMAjFN4kZ8dINFYTlTnIeXd7U2A9krVqtLIkG9iNiBLpfvkpJOUALrG+X7XWNqqLAigsOHkuIhljFeEp2ZHJm9Sm8cFJqJi/J01vyf1Tub/WEcvAZtuDxjBpkesWLreuo1flIkuBoUsEVKQyYpNV1og3XqHAFNcZjyMNR0vkbiylg9kzcn7pNFMU7bUPQpzU1RNn2dZKHqAVcBPFSZLQog/oouk7s0RXiCFZyKxAiQLst4HebUNFEmlM/nFMqlkdoxRjsBLiiunK8p6VbLqQyLfS9sSeTt84Si/PVRjB2ON0rTknhVgbBwtAGYz26ouQHZ0tO7KOsvvyUUst2j9/d9Fz2gI4GLBHesGWqaTlE+xOqDmXVViIquoZoVABGBb9vpmRYy66MkelZ5v6x355B81cntp3mFuEUARaemUDBpQOtTRXjGC9aIhgNgJt4aftct0jtWySaQbWwwW/9oTijlEQwBDYq7YGtBwd46miNaqAFJAgrYcijppy3QldZiPWAl+kLYzT3hFbWlZ0MVW6rLy2QrXHWIqV0m3BLlFAJ2lV4UP20ngO2nrz0VDABMFtUmL8XdFdZhjtUtGWikmSvAMh5Q1WftlG7goCCBJQG1vBR6sJzRvaBMtrdpLURbJzCSTjZqoeHVloC+N7ROvKVqRqb/mOym3PUn4HocKFZK5RQDzpFe5cA5+XNr6r4rnCkEAsfXJ7vtdCzwVfaKmnlYqmy6S70Q6Y2NCcqIggKsE9749hLLuK20tvmeNE1m05ydNaxlaa7CuNuCbRtkaHla0sEua+OxaxVXdDd/BA9IWRucZAqgsLWd+IKDLdXacpdAudYiCAGLzuR1PQ9SSlVoSWKMtypGFikyULP+FwqiqKAjgI4HCsUyIwWqi2QZk8fa9WhK4mLkGGyR9rRt9deD5GlerZM0m5FnFNu9LBXUN1m60EnhQOvUPCXMO5Q4BPCa9ZhJuMD9AadYQBBCrv70+m9B8F9u002qatDbaMbXJoxJ/8R+kEXTuCaC14P7vhRys/zO0nYylgyDoKIGGDJTYQnIeyw3i7k3Kg/9EZ+libMxi5bUHlbaEK5XXqh29zmSa4tpX8owOQLVHb+uIAG5RbLvLuyeAZVozTwovaL90Bxki/c7dKFEp7eNRxaR2TQBJgifNFOREsoW5SegIq5jKizzNYIbxTxbxm/G1W4zy7k03bO0L7s/hHlyGm3hfadrMJJOnNPefpXn+l2kiIJ/GjFJqnPZIUqPmBgG0VJh+XfkvFMmmCM1+9HFPAPON1Dw1NIObSSab6RHjPNKIjyVC4VuaXLKuCaCvMN4x/KAVVCiFXB37DOs3T7dqdTOfM4upzGeDdulnKeN0W5kK7DC460SeoBeduIdHeFPhb6BTreUGAUxwZGZVY5z0Ll+7J4B3jB++PWsN3BWOT9VyvCqZWMtorn0JbgmgrnAL0svJcBU12sGHWf6tDHsyPcJeZHCVQQ+ulZoDgx6z8pAfQHH2Sq9w6RvYQvE+GocjgFj3zl0x/5Ht59/nXO5XpIqE4wE/BbmfddwpuN8WutGM/xJPFGeqYAf+k6OEFQe4WmIdd4G9XCEsAhJvjDbSl0yzKEJugh/jlnfHBDdKZaClwnqVQbGYtdLfQoYFxS7I2Fwj8vp6abxALV5VRtBnBfxs4HlBSqnDPEMtJsQ5i1wBpgidYAY7y95zgKsYF0nfN3ARi/LA1P/IqOA2wFMO38QW2gQI1YoOLqoAmEHeXifXifevFdh6dTnkGkp29urjHasEEc862gIk8bqwN4sCZsqToweHHYu/Cy0Tlk6X7rt3hurH51ZlzxIY7uTpUzVJN+O9Bagh3d4cDuz4LUNFqbeBOBYjhA6gruAik1TfNyjcRUXKC7vY8MuyKYeCE0AhiTvToUjiuRob+E2YHvvpZ62inC7V+l/InhA0VMr6TTxAWsjnX6VIiZo7BPCU9OypEcylDxTRMk4JoIBgajxkaK6QWfdzduH/rPzBz46xCQclgDOkksojEQmJyTzIAQfL/0ONZ4UtAUAjaRlL9fGvgAlOWgW8X9bxhoEHZXwJIFHhqfnnCGbSjQr/0iouCQBmhqiYW5l/K/W+aYy28rUrzhCBTTgYAVzOZqk/XJT5XMoxNBQJ/DdA9L6eAKASH1oL4Z1DvIdSjFIIsipXpVuN2o8vAbSTnrs1ktJoBdkuveODbgmgV8BNwDE0F7rYZH3H6lntHW+TLFl7AijLP6XEtNH5ji0WlXhGSj8qupzJFSHuqiYASOAO416l8bKlBkKE+ky2IoFUBhpXGoovAUyRnjssojn0ovSO38a4U4UigFrGzpdy20LXmIm13tLLrhlLrcMsxQSQwmDFjndvBEU8xUjiKiYbOFJnLbfP6GucbykoAQAUpQ+rNb3ZxlCqOnsP5/AEG7Rv4ChzudWqRkM8CaCUQqaLaj6dr3hbLYISgNgLfHlMAshDVLfMl1+Ch+n9+35xD08x0sLIVomhCg91eE0ST3YTU3L85zvmKafRfq7i47iajhI4j1acT01qxijT0vmedaziEz42LMKiIwBxTuIVMfkcm9KO1pybQxZKZTWL+IDPFDkPg7+FlrTkXKrmWJ6H+R/LWM5HgppNaqRIN5ffS6vt5vxwyWhuZ4709kWkiVgypTmRw0OuB8rZv+pcIDnzUPYQIvEiu0cQaTaWu607fDp/pSLfM509xtcU5n4eUjJ/JhezWPjLHZY25/38mYXkHspRghRKkMwe9rGfLZb5/d0RwDGcRiWKU5QD7GU7v8bhHSRTibIUpRC7SSWV1FO2tmAeQopAwElXFqd2heu1vuAZCo39A1Y77B1ccpKPo8kWwMNDgJcF0+arSLSbx9FAEJ8fq7BTaRLGWSz/LxWZ9j0BeJziqCQMyBwW2f1OZ4xWO7yPQRob9CfGy3+KcWYeTwAepyResMoAFwYF6KGwcR4PF9Yl1Uw29G779YQcR54APDwk3+RUYZ6zVo7vcyVrtEt2CRcatNTCYPGnM95VTRVPAB4nN+6SCOLuVGe1eM8g7UQXw0Tdg7WW5cnS8laeADw8ciCRRZKwlOsctJ7CsFCJxWKxTulR9rKVF6InAA8PqkmykWXwWKjkWUn0MPCIe9tKT99M6uk3i5udVOj1BOBxykGe0umzgFXmzZKLf2ldAX2KQOQfzEURmy49AXic5HhSukgPMMQ6MryOQXmR7dxjLV/UFmQbXHDKj50nAI/QSOBfysU6mDMMW2rEv7XZZo8wIpCW/j9xMll6AvA45VCAt5WL9jD/oZOywkx1ekkLRp94zA6Yl0cUm/3bKeHq4wnAIxRMEmGkcROv01H6e0Gu4zrS+YolrOInfmYvUIAylKUu59LMKPffevrxbqBnKCkskvWyk3g6Dw8PIInnI8wxv4v+FAzct7eE+onyftC8BODhEl21JcKDHEcZF2qxDhC2OsQPlycAD9eoywrHy3+pYZErGW4WqhW3amreegLw8DDWARzHaprzKP0dlSL4iQd4yzBXixidmCDM5t/fIgHJyYytbBT+f5N/NR7BUV2QN9j+eI6iIfvRT+KkNMMPkYdHtGjKrJBlH9eFSp5YgsnSpMwV/PB4eESPWjyvjeNXh/o8GNBRt5U08OcILf3AeHjECwVow4usD0wCX9He8o7VmKRo714/JB4e5khw1E55mlOfWpxDWUpTin3AIbazme/4hh2MVRTfWMwIppNmcJfz6EtnhdQwhIf9kHp45D000tSj3cwoWkudgRI4l/7aGMKX/Gv28MgdCUCPJszVhvkcZgUr2cgmfiOdREpThhrUpinltO0PZVAok6KHh0ekqGmQ/S/YkUZv/3o9PPI6Skh908IcO2jjX62HR35AEgMdRxTMprJ/rR4e+Qe1+NTZt797HLUYHh4eTpBIF74LufgP88IplOHfw+MkQwHuYGPAxb+X4do6QR4eHnleEmjLG5Y6geXc67/8Hh4nD0pzE+O0ZcH3MJve1PSvy8PDHfKSCu1M6lCb2pxBcUpRlEMcZg+b+YnvWMG3ZPjh8vBwi/8HAEjGi0jOhVIAAAAldEVYdGRhdGU6Y3JlYXRlADIwMjQtMDctMDNUMDA6Mzg6MTIrMDA6MDDiy/0JAAAAJXRFWHRkYXRlOm1vZGlmeQAyMDI0LTA3LTAzVDAwOjM4OjEyKzAwOjAwk5ZFtQAAAABJRU5ErkJggg==;imageBackground=default;imageBorder=default;" vertex="1" parent="1">
          <mxGeometry x="-1041.8899999999999" y="1160" width="254.16" height="69" as="geometry" />
        </mxCell>
        <mxCell id="6NX9De0AIqx8eO8tG6Va-38" value="" style="endArrow=classic;startArrow=classic;html=1;rounded=0;exitX=0.5;exitY=0;exitDx=0;exitDy=0;entryX=0.5;entryY=1;entryDx=0;entryDy=0;" edge="1" parent="1" source="6NX9De0AIqx8eO8tG6Va-37" target="6NX9De0AIqx8eO8tG6Va-15">
          <mxGeometry width="50" height="50" relative="1" as="geometry">
            <mxPoint x="-927.9200000000001" y="1154.5" as="sourcePoint" />
            <mxPoint x="-762.92" y="1020" as="targetPoint" />
          </mxGeometry>
        </mxCell>
        <mxCell id="6NX9De0AIqx8eO8tG6Va-39" value="Embeddings, Chat Completion" style="text;html=1;align=center;verticalAlign=middle;whiteSpace=wrap;rounded=0;fontSize=20;" vertex="1" parent="1">
          <mxGeometry x="-910" y="1070" width="152.59" height="30" as="geometry" />
        </mxCell>
        <mxCell id="6NX9De0AIqx8eO8tG6Va-41" value="" style="shape=image;verticalLabelPosition=bottom;labelBackgroundColor=default;verticalAlign=top;aspect=fixed;imageAspect=0;image=data:image/svg+xml,PHN2ZyB4bWxucz0iaHR0cDovL3d3dy53My5vcmcvMjAwMC9zdmciIGZpbGw9Im5vbmUiIHZpZXdCb3g9IjAgMCA2NTkgNDQwIiBoZWlnaHQ9IjQ0MCIgd2lkdGg9IjY1OSI+JiN4YTs8cmVjdCBmaWxsPSJ3aGl0ZSIgcng9IjIzLjUiIGhlaWdodD0iNDM5IiB3aWR0aD0iNjU3LjUiIHk9IjAuNSIgeD0iMSIvPiYjeGE7PHJlY3Qgc3Ryb2tlPSIjRTFFMkU2IiByeD0iMjMuNSIgaGVpZ2h0PSI0MzkiIHdpZHRoPSI2NTcuNSIgeT0iMC41IiB4PSIxIi8+JiN4YTs8ZyBjbGlwLXBhdGg9InVybCgjY2xpcDBfOTA0NV8yMDcxMSkiPiYjeGE7PHBhdGggZmlsbD0iIzFENjNFRCIgZD0iTTIyNC41MjYgMjEwLjE5NUMyMjEuMDkzIDIwNy44OTQgMjEyLjA3NCAyMDYuOTEyIDIwNS41MTggMjA4LjY3MUMyMDUuMTY2IDIwMi4xNyAyMDEuNzk2IDE5Ni42OTEgMTk1LjYzNSAxOTEuOTFMMTkzLjM1NiAxOTAuMzg3TDE5MS44MzYgMTkyLjY3M0MxODguODQ4IDE5Ny4xODYgMTg3LjU4OSAyMDMuMjAyIDE4OC4wMzQgMjA4LjY3MUMxODguMzg2IDIxMi4wNDEgMTg5LjU2MiAyMTUuODI3IDE5MS44MzYgMjE4LjU3NUMxODMuMzAyIDIyMy41MDMgMTc1LjQzNCAyMjIuMzg0IDE0MC41OTUgMjIyLjM4NEg4Ni44MDYzQzg2LjY1MDIgMjMwLjIxNiA4Ny45MTM5IDI0NS4yNzggOTcuNTM2NiAyNTcuNTRDOTguNjAwNSAyNTguODk2IDk5Ljc2NDMgMjYwLjIwNSAxMDEuMDMgMjYxLjQ2N0MxMDguODU0IDI2OS4yNjYgMTIwLjY3NSAyNzQuOTg1IDEzOC4zNTEgMjc1QzE2NS4zMTggMjc1LjAyNSAxODguNDIxIDI2MC41MTQgMjAyLjQ3NyAyMjUuNDMzQzIwNy4xMDEgMjI1LjUwNyAyMTkuMzA5IDIyNi4yNTggMjI1LjI4NCAyMTQuNzY2QzIyNS40MyAyMTQuNTczIDIyNi44MDQgMjExLjcyIDIyNi44MDQgMjExLjcyTDIyNC41MjYgMjEwLjE5N1YyMTAuMTk1Wk0xMjEuOTEgMjAzLjAzNEgxMDYuNzg1VjIxOC4wOUgxMjEuOTFWMjAzLjAzNFpNMTQxLjQ0OSAyMDMuMDM0SDEyNi4zMjRWMjE4LjA5SDE0MS40NDlWMjAzLjAzNFpNMTYwLjk5IDIwMy4wMzRIMTQ1Ljg2NVYyMTguMDlIMTYwLjk5VjIwMy4wMzRaTTE4MC41MzEgMjAzLjAzNEgxNjUuNDA2VjIxOC4wOUgxODAuNTMxVjIwMy4wMzRaTTEwMi4zNjkgMjAzLjAzNEg4Ny4yNDM1VjIxOC4wOUgxMDIuMzY5VjIwMy4wMzRaTTEyMS45MSAxODQuMDE4SDEwNi43ODVWMTk5LjA3NEgxMjEuOTFWMTg0LjAxOFpNMTQxLjQ0OSAxODQuMDE4SDEyNi4zMjRWMTk5LjA3NEgxNDEuNDQ5VjE4NC4wMThaTTE2MC45OSAxODQuMDE4SDE0NS44NjVWMTk5LjA3NEgxNjAuOTlWMTg0LjAxOFpNMTYwLjk5IDE2NUgxNDUuODY1VjE4MC4wNTZIMTYwLjk5VjE2NVoiLz4mI3hhOzxwYXRoIGZpbGw9IiMxRDYzRUQiIGQ9Ik01NzEuNzY4IDI1MS44OTVDNTcxLjc2OCAyNTUuODIgNTY4LjY3MiAyNTguOTAyIDU2NC42NDUgMjU4LjkwMkM1NjAuNjE5IDI1OC45MDIgNTU3LjQ3OSAyNTUuODIgNTU3LjQ3OSAyNTEuODk1QzU1Ny40NzkgMjQ3Ljk3IDU2MC42NTkgMjQ0Ljk3MyA1NjQuNjQ1IDI0NC45NzNDNTY4LjYzMiAyNDQuOTczIDU3MS43NjggMjQ4LjA1NSA1NzEuNzY4IDI1MS44OTVaTTU1OS4yNjIgMjUxLjg5NUM1NTkuMjYyIDI1NC45NzcgNTYxLjU1MiAyNTcuNDI0IDU2NC42ODkgMjU3LjQyNEM1NjcuODI3IDI1Ny40MjQgNTY5Ljk5IDI1NC45NzcgNTY5Ljk5IDI1MS45MzhDNTY5Ljk5IDI0OC45IDU2Ny43NDEgMjQ2LjM2NiA1NjQuNjUgMjQ2LjM2NkM1NjEuNTU4IDI0Ni4zNjYgNTU5LjI2NCAyNDguODU3IDU1OS4yNjQgMjUxLjg5NUg1NTkuMjYyWk01NjMuNTQ2IDI1NS41MjZINTYxLjkzNVYyNDguNjA0QzU2Mi41NjggMjQ4LjQ3OCA1NjMuNDYxIDI0OC4zOTMgNTY0LjYwNCAyNDguMzkzQzU2NS45MiAyNDguMzkzIDU2Ni41MTEgMjQ4LjYwNCA1NjcuMDIxIDI0OC45QzU2Ny40MDQgMjQ5LjE5NSA1NjcuNyAyNDkuNzQ0IDU2Ny43IDI1MC40MTlDNTY3LjcgMjUxLjE4IDU2Ny4xMDYgMjUxLjc3MSA1NjYuMjYxIDI1Mi4wMjNWMjUyLjEwOEM1NjYuOTM2IDI1Mi4zNTkgNTY3LjMxOSAyNTIuODY3IDU2Ny41MzEgMjUzLjc5NUM1NjcuNzQxIDI1NC44NSA1NjcuODY4IDI1NS4yNzMgNTY4LjA0MSAyNTUuNTI2SDU2Ni4zMDNDNTY2LjA5IDI1NS4yNzMgNTY1Ljk2MSAyNTQuNjQxIDU2NS43NTEgMjUzLjgzN0M1NjUuNjI0IDI1My4wNzggNTY1LjE5OSAyNTIuNzQgNTY0LjMwOCAyNTIuNzRINTYzLjU0NlYyNTUuNTI4VjI1NS41MjZaTTU2My41ODYgMjUxLjYwMUg1NjQuMzQ4QzU2NS4yMzkgMjUxLjYwMSA1NjUuOTU5IDI1MS4zMDYgNTY1Ljk1OSAyNTAuNTg5QzU2NS45NTkgMjQ5Ljk1NSA1NjUuNDk1IDI0OS41MyA1NjQuNDc1IDI0OS41M0M1NjQuMDUyIDI0OS41MyA1NjMuNzU0IDI0OS41NzQgNTYzLjU4NiAyNDkuNjE5VjI1MS42MDFaIi8+JiN4YTs8cGF0aCBmaWxsPSIjMUQ2M0VEIiBkPSJNMjk4LjU2IDE4MS44NDRDMjk3LjU2MiAxODAuODc1IDI5Ni4zNjUgMTgwLjM4MSAyOTQuOTMxIDE4MC4zODFDMjkzLjQ5NiAxODAuMzgxIDI5Mi4yNjQgMTgwLjg3NSAyOTEuMzA0IDE4MS44NDRDMjkwLjM0MiAxODIuODE0IDI4OS44NzIgMTg0LjA1OCAyODkuODcyIDE4NS41NFYyMTAuMjg0QzI4NC45MzggMjA2LjIyNCAyNzkuMjQzIDIwNC4xNzYgMjcyLjc2NyAyMDQuMTc2QzI2NS4yMzggMjA0LjE3NiAyNTguODAxIDIwNi44ODMgMjUzLjQ2NyAyMTIuMzE1QzI0OC4xMzMgMjE3LjcyOCAyNDUuNDg1IDIyNC4yNzYgMjQ1LjQ4NSAyMzEuOTU3QzI0NS40ODUgMjM5LjYzNyAyNDguMTUyIDI0Ni4xNjcgMjUzLjQ2NyAyNTEuNTk5QzI1OC44MDEgMjU3LjAxMiAyNjUuMjIyIDI1OS43MzcgMjcyLjc2NyAyNTkuNzM3QzI4MC4zMTEgMjU5LjczNyAyODYuNjYxIDI1Ny4wMyAyOTIuMDY2IDI1MS41OTlDMjk3LjQgMjQ2LjI0IDMwMC4wNDggMjM5LjY5MyAzMDAuMDQ4IDIzMS45NTdWMTg1LjU0QzMwMC4wNDggMTg0LjA1OCAyOTkuNTU5IDE4Mi44MTQgMjk4LjU2IDE4MS44NDRaTTI4OC41MjkgMjM4LjY1MVYyMzguNjg4QzI4Ny42NCAyNDAuNzkxIDI4Ni40MjQgMjQyLjYzOCAyODQuODgzIDI0NC4yMTFDMjgzLjM0MyAyNDUuODAyIDI4MS41MjcgMjQ3LjA0NiAyNzkuNDYgMjQ3Ljk3OEMyNzcuMzc0IDI0OC45MTEgMjc1LjE2MSAyNDkuMzY5IDI3Mi43ODUgMjQ5LjM2OUMyNzAuNDEgMjQ5LjM2OSAyNjguMTQzIDI0OC45MTEgMjY2LjA1NiAyNDcuOTc4QzI2My45NyAyNDcuMDQ2IDI2Mi4xNzQgMjQ1LjgwMiAyNjAuNjUyIDI0NC4yMjlDMjU5LjEyOCAyNDIuNjU2IDI1Ny45MTQgMjQwLjgxIDI1Ny4wMjUgMjM4LjcwNkMyNTYuMTM2IDIzNi41ODQgMjU1LjY4MiAyMzQuMzM2IDI1NS42ODIgMjMxLjk1N0MyNTUuNjgyIDIyOS41NzggMjU2LjEzNiAyMjcuMzI5IDI1Ny4wMjUgMjI1LjIwN0MyNTcuOTE0IDIyMy4wODUgMjU5LjEzIDIyMS4yNTcgMjYwLjY1MiAyMTkuNjg0QzI2Mi4xNzYgMjE4LjExMSAyNjMuOTg5IDIxNi44NjggMjY2LjA1NiAyMTUuOTM1QzI2OC4xNDMgMjE1LjAwMyAyNzAuMzc0IDIxNC41NDUgMjcyLjc4NSAyMTQuNTQ1QzI3NS4xOTYgMjE0LjU0NSAyNzcuMzc0IDIxNS4wMDMgMjc5LjQ2IDIxNS45MzVDMjgxLjU0NiAyMTYuODY4IDI4My4zNDMgMjE4LjExMSAyODQuODgzIDIxOS43MDNDMjg2LjQyNCAyMjEuMjk0IDI4Ny42NCAyMjMuMTQxIDI4OC41MjkgMjI1LjIyNkMyODkuNDE4IDIyNy4zMjkgMjg5Ljg3MiAyMjkuNTYxIDI4OS44NzIgMjMxLjkzOEMyODkuODcyIDIzNC4zMTUgMjg5LjQxOCAyMzYuNTY2IDI4OC41MjkgMjM4LjY1MVoiLz4mI3hhOzxwYXRoIGZpbGw9IiMxRDYzRUQiIGQ9Ik01MjMuOTUyIDIyMS4yOTRDNTIyLjYyOCAyMTguMDAxIDUyMC42MSAyMTUuMDIxIDUxNy45NjQgMjEyLjM1TDUxNy45MjkgMjEyLjMzMUM1MTIuNTQxIDIwNi45MTggNTA2LjA5OSAyMDQuMTkzIDQ5OC42MjkgMjA0LjE5M0M0OTEuMTU5IDIwNC4xOTMgNDg0LjY2MiAyMDYuODk5IDQ3OS4zMjggMjEyLjMzMUM0NzMuOTk0IDIxNy43NDQgNDcxLjM0OCAyMjQuMjkzIDQ3MS4zNDggMjMxLjk3M0M0NzEuMzQ4IDIzOS42NTMgNDc0LjAxNSAyNDYuMTgzIDQ3OS4zMjggMjUxLjYxNUM0ODQuNjYyIDI1Ny4wMjggNDkxLjA4NCAyNTkuNzUzIDQ5OC42MjkgMjU5Ljc1M0M1MDUuNDgzIDI1OS43NTMgNTExLjQxNCAyNTcuNTA1IDUxNi40NTkgMjUzLjAwNkM1MTcuNDM1IDI1MS45ODIgNTE3LjkyOSAyNTAuNzM5IDUxNy45MjkgMjQ5LjI5MkM1MTcuOTI5IDI0Ny44NDYgNTE3LjQ1OCAyNDYuNTY3IDUxNi40OTQgMjQ1LjU5N0M1MTUuNTM1IDI0NC42MjcgNTE0LjMxOSAyNDQuMTM0IDUxMi44NjggMjQ0LjEzNEM1MTEuNiAyNDQuMTcxIDUxMC40NzMgMjQ0LjU5MiA1MDkuNTE0IDI0NS40MzNDNTA3Ljk5IDI0Ni43NDkgNTA2LjMzOSAyNDcuNzU2IDUwNC41NDQgMjQ4LjQxNUM1MDIuNzQ3IDI0OS4wNzQgNTAwLjc4OCAyNDkuNDA0IDQ5OC42NSAyNDkuNDA0QzQ5Ni43NjIgMjQ5LjQwNCA0OTQuOTQ4IDI0OS4xMTIgNDkzLjIyNyAyNDguNTA5QzQ5MS41MDEgMjQ3LjkwNiA0ODkuODg5IDI0Ny4wODEgNDg4LjQ1NSAyNDYuMDAzQzQ4Ny4wMDIgMjQ0LjkyMyA0ODUuNzUzIDI0My42NDUgNDg0LjY4MiAyNDIuMTI2QzQ4My42MTIgMjQwLjYyNSA0ODIuNzk2IDIzOC45NjEgNDgyLjI1MyAyMzcuMTMzSDUyMC44MzVDNTIyLjI2NiAyMzcuMTMzIDUyMy40NjMgMjM2LjY0IDUyNC40NjIgMjM1LjY3QzUyNS40NjEgMjM0LjcgNTI1Ljk1MSAyMzMuNDU3IDUyNS45NTEgMjMxLjk3NUM1MjUuOTUxIDIyOC4xMzUgNTI1LjI3NiAyMjQuNTY5IDUyMy45NTYgMjIxLjI5NEg1MjMuOTUyWk00ODIuMjEzIDIyNi44MTdDNDgyLjc0IDIyNS4wMDYgNDgzLjUzNyAyMjMuMzQyIDQ4NC42MDggMjIxLjgyNUM0ODUuNjggMjIwLjMyNCA0ODYuOTQ4IDIxOS4wMjcgNDg4LjM5OSAyMTcuOTQ3QzQ4OS44NjkgMjE2Ljg2OCA0OTEuNDYzIDIxNi4wNDUgNDkzLjIyMyAyMTUuNDQyQzQ5NC45OCAyMTQuODM5IDQ5Ni43NzQgMjE0LjU0NiA0OTguNjI5IDIxNC41NDZDNTAwLjQ4NCAyMTQuNTQ2IDUwMi4yNzUgMjE0LjgzOSA1MDQuMDEzIDIxNS40NDJDNTA1Ljc1NiAyMTYuMDQ1IDUwNy4zNTUgMjE2Ljg2OCA1MDguNzg1IDIxNy45NDdDNTEwLjIzOCAyMTkuMDI3IDUxMS41MDYgMjIwLjMwNiA1MTIuNTc2IDIyMS44MjVDNTEzLjY2MyAyMjMuMzI1IDUxNC40ODMgMjI0Ljk4OSA1MTUuMDQ1IDIyNi44MTdINDgyLjIxMUg0ODIuMjEzWiIvPiYjeGE7PHBhdGggZmlsbD0iIzFENjNFRCIgZD0iTTU3MS4zNjYgMjA3LjY2OEM1NzAuNDU4IDIwNi43NzMgNTY5LjMxNSAyMDYuMDc3IDU2Ny45MzcgMjA1LjU2NUM1NjYuNTU5IDIwNS4wNTMgNTY1LjA1MyAyMDQuNzA1IDU2My40MDMgMjA0LjUwNEM1NjEuNzcgMjA0LjMwMyA1NjAuMjI4IDIwNC4yMTEgNTU4Ljc5NyAyMDQuMjExQzU1NS41NDcgMjA0LjIxMSA1NTIuNTAxIDIwNC43NDIgNTQ5LjYzNyAyMDUuODAzQzU0Ni43NyAyMDYuODY0IDU0NC4xMjIgMjA4LjM4MSA1NDEuNjkgMjEwLjM1NlYyMDkuMzdDNTQxLjY5IDIwNy45NDQgNTQxLjIwMSAyMDYuNzM2IDU0MC4yMDEgMjA1LjczQzUzOS4yMDYgMjA0LjcyNSA1MzguMDI2IDIwNC4yMTMgNTM2LjYzMSAyMDQuMjEzQzUzNS4yMzYgMjA0LjIxMyA1MzMuOTk5IDIwNC43MjUgNTMzLjAwNCAyMDUuNzNDNTMyLjAwNSAyMDYuNzM2IDUzMS41MTYgMjA3Ljk2MiA1MzEuNTE2IDIwOS4zN1YyNTQuNTk5QzUzMS41MTYgMjU2LjAyNSA1MzIuMDA1IDI1Ny4yMzMgNTMzLjAwNCAyNTguMjM4QzUzMy45OTkgMjU5LjI0NCA1MzUuMTk2IDI1OS43NTUgNTM2LjYzMSAyNTkuNzU1QzUzOC4wNjUgMjU5Ljc1NSA1MzkuMjIzIDI1OS4yNDQgNTQwLjIwMSAyNTguMjM4QzU0MS4yMDEgMjU3LjIzMyA1NDEuNjkgMjU2LjAwNiA1NDEuNjkgMjU0LjU5OVYyMzEuOTc1QzU0MS42OSAyMjkuNTYxIDU0Mi4xNDQgMjI3LjI5NCA1NDMuMDMzIDIyNS4xNzJDNTQzLjkyMiAyMjMuMDQ5IDU0NS4xMzggMjIxLjIyMiA1NDYuNjc4IDIxOS42NDlDNTQ4LjIyMyAyMTguMDc2IDU1MC4wMzYgMjE2LjgzMiA1NTIuMTAyIDIxNS45MzVDNTU0LjE4OCAyMTUuMDIxIDU1Ni40MDMgMjE0LjU2MyA1NTguNzgxIDIxNC41NjNDNTYxLjE1OCAyMTQuNTYzIDU2My40MDMgMjE0Ljk4NCA1NjUuNDU1IDIxNS44MDZDNTY2LjI2OSAyMTYuMTczIDU2Ni45NzkgMjE2LjM1NiA1NjcuNTk2IDIxNi4zNTZDNTY4LjMwMyAyMTYuMzU2IDU2OC45NzQgMjE2LjIyNyA1NjkuNTkgMjE1Ljk1NEM1NzAuMjA2IDIxNS42OCA1NzAuNzUyIDIxNS4zMTMgNTcxLjIwNiAyMTQuODM5QzU3MS42NTkgMjE0LjM2NCA1NzIuMDIgMjEzLjgxNSA1NzIuMjkyIDIxMy4xNzRDNTcyLjU2NSAyMTIuNTUzIDU3Mi43MTEgMjExLjg3NSA1NzIuNzExIDIxMS4xNDRDNTcyLjcxMSAyMDkuNzE4IDU3Mi4yNTcgMjA4LjU2NiA1NzEuMzUxIDIwNy42NjhINTcxLjM2OEg1NzEuMzY2WiIvPiYjeGE7PHBhdGggZmlsbD0iIzFENjNFRCIgZD0iTTM1OC4zOCAyMjEuMzEzQzM1Ny4wNTYgMjE4LjAzOSAzNTUuMDc4IDIxNS4wNCAzNTIuNDEzIDIxMi4zMzRDMzQ3LjAyNyAyMDYuOTIgMzQwLjU4OCAyMDQuMTk1IDMzMy4xMTQgMjA0LjE5NUMzMjUuNjM5IDIwNC4xOTUgMzE5LjE0OCAyMDYuOTAyIDMxMy44MTQgMjEyLjMzNEMzMDguNDggMjE3Ljc0NyAzMDUuODM0IDIyNC4yOTUgMzA1LjgzNCAyMzEuOTc2QzMwNS44MzQgMjM5LjY1NiAzMDguNTAxIDI0Ni4xODYgMzEzLjgxNCAyNTEuNjE4QzMxOS4xNDggMjU3LjAzMSAzMjUuNTY5IDI1OS43NTYgMzMzLjExNCAyNTkuNzU2QzM0MC42NTkgMjU5Ljc1NiAzNDcuMDA4IDI1Ny4wNDkgMzUyLjQxMyAyNTEuNjE4QzM1Ny43NDcgMjQ2LjI1OCAzNjAuMzk1IDIzOS43MTIgMzYwLjM5NSAyMzEuOTc2QzM2MC4zNTggMjI4LjEzNSAzNTkuNjg3IDIyNC41ODggMzU4LjM4MiAyMjEuMzEzSDM1OC4zOFpNMzQ4Ljg3NiAyMzguNjUxVjIzOC42ODhDMzQ3Ljk4NyAyNDAuNzkyIDM0Ni43NzEgMjQyLjYzOCAzNDUuMjMgMjQ0LjIxMUMzNDMuNjkgMjQ1LjgwMyAzNDEuODc0IDI0Ny4wNDYgMzM5LjgwNyAyNDcuOTc5QzMzNy43NCAyNDguOTExIDMzNS41MDggMjQ5LjM2OSAzMzMuMTMyIDI0OS4zNjlDMzMwLjc1NyAyNDkuMzY5IDMyOC40OSAyNDguOTExIDMyNi40MDQgMjQ3Ljk3OUMzMjQuMzE3IDI0Ny4wNDYgMzIyLjUyMSAyNDUuODAzIDMyMC45OTkgMjQ0LjIzQzMxOS40NzUgMjQyLjY1NyAzMTguMjYxIDI0MC44MSAzMTcuMzcyIDIzOC43MDdDMzE2LjQ4MyAyMzYuNTg1IDMxNi4wMjkgMjM0LjMzNiAzMTYuMDI5IDIzMS45NTdDMzE2LjAyOSAyMjkuNTc4IDMxNi40ODMgMjI3LjMyOSAzMTcuMzcyIDIyNS4yMDdDMzE4LjI2MSAyMjMuMDg1IDMxOS40NzcgMjIxLjI1NyAzMjAuOTk5IDIxOS42ODRDMzIyLjUyMyAyMTguMTExIDMyNC4zMzYgMjE2Ljg2OCAzMjYuNDA0IDIxNS45MzVDMzI4LjQ5IDIxNS4wMDMgMzMwLjcyMSAyMTQuNTQ1IDMzMy4xMzIgMjE0LjU0NUMzMzUuNTQzIDIxNC41NDUgMzM3LjcyMSAyMTUuMDAzIDMzOS44MDcgMjE1LjkzNUMzNDEuODkzIDIxNi44NjggMzQzLjY5IDIxOC4xMTEgMzQ1LjIzIDIxOS43MDNDMzQ2Ljc3MSAyMjEuMjk1IDM0Ny45ODcgMjIzLjE0MSAzNDguODc2IDIyNS4yMjZDMzQ5Ljc2NSAyMjcuMzI5IDM1MC4yMTkgMjI5LjU2MSAzNTAuMjE5IDIzMS45MzhDMzUwLjIxOSAyMzQuMzE1IDM0OS43NjUgMjM2LjU2NiAzNDguODc2IDIzOC42NTFaIi8+JiN4YTs8cGF0aCBmaWxsPSIjMUQ2M0VEIiBkPSJNNDY3LjUgMjA5LjM1MUM0NjcuNSAyMDguNjU3IDQ2Ny4zNTUgMjA3Ljk5OCA0NjcuMDg0IDIwNy4zNzZDNDY2LjgxMSAyMDYuNzU0IDQ2Ni40NDkgMjA2LjE4OSA0NjUuOTk1IDIwNS43MTJDNDY1LjU0MSAyMDUuMjM3IDQ2NC45OTggMjA0Ljg1MiA0NjQuMzgyIDIwNC41OTdDNDYzLjc2NiAyMDQuMzQyIDQ2My4wOTUgMjA0LjE5NSA0NjIuMzg3IDIwNC4xOTVDNDYxLjM3MSAyMDQuMTk1IDQ2MC40NjQgMjA0LjQ1MiA0NTkuNjY2IDIwNC45ODNMNDMwLjUzNiAyMjQuMjc5VjE4NS41NzdDNDMwLjUzNiAxODQuMTE0IDQzMC4wNDcgMTgyLjg4OSA0MjkuMDQ5IDE4MS44ODJDNDI4LjA1MiAxODAuODc3IDQyNi44NzQgMTgwLjM2NSA0MjUuNDc3IDE4MC4zNjVDNDI0LjA4IDE4MC4zNjUgNDIyLjg0NyAxODAuODc3IDQyMS44NDggMTgxLjg4MkM0MjAuODUxIDE4Mi44ODcgNDIwLjM2MSAxODQuMTE0IDQyMC4zNjEgMTg1LjU3N1YyNTQuNTI3QzQyMC4zNjEgMjU1Ljk1MyA0MjAuODUxIDI1Ny4xOCA0MjEuODQ4IDI1OC4yMDNDNDIyLjg0NSAyNTkuMjI3IDQyNC4wNDIgMjU5LjczOSA0MjUuNDc3IDI1OS43MzlDNDI2LjkxMSAyNTkuNzM5IDQyOC4wNzEgMjU5LjIyNyA0MjkuMDQ5IDI1OC4yMDNDNDMwLjA0NyAyNTcuMTggNDMwLjUzNiAyNTUuOTUzIDQzMC41MzYgMjU0LjUyN1YyMzYuNjIyTDQzNi40ODYgMjMyLjY1M0w0NTguOTk2IDI1OC4zODZDNDU5LjkwNCAyNTkuMjgxIDQ2MS4wNDcgMjU5LjcyIDQ2Mi40MDYgMjU5LjcyQzQ2My4xMTQgMjU5LjcyIDQ2My43ODQgMjU5LjU5MiA0NjQuNCAyNTkuMzE4QzQ2NS4wMTcgMjU5LjA2MSA0NjUuNTYyIDI1OC42NzggNDY2LjAxNCAyNTguMjAzQzQ2Ni40NjggMjU3LjcyOSA0NjYuODMgMjU3LjE4IDQ2Ny4xMDMgMjU2LjUzOUM0NjcuMzc2IDI1NS45MTggNDY3LjUxOSAyNTUuMjQgNDY3LjUxOSAyNTQuNTY0QzQ2Ny41MTkgMjUzLjIxMSA0NjcuMDQ5IDI1Mi4wMDMgNDY2LjEwNCAyNTAuOTQ0TDQ0NS4xNTMgMjI2LjkzMUw0NjUuNTU4IDIxMy40MzRDNDY2Ljg2MyAyMTIuNTM4IDQ2Ny40OTggMjExLjE2NyA0NjcuNDk4IDIwOS4zMThWMjA5LjM1NUw0NjcuNSAyMDkuMzUxWiIvPiYjeGE7PHBhdGggZmlsbD0iIzFENjNFRCIgZD0iTTM4MS4yNTQgMjE5LjY0OUMzODIuODEzIDIxOC4wNzYgMzg0LjYyOSAyMTYuODMyIDM4Ni43MTUgMjE1LjkzNUMzODguODAxIDIxNS4wMjEgMzkxLjAxNCAyMTQuNTYzIDM5My4zODkgMjE0LjU2M0MzOTUuNTMgMjE0LjU2MyAzOTcuNTA4IDIxNC45MyAzOTkuMzQgMjE1LjY2QzQwMS4xNTMgMjE2LjM5MSA0MDIuODk2IDIxNy40NzEgNDA0LjU0NCAyMTguODc4QzQwNS41MjMgMjE5LjY2MyA0MDYuNjMxIDIyMC4wNjUgNDA3Ljg2MyAyMjAuMDY1QzQwOS4zMzMgMjIwLjA2NSA0MTAuNTMgMjE5LjU3MiA0MTEuNDkyIDIxOC41ODRDNDEyLjQ1NCAyMTcuNTk1IDQxMi45MjQgMjE2LjM1MiA0MTIuOTI0IDIxNC44N0M0MTIuOTI0IDIxMy4zODggNDEyLjM0MyAyMTIuMDE2IDQxMS4xNjUgMjEwLjk1N0M0MDYuMTU4IDIwNi40NTggNDAwLjIyOSAyMDQuMjA4IDM5My4zODkgMjA0LjIwOEMzODUuODYxIDIwNC4yMDggMzc5LjQyNCAyMDYuOTE0IDM3NC4wOSAyMTIuMzQ2QzM2OC43NTYgMjE3Ljc1OSAzNjYuMTEgMjI0LjMwOCAzNjYuMTEgMjMxLjk4OEMzNjYuMTEgMjM5LjY2OCAzNjguNzc3IDI0Ni4xOTggMzc0LjA5IDI1MS42M0MzNzkuNDI0IDI1Ny4wNDMgMzg1Ljg0NSAyNTkuNzY4IDM5My4zODkgMjU5Ljc2OEM0MDAuMjEgMjU5Ljc2OCA0MDYuMTQxIDI1Ny41MiA0MTEuMTY1IDI1My4wMThDNDEyLjIzNSAyNTEuOTIyIDQxMi43ODEgMjUwLjY2IDQxMi43ODEgMjQ5LjE5N0M0MTIuNzgxIDI0Ny43MzQgNDEyLjMwOCAyNDYuNDcyIDQxMS4zNDggMjQ1LjUwMkM0MTAuMzg2IDI0NC41MzIgNDA5LjE3MyAyNDQuMDM5IDQwNy43MjEgMjQ0LjAzOUM0MDYuNDg5IDI0NC4wNzYgNDA1LjQxNyAyNDQuNDQxIDQwNC41MTEgMjQ1LjEzNUM0MDIuODc5IDI0Ni41NjEgNDAxLjE3NCAyNDcuNjIyIDM5OS4zNDIgMjQ4LjMzNUMzOTcuNTI4IDI0OS4wNDggMzk1LjU1MSAyNDkuMzk2IDM5My4zOTIgMjQ5LjM5NkMzOTEuMDE2IDI0OS4zOTYgMzg4LjgwMyAyNDguOTM4IDM4Ni43MTcgMjQ4LjAyNEMzODQuNjMxIDI0Ny4xMSAzODIuODE3IDI0NS44NjcgMzgxLjI1NiAyNDQuMzEyQzM3OS42OTcgMjQyLjc1OCAzNzguNDYyIDI0MC44OTMgMzc3LjU3MyAyMzguNzg5QzM3Ni42ODQgMjM2LjY2NyAzNzYuMjMgMjM0LjQgMzc2LjIzIDIzMS45ODZDMzc2LjIzIDIyOS41NzEgMzc2LjY4NCAyMjcuMzA0IDM3Ny41NzMgMjI1LjE4MkMzNzguNDYyIDIyMy4wNiAzNzkuNjk0IDIyMS4yMzIgMzgxLjI1NiAyMTkuNjU5VjIxOS42NDFMMzgxLjI1NCAyMTkuNjQ5WiIvPiYjeGE7PC9nPiYjeGE7PGRlZnM+JiN4YTs8Y2xpcFBhdGggaWQ9ImNsaXAwXzkwNDVfMjA3MTEiPiYjeGE7PHJlY3QgdHJhbnNmb3JtPSJ0cmFuc2xhdGUoODYuNzkzNSAxNjUpIiBmaWxsPSJ3aGl0ZSIgaGVpZ2h0PSIxMTAiIHdpZHRoPSI0ODUuOTEzIi8+JiN4YTs8L2NsaXBQYXRoPiYjeGE7PC9kZWZzPiYjeGE7PC9zdmc+;clipPath=inset(30% 9% 33% 9%);" vertex="1" parent="1">
          <mxGeometry x="-1009.6799999999998" y="801.1600000000001" width="185.08" height="55.67" as="geometry" />
        </mxCell>
        <mxCell id="7tyj4xhOJmE-xARo_hg0-1" value="" style="rounded=1;whiteSpace=wrap;html=1;" vertex="1" parent="1">
          <mxGeometry x="-649.9999999999999" y="800" width="230" height="200" as="geometry" />
        </mxCell>
        <mxCell id="7tyj4xhOJmE-xARo_hg0-2" value="" style="shape=image;verticalLabelPosition=bottom;labelBackgroundColor=default;verticalAlign=top;aspect=fixed;imageAspect=0;image=data:image/png,iVBORw0KGgoAAAANSUhEUgAAAgAAAAEsCAYAAAC1/gsqAAAABGdBTUEAALGPC/xhBQAAACBjSFJNAAB6JgAAgIQAAPoAAACA6AAAdTAAAOpgAAA6mAAAF3CculE8AAAABmJLR0QAAAAAAAD5Q7t/AAAAB3RJTUUH5gcNCwQfqbJx4gAANhpJREFUeNrt3XecXHW9//HXd9pueqElBAgpc05CPSBBJKgxQVEW7Hq5Fu7FgiK2K4iNqJdg/V2UK1eKqIiNohAQNtQAAgEhgIeemQk9YEgChPSyO9/fH9/vagjZKbszszu77+fjsY8oe6ac755zvp9v+3xBRERERERERERERERERERERERERERERERERERERERERERERERERERERERERERERERERERERERERERERERERERERERERERERERERERERERERERERERERERERERERERERERERERERERERERERERERERERERERERERERERERERERERERERERERERERERERERERERERERERERERERERERERERERERERERERERERERERERERERERERERERERERERERERERERERERERERERERERERERERERERERERERERERERESkuRkVgcjgc/OsORkDRwEzgRXAFXNuW/iMSkZEAYCIDNjKf7YxmC8A3wOG+//8V+D4ObctfFYlJDI4JFQEIoMt6jeHAV/bpvIHeCtwys2z5mRUQiIKAERkgFk4a85Y4NvA7jv49QkG3q1SElEAICIDq/JPAJ8F3t7NISOAby2cNWeSSktEAYCIDByHA18AkiWOORA4beGsOS0qLhEFACLS/K3/nXBd/+PKHGqAjwPvU6mJKAAQkSZ2i+v6/wwwu8KXDAO+uXDWnCkqPREFACLSpGxlXf/b2x8NBYgoABCR5lRF1/+OfAQNBYgoABCRZqv8ZyeAk6m86397w9FQgIgCAJFmZ9vaUratbRAlujFv8QFAshdvMqiGAk6fcbiZO2PmEN0tMiieECoCGSSV//7AN3AT3K4Erjbt7asHbut/zm7AZbgMf721Hjhxzm0L/zhwK/43JQyJCDjeBz3XAufNW7xok+4eUQAg0ryVfwb4LfBv/j9tAe4ALgCuM+3t6wbS+d48a3bSYL4DfIva9fI9Brxvzm0L8wPt+pg7Y+Z04BO4OQ9dGRLXAm3zFi+6Q3eQDFQpFYEM/AjAJjBmxDb/JQPMwc2Ov8m2tf0CaxeaBQsGRGvPYGYBJ1HbIb59gK8vnDXn5Dm3Ldw4QCr+ybicB/8BTNrBs7FVN48MZJoDIIMhANgE3AAUt/vNEFzu+0sw5te2re1t9uij0818qr7rfy6wcx3e/jjgw3+clW32in/C3BkzTwXage/uoPIHyAEP6eYRBQAizdwivu46gOuA57o5ZATw78AVGHOubWt7oz366GSznefNs2YncZP+3lynjxgCfGM39prWpBX/LnNnzDwJN77/I6DUeVxrrV2hu0cG9LNRRSCDohPg6KNTGHM+8MkKDn8RuBT4NR0dD5sbbrBN0vqf47/3znX+qN8CJ825beGG5qj4Dx8F5t24jZAOpfzQ5yrg6HmLFy3WnSPqARBp9kh3wYIO3Oz/Siqt3YAvAdeSSs2zbW1BE1T+44DvNKDyB/gQ8OEmaPEPmztj5gfA/Bm4EDfno5J5T3cBD+uuEfUAiAyUXoC2ttG4cd/Dq3zpUuDXwB9Me/uz/bDyTwFnAF9rYFCfw60KeLwftvhbwMz2Lf4jgaFVvLwD+NS8xYsu1h0j6gEQGSjWrFkN/AWotkt/KvA9oN22tX3RtrWN62dndiRus59G3s8hblVAv0mac/ohM9NzZ8x8K5iLcEMh766y8gcoAAt1s4h6AEQGXi/AfrgVAbv38C06gQdwOQTmm/b2l/u49b87cAVwWB98/Ebg5A0Mv+jY267uw4r/sIQxyUOATwHvB3bqxdv9BIpfnbf47qLuFhnolAdABpsccAvwsR6+PgnMACLgeNvWdh7Qbtrb1/ZB5Z8Cvgy8sY/KcgjwjaGsuxd4tNEf/o3ocFJpcwBwAm6JYm97Zl4FrlLlL4OFhgBkUDHt7VtxkwE39/Kt0sBbcHMDLrNtbcfatrZGd4e/A/g0fduTl8VtGDSskR86d8bMbCpt5gHX+CCoFsMy94L9u+4SGTTPQxWBDDa2rW0XXF6AN9TwbdcCNwLnY+3tZsGCLXVu/U/Adf2/sR8U6WbgS2AvmHPbLfWu+PfC5Wz4pA8+aqUT+MK8xYvO0x0ig4WGAGQQhr1mJdZeDRxcwyB4BPABYDbG/MWnF77HLFjQWYfKv6vr/9B+UqItwGlg7qZO2fPmzpg5DvggcCKwXx0aL8/g5oaIDBoaApDBV/9fey245YCr6vD2Y3C55edjzM9sW9tB9l3vqnVl9U7chLf+1IM3GfjWwllzhte44h87d8bME4CrgbNxO/XV47xvMsY+o7tDBtWzUEUgg5Fta2sB/uBb7fW0DPgj8BvT3t7rNfMLZ83ZE9f1P6MfFutm4MsWzj/ytt6tpJs7Y+YI4F3A53B5G+q5R8N64P3zFi+6UXeGqAdAZKBHvu3tm31FurXOH7UHcBpwjW1rm2vb2ib3vPKfnQG+AhzST4u1BfiqgQN6XvEfPmTujJltwGXAb4C31rnyB/g7cI/uClEPgMjg6QUYj5u4t18DP/ZxXFray017+/NVtv7fD1wEjOznRXs58Mk5ty1cV+kLTj9kZsYYjvAt/nfg5lQ0QhH46rzFi36iO0LUAyAyaMJfsxy3M1wjTQf+B/iLbWs70a9IqKTy3xv4VhNU/gDvAT5286wjyzYw5s44PDl3xsw3GcMvgD/hhmRGNPC7vgAs0M0gCgBEBlP9f+21FrgKeLkP7ruDgZ8D821b20f8PgXdVf4Z4BTgoCYp2hbgawYbdXfANw8+wsydMTMC8zNgPm7i5Ng++K63gn1Cd4MoABAZfB4C7u6jz04BM3HJhP5k29rea9vadpRQ5xjgeJpryG5v4PSFs+aMeH2rf+a0ZNL+ELcvw+dwuy/2hU3An+ctvmurbgNRACAy2HoB2ts34iYDdvRxi/lI4PfAH21b29vt0W0tADfPmjOR5un631HgcsI2Ff+kuTNmzsUNu5wG7NnH3+8R3Na/IoOSEgGJwM3AE7gd7vrSMNwOdm/F0L7l6KN/eeeGzR8swkFNOls3A5xy+Zvf9sSDm7ZMxaUt3reffDcLXG2LiVW6/EUBgMjg9TxwfT8IALqMAj6SMqZtWku6ddnWTrO2WMTSfMt2DOyVgN9nDCM7bL/qcVwJXHvm/Xfo6pdBS0MAMuiZ9vYiboOgNf2s8hw1PpVsOaA1TTaTYnjC/LPp2iwsMDqZGD0ulexvz5rbcUsyRRQAiAxy99NPk8G0GMOe6RQHtmaYnEkx1JimCgISwJ7pFCMSif7yvbcAV8xbvGizLntRACCiXoD1uCWB/XYv+FZj2Dud4oDWDBPTKVqaJBCw/rtPzCRJ9Y8xjBzwV131ogBARLrcADzd37/ksIRhaibFAa1p9kwnyTRBIGCBnZJJxqeS/eHrXGuMXa7LXRQAiEiXp3GpgZvCiESCbCbN/q1pxqeSpPp5IGBwQwEj+3Yo4BXgL2fce5fV5S4KAETEVVDt7Z24rHTrm+Y7A6MSCaa3pNm/Jc1uqSRJ+u9EQTcUkCJt+mws4C5c8icRBQAqApHXuAd4oOmCF2BMMsE+LWn2bc2wczJBoh8GAm4oIMHufTMU0IGb/LdBl7mIAgCR7XsBXvW9AMVmvaF3TibYryXD9JY0Y5IJTD8MBPZIJxmVbPhQwJPAQl3lIgoARLpzPW6XuKaVNLBbKsn+LWnCljQjE/0rEGgxhonphg8FXG+MXabLW0QBgEh3Crj0wE0vbQy7p5Ic2Jomm0n3m2RCFhjb2KGAtcBVZ9x7V1GXt4gCAJEdMu3tHbgNgjYOlHPKGMMe6SQHtmaYkkkxNNE/FuQ3cChgMXCfrm4RBQAi5dwNPDzQTqrVd70f2JJh736QTKhBQwFF4Mp5ixet1WUtogBApEyVUXwJlxlwQK4XH5owTM649MJ79WEyoa6hgAn1HQp4jibK7yCiAECkD5nrrgO3b/2LA/k8hycMUzNpDmhNM6EPkwlNSCcZXb+hgJtwKwBERAGASEUGRc54A4xMJAh9MqFxqSRJ09iujxa/z0Gm9kMBG4D58xYv6tTlLKIAQKSyirG9fQvwZ2BQ7BrXlUxoekua/Voy7NLAZEJ+2+B6DAXEuPkcIqIAQKQqg27f+AQuW9++rRn2aUkztoHJhGo8FGCBqzszmVd0GYsoABCp8g5JrMTNBRh0ksCuqST7t2SY1pJmdAOSCWVqOxSwHFjw/UW36joWUQAgUh1zzTUWuBpYNVjLIGVgfCrJAT6Z0IhE4p/N61qr8VDALbh5HCKiAECkRx4B7hzshZD+ZzKhNFMyKYbVMavghHSSMb0bCtiMm/y3VZeviAIAkZ71ArS3bwKuBFSZ8K/kPQe2umRCQ+qwdLBrKKCl50MBj+Lmb4iIAgCRXrkFyKsY/mWI2TaZUKqmyYQsMCqZYEK6x0MB12DsSv2VRBQAiPTWC8ACFcPrDUsYpmZSHOiTCaVrGAhMSCUZW/1QwCrg2nn33qU/jogCAJHeMe3tXZMBV6s0dlA+wAifTOiAljTja5RMKG0Me2eqHgq4gwG4j4OIAgCRvvN3lFSmbCAwKplgWkua/Vsy7JpM9iqZkMVlKdwjnaTCEGArbuOfzfpriCgAEKlVL8AG3GRApZWt4MEyNplgn9Y0+7Zm2KmXyYR2T1W8KiAPaOG/iAIAkZq7GXhKxVCZJLBLMsF+LRmmt6QZ08NAoIqhgOvAvqCSF1EAIFJrz7pKRqqRMjAulWT/ljRBS5qRVSYTqnAoYDVw1bzFd1mVuIgCAJGaMu3tRWA+sFalUb20MUzwWQWnZlIMrzKZ0O6pVKlVAXfj5mmIiAIAkbq4D7hfxdBzLcawl08mNCmTYmiisqWDaQN7Z1K0vn6pYadr/S/aoNIVUQAgUq9egLXAFUBRpdE7rcYwKZ3iwJYME33mv1KBgMUtN9wzndz+4fUUcKNKVEQBgEi93QA8p2KojaH/TCaUYY90smxWwfGpFDu9dijgRot9ViUpogBApN6ewq0IkBoanjAEmTQHtLpkQqluAoGUgYn/GgpYB8w/c/Fd6pERUQAgUl+mvb0DNwygMedaly1uxr9LJpRm11SSJK+dKLjtUEAS7rdwr0pOpDopFYFIj3XNOp+poqhP62RMMsGoZIJXUkmWbe3glc4inT5IABiXSnZ2whWfWPTXNSoxEfUAiDTG1q2rgV8AG1UY9X1I7ZRMsG9Lhn22SyaUMubWqZnUpSolkeoZFYFIz9m2tiHAt4H/AlpUIg2Iu6xlVWeR57Z2xGuL9oQjb1sYq1REFACI9EUQMBT4BPB5IIt61uptI3DdhqL972HXLXhIxSGiAECkrwOBycAc4M3AFGA0MBIYDgwB0goOKm/oA1uA9bisi2v8v3ngWuAWn49BRBQAiPSbQCABDPOV/kgfCIwFdvE/O/t/d/K/G+2DhK7XtPhgIYXbT6fpiwTo8D9bgE241RPrgVdxOfxfAV4CVgCrgJX+367fbQC2kEisN9dco1z/IgoARJq4VjzmmCTWtgAZX/EP8z/DfeAwYgf/DgeGbvMzBGj175He5ie1TQCR9D0PZpufUoq+0rb+f3duU4F3+NZ5Vwt98zYV+kZfqW/YptW+BrdOf802P12V/3r/+s1Yu9UsWKCKXUQBgIh0Gzgce6yhszOJMUmsTWJMAmPSWJvaQcXf9ZPCGOOPSZRsrRvTAVis7QQ6sbYTYzpfFwgYs5Viset3RaztZMKETnPhhfojiYiIiIiIiIiIiIiIiIiIiIiIiIiIiIiIiIiIiIiIiIiIiIiIiIiIiIiIiIiIiIiIiIiIiIiIiIiIiIiIiIiIiIiIiIiIiIiIiIiIiIiIiIiIiIiIiIiIiIiIiIiIiIiIiIiIiIiIiIiIiIiIiIiIiIiIiIiIiIiIiIiIiAxMRkUgIiKNMmVqZBIJRmFowbKxkI/XqFQUAIiIyACVDaK0McwCPgwcAAwHVgOLgUssLC7k4qJKSgFAf76IWzHsamBP3M/uwK7ASKDFH9YJrAdeBl4EngOeBV7YsoXVTz8VW5WkiAwWQRiNAL4BnASM3sEhy4EfYjkvn4+3qMQUAPSni3cXIAKOAA4Fsr7SHwokK3iLzT7SfRZ4ELjTwt1Ynirk460qYRHpJ8+6UcDXgd0A202dsSCfi/9c6XuG06KktXwT+DaQKnHoeuCLFLkoX1AjqRFSKoJuW/opY9gPeB/QBkz3FX5PtPgbajdgBvAJA8sw3BmE0Z8t3FrIxatV6iLSx4YC/wZMKnHMKqDiAMBaDgQ+V0F9Mww4hQQ3+8aSKABoeMVvjOENwInAMcD4OnxMAtgL+AjwfgOLgjD6JdCez8Vr9VcQkT7UWeb31Y7TzwHGVdoJAbxJAYACgIYLwmg8bozqE8CEBn1sq79BZgLXB2H04w64+8lcrD+IiDS1KVMigClV1kl7q+QaI6Ei+GflfwRwCXB6Ayv/7QOB9wJ/SsEXgjAaor+KiDSzoptltrnKl21WyakHoDEVfxAlMRwH/AA3q7+vTQB+DATZMPpOIRe/XIdgZxbwxhKHvAxcks/F63SLiEhPPbU0JgijB3DDCpVMmF4PPNyLZ9suwHGUnq91Uz4XP6C/ziAPAIIgSmH4FPB9YExvg11/kRtcz0pveldagc8ZGB6E0an5XPxSjU+9DTi1xO+XYmkHFACISG/djFv9dHAFx96OywvQU+OB7wJjywQZCgAGcwCQzUYGw7/7lv/oKl/+CvAUkAOeAF7ALfPb5AOAIcAo35qfDIS4WbXVfE4COB7Ykg2iUwv5mk4OLDeJp1O3hojUQj4XPx+E0VzgF5QeXl0CfDef63VmwHLPLy0xHOwBgElwhG/5V1opbwLuA64BbgOesJbVhXxc8mLLhlHSuN6FqcDbfOv7EP6VNKhcEHCCMTydDaMfF3KxKmYRaT5JrqOTT+DmWB263fNvPXArcEY+Fy9WYSkAqKsgjMYB3wP2qDCaXAScZ+GGQi5+pZrP8pX2Kv/ztyCMLgDegVttcATlhwrSwH8ZuAe4RZesiDRdL8BjsQVu9PMB3oxLrDYGWAEstnBXQUugFQDUW3ZaZLB8ErfsrpxXgLOB8/K5eGVNbgQ3qe/SIIwW+iDgS5QerwLYBfh6EEZ/z1cZgIiI9JtAIBevAub7H+ljg24ZoLFMAz5VwbkvBz4PfK9Wlf92N8JKDGf6IOD5Cl7yVlxiIhEREQUA1QiykQE+BEysoOV/yqaNXJKv47h7fklcNJO4HPgyUG6mfwY4Pus21RAREVEAUMXZ7gS8m9KbIHUCP7dw2bPP1n9Ditz1MdZyJfAToKPM4YcaOEiXrYiIKACoToTb1KeUB4FzGznjvpCPi9Ytkbm7zKEjgdlwmK5cERFRAFCFwyidIaoI/CGfi//R6C9WcJNjfg2U2x740GywqUWXroiIKACoQDaIksABZQ5bhcta1VduAZ4uc8xkAzvp0hURkd4YNMsAjWEY5df9P1lBBVxPLwAPAdkSx+yKYWd/bE9VMrehKZIOZbNRxhhGYhhmLS0GLIYOoNO63pSXCrl4Sz2/w9RslDSGDNBi/D1l3XyOzbbIlqVLmzeB04TdI4aOIIMlbdxE1BRg/fltwbClkIs7BsIzIpuNEhhagFb/d+y0sAXYVMjX/xyzQZSC11xHRes2xtlcyMdbkUpUcq8VVUyDLADApectl+//BWBDX33BfC7uCMLoJmC3EodtsCUu8sA9RPYHhpV4jz3LlpXhTUEQrarwq79q4dFCPi57YwVhNAHLpO4jNV4BHs/nun+vIIzG4vKKdyUU2QsYY9zD2/obfItxexl8Frirln+nIIxG4jI77gvsg9u+dDdguH+AY1zFsdYkWR6E0dPA48AjwJM1SHVaN0EQjcAwEZjGv1JY74ZhtL+H0oD157cBeDkIo2XAUuAxYIkt8o9Cob5BTxBGI7HsS/cbzGzF8HA+F28oc77jMUTAG/w5746ba5MGOo3LUrciCKMCcD+WB4pFnq5FUJcNoqHGMMVfw/v7st7V37tdn78RWBmE0ZO4+UkPWMvSQj7e2EwP3yCI0sB+ZZ5Ly/P5eGmZ95ngy6k7U3zZlYzZgyA6oorG0mP5/MDMvzKYAoAM5dPvru8s9m10aOHXWP5Q5piNJSrQEcDP/QOlVFmUsgfwe0zFObPvNPB+Sn2vf3kfhh+U+P3NWP4dl3p5+4f+eODDuN2+ygU5rhKAmiybzAZRxhgOwOVimOMri7FUPoxWxO2yuCQIo5uBdmt5qJCvb+9Ehec23BgOBo7CZacMccNM1T4fNgLPmQT3BGF0HXBrPhcvr9PXno7hihJ/3xf932rJ657+UyOTSBIB/w68ywdzrRV85lYMyxJJFgZh9FsLd/ek9yMIowm4lODv9YHsLhVeR0VgpTHcE4TRZRauKzRJYjALI43hXB8EdOc3wBdKvpHh/bgU7t1J+EC1lJMxfJrSq8G2fYYcB9yoAGDgG5YwJPqyi6iQi7dSfiJg6VvEVYzDe/EeiQoq120NrfBm6go+hpd5r9dWUGGUNm755mm4fRQqrXQ76eXGH/6zjwA+iUvhvEsvynRnX8EeAZxsDDcGYfQrC3f6v3ujW2VjMBwNfBw3QXZUDXrZAv9zHPBQEEa/AS7P5+IVNf76SX8ddXctrd/RdRKE0W645FufovTGNDuS9q3PTwHvM3BJEEZn5XPx0xVeS2OMCzpO9BVhsgfX0G64e+GdBm4PwujHFhYWcnF/79au5LnUWuHfYHgvv0sLle3FAm6oa8DWk4NpFcCWHbUqd9DyHTYAztX248+z1fw+CKORBr6NWyFxaCOv2SCMphk4B/gz8NFeVP47sot/zysM/G8QRtkGtvhTQRgdjeFyX65H1aDy39GD+g3A/wJ/CsLo7UEYmb68zoMwOhD4Pe56mtDLz94Jlyn00iCMDq/gsyMDv/XlcWAPKv8dBdJHAn80cGoQREP0XNJ3VgDQvQ24LthSphhDFukXgjAaBfwI+DpuXLYxFWQYpYIw+jBwBfAZyu/V0BtjfIv0iiCM3udXq9SzTHc1hu8Df/AVSKbOxZkA3uIr3s8HYdTSR9fSG4CL/DnXMhB5I/CbIIzeVuKz3wlcghuSqHVrcmfgDAxzg7ApggBRANAnYdwGys/wHwu8Z+q0mrdUpPoHdgbX5f9pGtgFF4TRUANfwyVm2qeBp7w/8Ctj+FIQRK11OrcA+BVwKpVvg10ruwI/BE7NBlGmwdfSFNy8mHpl0cwC5/gehu0/+13ABbg5I/XSAnwF+GK9A0hRANCUfGa/+yndpWOAjycsBzb56Zqm/jxLJ3AsbkJQwx5oQRANB/4b10U8qg/+bmOAMzF8rdYt5SCM9vEt4GP64ProMhT4ujH8x9SwMUF2EEatwFzfUq+nfYHv+RUqXZ99EG430b0acKotwGnGcOQAf5Q3+tod0HXkYJsEeBewmtLLAScCZ2bD6JOFXPxiE55jEbeT4djuO0MYTenZ8R3ASv9vJTfci9RurMySYHfgq1Q2g9/i5nd0zcZO4safk/76ruiBEYTRUF9RfInyy4i21YnbyGm5/3eD/8yhuO7ZcVS3WmAIrgfi1SCIzsnne7/cLAijib4FfHgPXv4KsAy3Y+UqYI2/xobhxsH38PdMpcmphgPfTsDDwN/qfC90AkfjNgDrzibc8t8X/LkZ3HDTeP+3G1rF5x0F/CfwkyCMxgDfw02ILHftvOD/3eiv21G4yX7jqG5O0ljgW0EY3e+33R2I1vjrsbtnQYbyqypWA2upfBXAxgFaloMuAHjEP3TeVea4ow38NBtGpxT6IC1w72pP1uJmKWdKhNCn4WYid+c54GPWVeyVhOQbMWUnWFYT4b8PN4GsOy/hEiYtxq2v/wduzT+4mcQ74SZ57eUr5nIt/yTwuSor/6eAW3GZIx8B/uGHmbpm86eNq+zG+3N5O25L5/EVBgGnY3gS+EsvK/8RviKaVcXLVgOLgOuAe4FnLLxqi2xdWnCzzSdnI5NMkjKWEbg8CG8FPoibqFnuubIH8LVsGH2skIvX1zEQHo2bX7GjSnwZcA2wAHjYuvlBm/z112JcZRr6Sv29wOQKn6cnBWF0jX/d20tcv7cA7bheyX9dO4YELqHVaNzyxNnAe3CrBiqpsN7k758LB+ID3MKffNl19/AIgd9Ret7O2dbNSanwI1nOADWoAoB8Ll4fhNFv/U3VUqYSOs7A2CCMTs/n4vua5Rz9UMdzZSqFcmuHt2B5spCP++LCPxSXGGVH1+bTwGXAlRYeraTyyGYr6Go2vBM30bCSbvencePol/uELMUSLYcNwArgwWBa9Dss+wEnAB+poMW8EzAvCKPH8rnSyVG6M21aZIqWE8q0gLe10VeK51m4t1Aiic6Thdj6c3zZ/zwQhNHvcEsKT8Ul1CnlHcblU/hLna6jEcA3d9DrsRE3Ie+cIjy0dMfL57b4FuIzE/eLbmzZyoW4Gf//WUGLfArwf7h5Aakd9KwtAM4qwt+Wdp+hsuvznwNuDcLoAtwy1M/7XqVyz/SPZ8Po8kIufnWgPcMLuXi1D1C7e7YNoXw2wBWFXPwEMvjyAFhYYFyrra2CluhRwLQgjM7BbRI0UCLBSloSfTX2taPhmc2+4j8rv5aHeCGu/IFRKL2lcxBGewNnVFAhdwDzge/lc/GDVQefS+KtwN+DadFDWBYAZ5bp5QC3d8VXgiD6cr4HCYOKln2AL1PZTP8ngXkWLi+UyZ5XIsBeBfw0CKPHgXMpnbFtKPCf2SC6sZCPN9XhOhqOWy+/rZXAXAsXF3KVfeYzj8Tgkjd9BXjU96aMKXNvvWMH/30Dbsvvs/KuEqumXJcF06J5WB6isjkFBxuYQd/ua9JXEv342daUhTXQIsg1uExSz1f4konAj4GrgzD6fBBGe++xV6Qrp3FWA6cDJ+VzcVWVfzlBGKWAkyk/O3wj8GMLn+5J5b9dINCZz8XX43IALKzgJcdhOKLqc5sWpXBLGCdVcPiDwMfzufg3Pa38t6uwrve9AOUquiOMKbs9d62sBL60aQu/qLTy3+6cttgEF/hgsdrXbwV+jGFetZX/NtdNMZ+L5+OG78q17IcBsydl9ZwSBQCvbxnB3cA8XLawSsvpUFwSj+uHDuF/gzA6KhtEu+4xRUsG62gd8E0LP83XoGLagRnAf5TpEdmEW752Ri27VPO5OIflM8CdFfSIfDZb7dJAS4BLz1zOo7jApqb7JVg3lHBJmcN2xu3nUG8bge90Wi599qm4x5NVC4/HReuWh15V5UvnW/hJfknv0z5buBKXUKicN6YSVU1gFAUAg8PSXGyxXOQf7BurLK8Q+CJwpTHcODTFz4Mw+mgQRtOzQTRMl1Qt4zR+buGXfl5DTfk8AydSOrtfEbeG+//lc/HmWn+HfD5+AjgFeKbMoUf6XP3VeBG3nPFKup/EtAr4aj4XL671ufnUxhf5z+iOAQ7zu+DV02XARU/kY1uD89qAG96oNAf/C8CPCrl4bQ3L9ULK7wY6xVjG6TEiCgB2/PDdAvwPrkuvJ7uzDcWl9DwJuBhYaAxXB2F0ZhBGbdkwmph1O2BJz/wN+Gkdc+QfSPl5IH8Fvp/P1W/ntU63kuGnlN7/YQzwgWxQeW9TPhe/lM/Fv8bwEdyY9Cm4MeFtK65fWFO/TU6sWx1RbgLtNOqbc2EZrgeplvMM7sP1IlbiKuuGWGpZrkuA28v2rphepzsWBQADOAjIxZusCwJOBnozKzSJW941B/gW8GfjAoJLgzA6JQijNwdBtMuUqRouqNAW4Nx8nfIw+Ir0Q2Va/y/jJvytqOeJPpGLLW7ZUrk18e8wpuQ20Tu+xpfEm/O5+OF8Lv4JbnlYG27461ILFxSW1G/b3oILnO4pc9h4Y2q6x8L25lvLIzV+bmwE7qjg0PXAVbXuwfJB8e2Uzr3RCgoApLRBvxug387z90EYPeYr72PofX70VtxyoCm4cdi1GJ5MJrknCKNbgXuK8MzS/r+DV195DLipXm9uDONwCWJKudKWb2XVqkJ52S9PfVOJe3IqbuvYBb34nHW+5Xp3Noxa19Yud0MpOdfR0W1Gx+GUX9rWU+uA+SWWavbG477XplQv3zO4hEfU6fM30P2yxGQdy1XUAzDgegMewK3z/SwuOUctHxojcF3OJ/rW3k0JuDAIo3cHYbSTSv91brOdrKzj+x8GJTd9ehm4qMFb9N6ESy5UKqg8YvKkqFaB76blS+JGnNdKXI9Od1oovayuV7c1LmFUPbxE+dUABSwv1enzX6T8JOaRepSIAoDKg4C1+Vx8ES7z1im48dktNf6YlO8Z+ARwKXBtEEZfzobRJP0FwLcW7yssjeuyDWfguv9nUbqXZ5G1PNDg816GS1Vdyoxkmmbb8W09pROzpKjfFtyPYCqerFetLRU0EpY9m6deQeRGyk9gbtXjRBQAVB8IPJ/PxWfjhgP+EzeTuh7j0UN8a/QnBtqDMPpqEEbjB3nxbyjTEu4dwyhKbwxjgRvqlJym1DXXiRsvLxX4TO3JPIA+lqrgOVOvochCfkmfDrOt3kRcn3d2G2Z16PkuCgDq91Bekc/Fl1iXuvWduOQm1+Nyz9fywWKA6bhlifODMPpANmzslqn9yCbKJzrpjb0ondf9Feq/SU13usZ1u7MzLo9+MzmwD1uiK/r43Lci0s+jcynXjHBrwGMgDsLoXF+BHAq8BTjE//9aJN1I+NbpRQYuCsLoh/km24yoBjpt+VzevRFQesz5WVy+/77QtSNdd13iQ3GZKe/s73/EqdkokUgwE7dMti8aGhbYhIgoAKhhr8BGXPa0R6eG0cUJ2BW3U9cRwEz/v3ft5UNvBC7Z0PQgjL6Sz8WPqORrGgCUuu6fsbZsCtt6WeN/xpcIEPtdD8CUyZFJpGgxhhH+u++DWxLbRmW7H9YrAOjU5S6iAKAu/DK+5f7n5iCMhuG2Rp2xXe9ATyc5vR24OBtEJxby8f0q8V5WVG5nwHLbuq7HMCEbRn1RY401pecAAI3P7hYEUcpCqzGMxG1Tu4sPcsf777O7/xnnf8bS/bI/EVEAMCB7B9b/s3dgWvTbhGUX3yMwy7eI9qX6pTkHG8N5QRgdn8/FS1TKPZdMkK6gAj3GuPX4fSFRQYt5zKTJB5mnnvx7zVdJTJkaJRIJRvk8CXvhVqtMBvYyroLfGTd8Mgw3rq9KXkQBgLyud8DNPn7R/ywMwugs3D73x+K6RrNUPkwwA/hREEYn5HPxyyrdHmuh/La/I+nf66eHp5I2SfkZ4BXJBtEYvyPfIbjtiacDe/qWvpaRiSgAkBr0DqwGbku/Obpt0grOAd6LW2J4AKV3o+vSBpwUBNEP8nllEOyhVuq35rxhQYwxvZtUlw2iIX5zoTZcz1RIffPxi4gCANl6R0zezTI/OwijK3B7tn+G8mk7k8BJGNqhXouLB7yM7wUYlLJh1GrgbcAngdnULwOfiDQB5QHo216B54puy9bjcXMHypkAnJANIo299oQlwSAdtw7CaB8D5+O2xv1Agyr/VcBCtBxPRD0A8np+JcF1QRitBH6FGxIo5VhjOAdYqtIblKraUTK7b2RMB8fikkxNr/N3W4+b85LHpTW+Adfj0o7mE4goAJBuewPuC8LoFOAPuCVW3dkLt8RQAUD1VWcl6VNtPz+Lir/ftGmRKXbwQeBn1Gb5oMXlwF+Hy9a4AreHwdO+0i8AT1l4sZBzqZSDMDq02qBFRBQADDpFuCUBF+NSDnf30EwCb86G0cW13md8oLOwxcDmMoct9EFYf620nrMVrgAoWt4K/LSHlf+ruMyEz+D2Zljm//8/fMW/yrpjNvgttWvSYyEiCgAGpaW5uBiE0e+Bj5d5aO9rXLbA1Sq1ajoA2ORbr6U8mc/Fv2n2cw3CaDfgDNy8kUotA+4GbgMesK7yf6WrNS8iCgCkvvK4Wf7vLHHMeNx6dgUA1XUBbMGwqsxRO2ezUapQiDua9TSnTY8oFjkOOLzClxRwPU9XWUO+sCTWJjYiCgCk0YpD2JTYyONlAoDhuEQtUk3ZwtYEPF/msHEmwRBgbdOeZ5GdgY9SfsVDB/An4Mx8Ln5MV4jI4KJlgP3M0jgGWFlB4DZMpVVl2eZjCzxZ5rDdcbnsm9kbcCmoS+kEfgl8TpW/iHoABqQgiBIYhpYJdiywMZ9rmm5fgyZX9VQON5M9083vd8Hlv3+mic/xTcCQMsfcCsz1GSrr/YzRtSqiAKBPqsqdgfMovY1qB/B14I5+8q3LZQXsRMlVeqoAvET3m+4MAw71FWTTyQZRCrcdbykbgHPyuXhVA77SCDTUKKIAoI9sxe1qdmCZ4w7oDwFANogywNQKHuCv6vKtnoVlxk20LLXr3qxsEP2skI83Nl+8yxDcMEa5IOjuBn2lvei+t0VE+tDAnwNgWYdLVFLOIf0hxa4xTAD2L3PYS4B2BexZALAOWFTmsBnGlP0b9NcIIE353Qwft7b+18/UMEoAB6MhABEFAH2hI81WKsuzf7gxZVtOjTAbtx1rKU9ZW9cegMRAfWgvzcXguvfXlzhsJ+C4bNjYgDAbRC3ZIOrtZkUpyvfsvVzI1z+JVMJltDwcEdV7Koi+8OSjMcC9uIlfpUwG3tOX3zUIo52BEyp4gN/HprIZ7Xoj41uSA9X9wMNljvmQgX0b9YXC6ZExhi8awxVBGJ0WhNGbgzDaZeqUqNpArAM37FXyvs9OjhpxWl1bDYv0J0NVBIMrEnqA8rO6U8CJQRjt3RdfMHTdpZ8G3ljm0PXAHYVn43p+neEM4P3hOxO8AsyndF79PYD/yoZRQzaxsUX2Bj4FtAE/Aq4FbkykOD8Io48GYTQ9CKOhYVi24t5C+fkh40jVN8ALwmisv541/i/9zc4qgsEUAFheAG6u4Mj9gG8FYTS08V+RdwNfqaD1/6C1PNDLjyvXQhwB7D1QL4cnHo8BrqR8ToAPG/jI9Gx9W8uBG2r4DK+d/DkSiIATcVn6bgbOtGUqVGvZiMvXX8o0Y0puONW7YHZaZIBPoO5/abytuFVSpWSzQZRWUQ2SACDvxjsvB9aUOdTg8vB/NWhQyy8bRARhdAxu05ZKlv9dWsj3eu32S2V+nwFmTslGA3byljU8idv0p1QvwFDgjM4ER9X567T51nJ392MSN7N/jS0TvPmx/XKJfSYDs+pWtpajcBta6SErjbYOKLd6Z39jSi4LVwAwAHsB7gGuq+DIFlxOgB/4DVXqWfkPM4aTgQsrbHE/DFxRg49+uoJegGOSCSYO1MuhsCQuAr8BHi9z6ATg50EYHT1u59r3BARhdDjwY8pnH1wG/LmQiyvZDvheSueJyACfD8JoQh3OZxZwNrAbIo23mvI9YBOBY1RUgygAyLs13WcDyys4vBX4InBJEEZHZcNez8x+jalBlAzC6DBj+BVwFpVt17oZOKdjEy/Uojgov4wwBE7NBtGATTmc6uQpX/7lkipNAX45cidOzobR8JpcA9koEYTRscCvqGyi3OXWlA1Wuvwdt9a/lDcC8/xYfS2C2UwQRh8FLkIT/6TvGnrrKb/qKwl8MQijGQoABtO1YbkXOIfK9lNPAG8DLjXw6yCM3hUE0ZhetY6CaHQQRnMShnOBq4B/8z0OlbgSuPzJZ+Ia3CM8BTxYwfl/2hj+JwijcOrUHS+JmzolMsG05hwqeGxpjIXLcMND5YwHzjJwcRBGs7NBz4eIgjCalEgwD/g1MK2Cl+SACwpLKlu6Z+FF4C+UHt4wwPHA+UEY9Tjnwd6TIxOE0b7GcDYu4+beqoWkDxt6Rdwy33LP+KnAhUEYvTcbRCO6DWyz0YCuIwdVis5CPi4GYXQubnLVhyp82WjgI8B7MDwchNFfgXv8Q/lFa9lgi2xeujQu/rO5ODlKJFJkDAzDTbYKgMOAt+CS/Iyo8qvfD3wnn4vX1aQccvGGIIzm45ZplVrrngE+CxyVSHJnEEaP4CqXDlzGuXHABCw/g4pbp/3rmsjF64Mw+q5vtZZbgdECvB+YbQwLfRn+zVqeL+TjbnsRJk2JTCrJaGOYDrwL+AAwvcKvuAH4weYO8lWckw3C6A/Ax6DkME7S3wdvCMLot8BVFvKFXOkMiBP3jkwmwxifLOm9/mdHFX+nvy4CtBpAGud2XC9nuZTYBwK/M4Z7gzC6Fzc0us7fF2Nwc2Uenzo1umDp0oqG3hQA9PsIMRevDsLoa7gJd2+r4qXDfCV+GG78/CXgRWNYYZK8HITRet/iMrjJY2Nx46C7+f/d0wdgHvhyPhcXalkOFq42buLZwRUcPsn/bPPy1yQKuqdZAwB/TTwVhNF/UXn39Whfib8HeN4YckEY5YBncUMrm335DMMlw5nqK/ws1W3j3Amci+HSZ56orufHWnLGcD5wJuW3BZ4MfBc4ycCDQRg9gBtCWO4fiEUsLRjG4JZH7uOD6JDSWQcfBn4I/EIBgDRKEV5IwO/9tV+uBT8cl3xtdjfPtjtMgt/7+0ABwAAJAp4KwuizuC7L2T14i7Rv/Y6r81ddApyUz8V31vqNX0jzjwlbOQs3AbHaZY/bd/kfnM1GFxcKzRsl53Px3UEYnQSc71usld4/E/3PO177DAJ6N8RmcasUvp9fEled9Mn3dl0IHIFbZVCJ3fx5vMN/fteSKoshQWVZBrusBX6AW2qpzGvSMEtdD9hFwNH++u/Ns22SMYyn/JyapjRob8x8Ls7jEq/8ifLrRvvC7cDx+Vx8Wz3efP0jMdbNK/jFNhVWTx1gEs2fXSufi2/FrV+/vwb3VW/ura0+MDsln4tf6cX5vAScBizuwcuNb7UP8QFiaxWV/1bgp9YlW1LlL31xLy8HTgee6+Vb7cIAntSaGOQXyVO4RCv/DazoJ19rDfB/wEfzuXhxPT+okIs3AfNwy+F6EwRNgX6xj0ItrolFuDkfl1N+qWQ9rAK+Y13lv6oG5/OYv8bvbdD33wycbeH/FXLxVrQRkPSVTm4Hvgy9WjnVAhykAGDgBgGrreV7uMlQf6F8Eol62YqbvXq8f/gva9D5vwycAvyEno9z7Urlk9qa4ZrI4+ZHfIXGdf11+r//x4AfFWo04dOfT4yb8X8Fla2A6akVwLes5Tu1/P4iPbrul8Y2mWA+rqf3oV68VTRQMweqew43XprPxbdj+CguE2A71HW3vW2tB27xrbQP5nPx1YVcvKWhN0ouXo3hdH+j3NOD3oAMEE3aM6rkWNPL3zeqTNbkc/H/4VI0n0VlW0r3NPC7H/iShQ/nc/EN+VxcrMP55IBP4jL05Wv89h3AQuCjRcNPC/m4miC6N39v04fXkanzudEP3r/Wn9vw7/v447HN5+LrgA/jhjt7sg32PsYMzP0DBuUkwG4fkkvidcAVQRhdB8zAZYuajZu9PaKGH7UeNznqr8A1Fv5WyMVr+vjctwCX+WWO7/E9IgfjlsNUUomNTw0hWUHwsKVMT8M6Sq9fb3QgsCScHn3VFvmlDwbagAOobjb/9oq4Gfb34MbJb/JjlvU+l1eB/w3CaAFumOOD9G6J3nrgPuB3wHzfm7Sjno1Sf2/bw16Jrvc1Jcq4nr0dnf78S62wqOeOndZ//roy91pPrs0NZd53cw+/bz3et+IAOJgWfR7LH3wjbzawV4V14BBcL+c/GGAUAOz4YtngK+e/+i169/UBwUE+GBiP2y2vldL5zrf6i/pV3Pr5pbgsbYuBRzs7WP5Elcu7GnDuy4ELgjD6oz/vQ3yFt5cPBtL+4bcW1+Wb9+d0nzEVTSa8wlcapcrs2f5UJrnHY4tbkbEkCKPzccvgDvNlE+Bmz4/CjRemcD1r1j9Mt+IyDb6Mm5D0GG48/j7giXwu3twHf+MC8N9+lcBM/zA8CLeaoeu6Njt4gG8EXvHB692+1X9vPldyb4olPnAqVVEu7cFpPOYD1Vq/b6WW4PIflPr8eg7jrcAN65RKSPV8D973ZeA/yrxvT8bUX8X1cg4tc071bORsBW4PpkWLsEwE3uAbOYGv4Lu+27b368P+eZ0biHWdJuhUIRtESWMYgcshsKv/dyxuLWmrf/AX/QW0DpeXeiWwwsJLFtYszcUdzXbee0YRQzbS6luKCaBoocNaNi/Nx52D9XoIpkVJLCP8NbCT/3eYDwKsD/7W+ofJS8DLPrjsX9f19MhQZJRxge0euOWto7epBLoq/uXAcxb+UcjFa/VEkAFxH4dRyl/rXcFcp4UtjR6KFRERERERERERERERERERERERERERERERERERERERERERERERERERERERERERERERERERERERERERERERERERERERERERERERERERERERERERERERERERERERERERERERERERERERERERERERERERERERERERERERERERERERERERERERERERERERERERERERERERERERERERERERERERERERERERERERERERERERERERERERERERERERERERERERERERERERERERERERERERERERERERERERERERERERker9fwAxa7tOZMC6AAAAJXRFWHRkYXRlOmNyZWF0ZQAyMDIyLTA3LTEzVDExOjA0OjMxKzAwOjAwpxbPVgAAACV0RVh0ZGF0ZTptb2RpZnkAMjAyMi0wNy0xM1QxMTowNDozMSswMDowMNZLd+oAAAAASUVORK5CYII=;imageBackground=#FFFFFF;imageBorder=#000000;" vertex="1" parent="1">
          <mxGeometry x="-628.86" y="880" width="187.73" height="110" as="geometry" />
        </mxCell>
        <mxCell id="7tyj4xhOJmE-xARo_hg0-3" value="" style="shape=image;verticalLabelPosition=bottom;labelBackgroundColor=default;verticalAlign=top;aspect=fixed;imageAspect=0;image=data:image/svg+xml,PHN2ZyB4bWxucz0iaHR0cDovL3d3dy53My5vcmcvMjAwMC9zdmciIGZpbGw9Im5vbmUiIHZpZXdCb3g9IjAgMCA2NTkgNDQwIiBoZWlnaHQ9IjQ0MCIgd2lkdGg9IjY1OSI+JiN4YTs8cmVjdCBmaWxsPSJ3aGl0ZSIgcng9IjIzLjUiIGhlaWdodD0iNDM5IiB3aWR0aD0iNjU3LjUiIHk9IjAuNSIgeD0iMSIvPiYjeGE7PHJlY3Qgc3Ryb2tlPSIjRTFFMkU2IiByeD0iMjMuNSIgaGVpZ2h0PSI0MzkiIHdpZHRoPSI2NTcuNSIgeT0iMC41IiB4PSIxIi8+JiN4YTs8ZyBjbGlwLXBhdGg9InVybCgjY2xpcDBfOTA0NV8yMDcxMSkiPiYjeGE7PHBhdGggZmlsbD0iIzFENjNFRCIgZD0iTTIyNC41MjYgMjEwLjE5NUMyMjEuMDkzIDIwNy44OTQgMjEyLjA3NCAyMDYuOTEyIDIwNS41MTggMjA4LjY3MUMyMDUuMTY2IDIwMi4xNyAyMDEuNzk2IDE5Ni42OTEgMTk1LjYzNSAxOTEuOTFMMTkzLjM1NiAxOTAuMzg3TDE5MS44MzYgMTkyLjY3M0MxODguODQ4IDE5Ny4xODYgMTg3LjU4OSAyMDMuMjAyIDE4OC4wMzQgMjA4LjY3MUMxODguMzg2IDIxMi4wNDEgMTg5LjU2MiAyMTUuODI3IDE5MS44MzYgMjE4LjU3NUMxODMuMzAyIDIyMy41MDMgMTc1LjQzNCAyMjIuMzg0IDE0MC41OTUgMjIyLjM4NEg4Ni44MDYzQzg2LjY1MDIgMjMwLjIxNiA4Ny45MTM5IDI0NS4yNzggOTcuNTM2NiAyNTcuNTRDOTguNjAwNSAyNTguODk2IDk5Ljc2NDMgMjYwLjIwNSAxMDEuMDMgMjYxLjQ2N0MxMDguODU0IDI2OS4yNjYgMTIwLjY3NSAyNzQuOTg1IDEzOC4zNTEgMjc1QzE2NS4zMTggMjc1LjAyNSAxODguNDIxIDI2MC41MTQgMjAyLjQ3NyAyMjUuNDMzQzIwNy4xMDEgMjI1LjUwNyAyMTkuMzA5IDIyNi4yNTggMjI1LjI4NCAyMTQuNzY2QzIyNS40MyAyMTQuNTczIDIyNi44MDQgMjExLjcyIDIyNi44MDQgMjExLjcyTDIyNC41MjYgMjEwLjE5N1YyMTAuMTk1Wk0xMjEuOTEgMjAzLjAzNEgxMDYuNzg1VjIxOC4wOUgxMjEuOTFWMjAzLjAzNFpNMTQxLjQ0OSAyMDMuMDM0SDEyNi4zMjRWMjE4LjA5SDE0MS40NDlWMjAzLjAzNFpNMTYwLjk5IDIwMy4wMzRIMTQ1Ljg2NVYyMTguMDlIMTYwLjk5VjIwMy4wMzRaTTE4MC41MzEgMjAzLjAzNEgxNjUuNDA2VjIxOC4wOUgxODAuNTMxVjIwMy4wMzRaTTEwMi4zNjkgMjAzLjAzNEg4Ny4yNDM1VjIxOC4wOUgxMDIuMzY5VjIwMy4wMzRaTTEyMS45MSAxODQuMDE4SDEwNi43ODVWMTk5LjA3NEgxMjEuOTFWMTg0LjAxOFpNMTQxLjQ0OSAxODQuMDE4SDEyNi4zMjRWMTk5LjA3NEgxNDEuNDQ5VjE4NC4wMThaTTE2MC45OSAxODQuMDE4SDE0NS44NjVWMTk5LjA3NEgxNjAuOTlWMTg0LjAxOFpNMTYwLjk5IDE2NUgxNDUuODY1VjE4MC4wNTZIMTYwLjk5VjE2NVoiLz4mI3hhOzxwYXRoIGZpbGw9IiMxRDYzRUQiIGQ9Ik01NzEuNzY4IDI1MS44OTVDNTcxLjc2OCAyNTUuODIgNTY4LjY3MiAyNTguOTAyIDU2NC42NDUgMjU4LjkwMkM1NjAuNjE5IDI1OC45MDIgNTU3LjQ3OSAyNTUuODIgNTU3LjQ3OSAyNTEuODk1QzU1Ny40NzkgMjQ3Ljk3IDU2MC42NTkgMjQ0Ljk3MyA1NjQuNjQ1IDI0NC45NzNDNTY4LjYzMiAyNDQuOTczIDU3MS43NjggMjQ4LjA1NSA1NzEuNzY4IDI1MS44OTVaTTU1OS4yNjIgMjUxLjg5NUM1NTkuMjYyIDI1NC45NzcgNTYxLjU1MiAyNTcuNDI0IDU2NC42ODkgMjU3LjQyNEM1NjcuODI3IDI1Ny40MjQgNTY5Ljk5IDI1NC45NzcgNTY5Ljk5IDI1MS45MzhDNTY5Ljk5IDI0OC45IDU2Ny43NDEgMjQ2LjM2NiA1NjQuNjUgMjQ2LjM2NkM1NjEuNTU4IDI0Ni4zNjYgNTU5LjI2NCAyNDguODU3IDU1OS4yNjQgMjUxLjg5NUg1NTkuMjYyWk01NjMuNTQ2IDI1NS41MjZINTYxLjkzNVYyNDguNjA0QzU2Mi41NjggMjQ4LjQ3OCA1NjMuNDYxIDI0OC4zOTMgNTY0LjYwNCAyNDguMzkzQzU2NS45MiAyNDguMzkzIDU2Ni41MTEgMjQ4LjYwNCA1NjcuMDIxIDI0OC45QzU2Ny40MDQgMjQ5LjE5NSA1NjcuNyAyNDkuNzQ0IDU2Ny43IDI1MC40MTlDNTY3LjcgMjUxLjE4IDU2Ny4xMDYgMjUxLjc3MSA1NjYuMjYxIDI1Mi4wMjNWMjUyLjEwOEM1NjYuOTM2IDI1Mi4zNTkgNTY3LjMxOSAyNTIuODY3IDU2Ny41MzEgMjUzLjc5NUM1NjcuNzQxIDI1NC44NSA1NjcuODY4IDI1NS4yNzMgNTY4LjA0MSAyNTUuNTI2SDU2Ni4zMDNDNTY2LjA5IDI1NS4yNzMgNTY1Ljk2MSAyNTQuNjQxIDU2NS43NTEgMjUzLjgzN0M1NjUuNjI0IDI1My4wNzggNTY1LjE5OSAyNTIuNzQgNTY0LjMwOCAyNTIuNzRINTYzLjU0NlYyNTUuNTI4VjI1NS41MjZaTTU2My41ODYgMjUxLjYwMUg1NjQuMzQ4QzU2NS4yMzkgMjUxLjYwMSA1NjUuOTU5IDI1MS4zMDYgNTY1Ljk1OSAyNTAuNTg5QzU2NS45NTkgMjQ5Ljk1NSA1NjUuNDk1IDI0OS41MyA1NjQuNDc1IDI0OS41M0M1NjQuMDUyIDI0OS41MyA1NjMuNzU0IDI0OS41NzQgNTYzLjU4NiAyNDkuNjE5VjI1MS42MDFaIi8+JiN4YTs8cGF0aCBmaWxsPSIjMUQ2M0VEIiBkPSJNMjk4LjU2IDE4MS44NDRDMjk3LjU2MiAxODAuODc1IDI5Ni4zNjUgMTgwLjM4MSAyOTQuOTMxIDE4MC4zODFDMjkzLjQ5NiAxODAuMzgxIDI5Mi4yNjQgMTgwLjg3NSAyOTEuMzA0IDE4MS44NDRDMjkwLjM0MiAxODIuODE0IDI4OS44NzIgMTg0LjA1OCAyODkuODcyIDE4NS41NFYyMTAuMjg0QzI4NC45MzggMjA2LjIyNCAyNzkuMjQzIDIwNC4xNzYgMjcyLjc2NyAyMDQuMTc2QzI2NS4yMzggMjA0LjE3NiAyNTguODAxIDIwNi44ODMgMjUzLjQ2NyAyMTIuMzE1QzI0OC4xMzMgMjE3LjcyOCAyNDUuNDg1IDIyNC4yNzYgMjQ1LjQ4NSAyMzEuOTU3QzI0NS40ODUgMjM5LjYzNyAyNDguMTUyIDI0Ni4xNjcgMjUzLjQ2NyAyNTEuNTk5QzI1OC44MDEgMjU3LjAxMiAyNjUuMjIyIDI1OS43MzcgMjcyLjc2NyAyNTkuNzM3QzI4MC4zMTEgMjU5LjczNyAyODYuNjYxIDI1Ny4wMyAyOTIuMDY2IDI1MS41OTlDMjk3LjQgMjQ2LjI0IDMwMC4wNDggMjM5LjY5MyAzMDAuMDQ4IDIzMS45NTdWMTg1LjU0QzMwMC4wNDggMTg0LjA1OCAyOTkuNTU5IDE4Mi44MTQgMjk4LjU2IDE4MS44NDRaTTI4OC41MjkgMjM4LjY1MVYyMzguNjg4QzI4Ny42NCAyNDAuNzkxIDI4Ni40MjQgMjQyLjYzOCAyODQuODgzIDI0NC4yMTFDMjgzLjM0MyAyNDUuODAyIDI4MS41MjcgMjQ3LjA0NiAyNzkuNDYgMjQ3Ljk3OEMyNzcuMzc0IDI0OC45MTEgMjc1LjE2MSAyNDkuMzY5IDI3Mi43ODUgMjQ5LjM2OUMyNzAuNDEgMjQ5LjM2OSAyNjguMTQzIDI0OC45MTEgMjY2LjA1NiAyNDcuOTc4QzI2My45NyAyNDcuMDQ2IDI2Mi4xNzQgMjQ1LjgwMiAyNjAuNjUyIDI0NC4yMjlDMjU5LjEyOCAyNDIuNjU2IDI1Ny45MTQgMjQwLjgxIDI1Ny4wMjUgMjM4LjcwNkMyNTYuMTM2IDIzNi41ODQgMjU1LjY4MiAyMzQuMzM2IDI1NS42ODIgMjMxLjk1N0MyNTUuNjgyIDIyOS41NzggMjU2LjEzNiAyMjcuMzI5IDI1Ny4wMjUgMjI1LjIwN0MyNTcuOTE0IDIyMy4wODUgMjU5LjEzIDIyMS4yNTcgMjYwLjY1MiAyMTkuNjg0QzI2Mi4xNzYgMjE4LjExMSAyNjMuOTg5IDIxNi44NjggMjY2LjA1NiAyMTUuOTM1QzI2OC4xNDMgMjE1LjAwMyAyNzAuMzc0IDIxNC41NDUgMjcyLjc4NSAyMTQuNTQ1QzI3NS4xOTYgMjE0LjU0NSAyNzcuMzc0IDIxNS4wMDMgMjc5LjQ2IDIxNS45MzVDMjgxLjU0NiAyMTYuODY4IDI4My4zNDMgMjE4LjExMSAyODQuODgzIDIxOS43MDNDMjg2LjQyNCAyMjEuMjk0IDI4Ny42NCAyMjMuMTQxIDI4OC41MjkgMjI1LjIyNkMyODkuNDE4IDIyNy4zMjkgMjg5Ljg3MiAyMjkuNTYxIDI4OS44NzIgMjMxLjkzOEMyODkuODcyIDIzNC4zMTUgMjg5LjQxOCAyMzYuNTY2IDI4OC41MjkgMjM4LjY1MVoiLz4mI3hhOzxwYXRoIGZpbGw9IiMxRDYzRUQiIGQ9Ik01MjMuOTUyIDIyMS4yOTRDNTIyLjYyOCAyMTguMDAxIDUyMC42MSAyMTUuMDIxIDUxNy45NjQgMjEyLjM1TDUxNy45MjkgMjEyLjMzMUM1MTIuNTQxIDIwNi45MTggNTA2LjA5OSAyMDQuMTkzIDQ5OC42MjkgMjA0LjE5M0M0OTEuMTU5IDIwNC4xOTMgNDg0LjY2MiAyMDYuODk5IDQ3OS4zMjggMjEyLjMzMUM0NzMuOTk0IDIxNy43NDQgNDcxLjM0OCAyMjQuMjkzIDQ3MS4zNDggMjMxLjk3M0M0NzEuMzQ4IDIzOS42NTMgNDc0LjAxNSAyNDYuMTgzIDQ3OS4zMjggMjUxLjYxNUM0ODQuNjYyIDI1Ny4wMjggNDkxLjA4NCAyNTkuNzUzIDQ5OC42MjkgMjU5Ljc1M0M1MDUuNDgzIDI1OS43NTMgNTExLjQxNCAyNTcuNTA1IDUxNi40NTkgMjUzLjAwNkM1MTcuNDM1IDI1MS45ODIgNTE3LjkyOSAyNTAuNzM5IDUxNy45MjkgMjQ5LjI5MkM1MTcuOTI5IDI0Ny44NDYgNTE3LjQ1OCAyNDYuNTY3IDUxNi40OTQgMjQ1LjU5N0M1MTUuNTM1IDI0NC42MjcgNTE0LjMxOSAyNDQuMTM0IDUxMi44NjggMjQ0LjEzNEM1MTEuNiAyNDQuMTcxIDUxMC40NzMgMjQ0LjU5MiA1MDkuNTE0IDI0NS40MzNDNTA3Ljk5IDI0Ni43NDkgNTA2LjMzOSAyNDcuNzU2IDUwNC41NDQgMjQ4LjQxNUM1MDIuNzQ3IDI0OS4wNzQgNTAwLjc4OCAyNDkuNDA0IDQ5OC42NSAyNDkuNDA0QzQ5Ni43NjIgMjQ5LjQwNCA0OTQuOTQ4IDI0OS4xMTIgNDkzLjIyNyAyNDguNTA5QzQ5MS41MDEgMjQ3LjkwNiA0ODkuODg5IDI0Ny4wODEgNDg4LjQ1NSAyNDYuMDAzQzQ4Ny4wMDIgMjQ0LjkyMyA0ODUuNzUzIDI0My42NDUgNDg0LjY4MiAyNDIuMTI2QzQ4My42MTIgMjQwLjYyNSA0ODIuNzk2IDIzOC45NjEgNDgyLjI1MyAyMzcuMTMzSDUyMC44MzVDNTIyLjI2NiAyMzcuMTMzIDUyMy40NjMgMjM2LjY0IDUyNC40NjIgMjM1LjY3QzUyNS40NjEgMjM0LjcgNTI1Ljk1MSAyMzMuNDU3IDUyNS45NTEgMjMxLjk3NUM1MjUuOTUxIDIyOC4xMzUgNTI1LjI3NiAyMjQuNTY5IDUyMy45NTYgMjIxLjI5NEg1MjMuOTUyWk00ODIuMjEzIDIyNi44MTdDNDgyLjc0IDIyNS4wMDYgNDgzLjUzNyAyMjMuMzQyIDQ4NC42MDggMjIxLjgyNUM0ODUuNjggMjIwLjMyNCA0ODYuOTQ4IDIxOS4wMjcgNDg4LjM5OSAyMTcuOTQ3QzQ4OS44NjkgMjE2Ljg2OCA0OTEuNDYzIDIxNi4wNDUgNDkzLjIyMyAyMTUuNDQyQzQ5NC45OCAyMTQuODM5IDQ5Ni43NzQgMjE0LjU0NiA0OTguNjI5IDIxNC41NDZDNTAwLjQ4NCAyMTQuNTQ2IDUwMi4yNzUgMjE0LjgzOSA1MDQuMDEzIDIxNS40NDJDNTA1Ljc1NiAyMTYuMDQ1IDUwNy4zNTUgMjE2Ljg2OCA1MDguNzg1IDIxNy45NDdDNTEwLjIzOCAyMTkuMDI3IDUxMS41MDYgMjIwLjMwNiA1MTIuNTc2IDIyMS44MjVDNTEzLjY2MyAyMjMuMzI1IDUxNC40ODMgMjI0Ljk4OSA1MTUuMDQ1IDIyNi44MTdINDgyLjIxMUg0ODIuMjEzWiIvPiYjeGE7PHBhdGggZmlsbD0iIzFENjNFRCIgZD0iTTU3MS4zNjYgMjA3LjY2OEM1NzAuNDU4IDIwNi43NzMgNTY5LjMxNSAyMDYuMDc3IDU2Ny45MzcgMjA1LjU2NUM1NjYuNTU5IDIwNS4wNTMgNTY1LjA1MyAyMDQuNzA1IDU2My40MDMgMjA0LjUwNEM1NjEuNzcgMjA0LjMwMyA1NjAuMjI4IDIwNC4yMTEgNTU4Ljc5NyAyMDQuMjExQzU1NS41NDcgMjA0LjIxMSA1NTIuNTAxIDIwNC43NDIgNTQ5LjYzNyAyMDUuODAzQzU0Ni43NyAyMDYuODY0IDU0NC4xMjIgMjA4LjM4MSA1NDEuNjkgMjEwLjM1NlYyMDkuMzdDNTQxLjY5IDIwNy45NDQgNTQxLjIwMSAyMDYuNzM2IDU0MC4yMDEgMjA1LjczQzUzOS4yMDYgMjA0LjcyNSA1MzguMDI2IDIwNC4yMTMgNTM2LjYzMSAyMDQuMjEzQzUzNS4yMzYgMjA0LjIxMyA1MzMuOTk5IDIwNC43MjUgNTMzLjAwNCAyMDUuNzNDNTMyLjAwNSAyMDYuNzM2IDUzMS41MTYgMjA3Ljk2MiA1MzEuNTE2IDIwOS4zN1YyNTQuNTk5QzUzMS41MTYgMjU2LjAyNSA1MzIuMDA1IDI1Ny4yMzMgNTMzLjAwNCAyNTguMjM4QzUzMy45OTkgMjU5LjI0NCA1MzUuMTk2IDI1OS43NTUgNTM2LjYzMSAyNTkuNzU1QzUzOC4wNjUgMjU5Ljc1NSA1MzkuMjIzIDI1OS4yNDQgNTQwLjIwMSAyNTguMjM4QzU0MS4yMDEgMjU3LjIzMyA1NDEuNjkgMjU2LjAwNiA1NDEuNjkgMjU0LjU5OVYyMzEuOTc1QzU0MS42OSAyMjkuNTYxIDU0Mi4xNDQgMjI3LjI5NCA1NDMuMDMzIDIyNS4xNzJDNTQzLjkyMiAyMjMuMDQ5IDU0NS4xMzggMjIxLjIyMiA1NDYuNjc4IDIxOS42NDlDNTQ4LjIyMyAyMTguMDc2IDU1MC4wMzYgMjE2LjgzMiA1NTIuMTAyIDIxNS45MzVDNTU0LjE4OCAyMTUuMDIxIDU1Ni40MDMgMjE0LjU2MyA1NTguNzgxIDIxNC41NjNDNTYxLjE1OCAyMTQuNTYzIDU2My40MDMgMjE0Ljk4NCA1NjUuNDU1IDIxNS44MDZDNTY2LjI2OSAyMTYuMTczIDU2Ni45NzkgMjE2LjM1NiA1NjcuNTk2IDIxNi4zNTZDNTY4LjMwMyAyMTYuMzU2IDU2OC45NzQgMjE2LjIyNyA1NjkuNTkgMjE1Ljk1NEM1NzAuMjA2IDIxNS42OCA1NzAuNzUyIDIxNS4zMTMgNTcxLjIwNiAyMTQuODM5QzU3MS42NTkgMjE0LjM2NCA1NzIuMDIgMjEzLjgxNSA1NzIuMjkyIDIxMy4xNzRDNTcyLjU2NSAyMTIuNTUzIDU3Mi43MTEgMjExLjg3NSA1NzIuNzExIDIxMS4xNDRDNTcyLjcxMSAyMDkuNzE4IDU3Mi4yNTcgMjA4LjU2NiA1NzEuMzUxIDIwNy42NjhINTcxLjM2OEg1NzEuMzY2WiIvPiYjeGE7PHBhdGggZmlsbD0iIzFENjNFRCIgZD0iTTM1OC4zOCAyMjEuMzEzQzM1Ny4wNTYgMjE4LjAzOSAzNTUuMDc4IDIxNS4wNCAzNTIuNDEzIDIxMi4zMzRDMzQ3LjAyNyAyMDYuOTIgMzQwLjU4OCAyMDQuMTk1IDMzMy4xMTQgMjA0LjE5NUMzMjUuNjM5IDIwNC4xOTUgMzE5LjE0OCAyMDYuOTAyIDMxMy44MTQgMjEyLjMzNEMzMDguNDggMjE3Ljc0NyAzMDUuODM0IDIyNC4yOTUgMzA1LjgzNCAyMzEuOTc2QzMwNS44MzQgMjM5LjY1NiAzMDguNTAxIDI0Ni4xODYgMzEzLjgxNCAyNTEuNjE4QzMxOS4xNDggMjU3LjAzMSAzMjUuNTY5IDI1OS43NTYgMzMzLjExNCAyNTkuNzU2QzM0MC42NTkgMjU5Ljc1NiAzNDcuMDA4IDI1Ny4wNDkgMzUyLjQxMyAyNTEuNjE4QzM1Ny43NDcgMjQ2LjI1OCAzNjAuMzk1IDIzOS43MTIgMzYwLjM5NSAyMzEuOTc2QzM2MC4zNTggMjI4LjEzNSAzNTkuNjg3IDIyNC41ODggMzU4LjM4MiAyMjEuMzEzSDM1OC4zOFpNMzQ4Ljg3NiAyMzguNjUxVjIzOC42ODhDMzQ3Ljk4NyAyNDAuNzkyIDM0Ni43NzEgMjQyLjYzOCAzNDUuMjMgMjQ0LjIxMUMzNDMuNjkgMjQ1LjgwMyAzNDEuODc0IDI0Ny4wNDYgMzM5LjgwNyAyNDcuOTc5QzMzNy43NCAyNDguOTExIDMzNS41MDggMjQ5LjM2OSAzMzMuMTMyIDI0OS4zNjlDMzMwLjc1NyAyNDkuMzY5IDMyOC40OSAyNDguOTExIDMyNi40MDQgMjQ3Ljk3OUMzMjQuMzE3IDI0Ny4wNDYgMzIyLjUyMSAyNDUuODAzIDMyMC45OTkgMjQ0LjIzQzMxOS40NzUgMjQyLjY1NyAzMTguMjYxIDI0MC44MSAzMTcuMzcyIDIzOC43MDdDMzE2LjQ4MyAyMzYuNTg1IDMxNi4wMjkgMjM0LjMzNiAzMTYuMDI5IDIzMS45NTdDMzE2LjAyOSAyMjkuNTc4IDMxNi40ODMgMjI3LjMyOSAzMTcuMzcyIDIyNS4yMDdDMzE4LjI2MSAyMjMuMDg1IDMxOS40NzcgMjIxLjI1NyAzMjAuOTk5IDIxOS42ODRDMzIyLjUyMyAyMTguMTExIDMyNC4zMzYgMjE2Ljg2OCAzMjYuNDA0IDIxNS45MzVDMzI4LjQ5IDIxNS4wMDMgMzMwLjcyMSAyMTQuNTQ1IDMzMy4xMzIgMjE0LjU0NUMzMzUuNTQzIDIxNC41NDUgMzM3LjcyMSAyMTUuMDAzIDMzOS44MDcgMjE1LjkzNUMzNDEuODkzIDIxNi44NjggMzQzLjY5IDIxOC4xMTEgMzQ1LjIzIDIxOS43MDNDMzQ2Ljc3MSAyMjEuMjk1IDM0Ny45ODcgMjIzLjE0MSAzNDguODc2IDIyNS4yMjZDMzQ5Ljc2NSAyMjcuMzI5IDM1MC4yMTkgMjI5LjU2MSAzNTAuMjE5IDIzMS45MzhDMzUwLjIxOSAyMzQuMzE1IDM0OS43NjUgMjM2LjU2NiAzNDguODc2IDIzOC42NTFaIi8+JiN4YTs8cGF0aCBmaWxsPSIjMUQ2M0VEIiBkPSJNNDY3LjUgMjA5LjM1MUM0NjcuNSAyMDguNjU3IDQ2Ny4zNTUgMjA3Ljk5OCA0NjcuMDg0IDIwNy4zNzZDNDY2LjgxMSAyMDYuNzU0IDQ2Ni40NDkgMjA2LjE4OSA0NjUuOTk1IDIwNS43MTJDNDY1LjU0MSAyMDUuMjM3IDQ2NC45OTggMjA0Ljg1MiA0NjQuMzgyIDIwNC41OTdDNDYzLjc2NiAyMDQuMzQyIDQ2My4wOTUgMjA0LjE5NSA0NjIuMzg3IDIwNC4xOTVDNDYxLjM3MSAyMDQuMTk1IDQ2MC40NjQgMjA0LjQ1MiA0NTkuNjY2IDIwNC45ODNMNDMwLjUzNiAyMjQuMjc5VjE4NS41NzdDNDMwLjUzNiAxODQuMTE0IDQzMC4wNDcgMTgyLjg4OSA0MjkuMDQ5IDE4MS44ODJDNDI4LjA1MiAxODAuODc3IDQyNi44NzQgMTgwLjM2NSA0MjUuNDc3IDE4MC4zNjVDNDI0LjA4IDE4MC4zNjUgNDIyLjg0NyAxODAuODc3IDQyMS44NDggMTgxLjg4MkM0MjAuODUxIDE4Mi44ODcgNDIwLjM2MSAxODQuMTE0IDQyMC4zNjEgMTg1LjU3N1YyNTQuNTI3QzQyMC4zNjEgMjU1Ljk1MyA0MjAuODUxIDI1Ny4xOCA0MjEuODQ4IDI1OC4yMDNDNDIyLjg0NSAyNTkuMjI3IDQyNC4wNDIgMjU5LjczOSA0MjUuNDc3IDI1OS43MzlDNDI2LjkxMSAyNTkuNzM5IDQyOC4wNzEgMjU5LjIyNyA0MjkuMDQ5IDI1OC4yMDNDNDMwLjA0NyAyNTcuMTggNDMwLjUzNiAyNTUuOTUzIDQzMC41MzYgMjU0LjUyN1YyMzYuNjIyTDQzNi40ODYgMjMyLjY1M0w0NTguOTk2IDI1OC4zODZDNDU5LjkwNCAyNTkuMjgxIDQ2MS4wNDcgMjU5LjcyIDQ2Mi40MDYgMjU5LjcyQzQ2My4xMTQgMjU5LjcyIDQ2My43ODQgMjU5LjU5MiA0NjQuNCAyNTkuMzE4QzQ2NS4wMTcgMjU5LjA2MSA0NjUuNTYyIDI1OC42NzggNDY2LjAxNCAyNTguMjAzQzQ2Ni40NjggMjU3LjcyOSA0NjYuODMgMjU3LjE4IDQ2Ny4xMDMgMjU2LjUzOUM0NjcuMzc2IDI1NS45MTggNDY3LjUxOSAyNTUuMjQgNDY3LjUxOSAyNTQuNTY0QzQ2Ny41MTkgMjUzLjIxMSA0NjcuMDQ5IDI1Mi4wMDMgNDY2LjEwNCAyNTAuOTQ0TDQ0NS4xNTMgMjI2LjkzMUw0NjUuNTU4IDIxMy40MzRDNDY2Ljg2MyAyMTIuNTM4IDQ2Ny40OTggMjExLjE2NyA0NjcuNDk4IDIwOS4zMThWMjA5LjM1NUw0NjcuNSAyMDkuMzUxWiIvPiYjeGE7PHBhdGggZmlsbD0iIzFENjNFRCIgZD0iTTM4MS4yNTQgMjE5LjY0OUMzODIuODEzIDIxOC4wNzYgMzg0LjYyOSAyMTYuODMyIDM4Ni43MTUgMjE1LjkzNUMzODguODAxIDIxNS4wMjEgMzkxLjAxNCAyMTQuNTYzIDM5My4zODkgMjE0LjU2M0MzOTUuNTMgMjE0LjU2MyAzOTcuNTA4IDIxNC45MyAzOTkuMzQgMjE1LjY2QzQwMS4xNTMgMjE2LjM5MSA0MDIuODk2IDIxNy40NzEgNDA0LjU0NCAyMTguODc4QzQwNS41MjMgMjE5LjY2MyA0MDYuNjMxIDIyMC4wNjUgNDA3Ljg2MyAyMjAuMDY1QzQwOS4zMzMgMjIwLjA2NSA0MTAuNTMgMjE5LjU3MiA0MTEuNDkyIDIxOC41ODRDNDEyLjQ1NCAyMTcuNTk1IDQxMi45MjQgMjE2LjM1MiA0MTIuOTI0IDIxNC44N0M0MTIuOTI0IDIxMy4zODggNDEyLjM0MyAyMTIuMDE2IDQxMS4xNjUgMjEwLjk1N0M0MDYuMTU4IDIwNi40NTggNDAwLjIyOSAyMDQuMjA4IDM5My4zODkgMjA0LjIwOEMzODUuODYxIDIwNC4yMDggMzc5LjQyNCAyMDYuOTE0IDM3NC4wOSAyMTIuMzQ2QzM2OC43NTYgMjE3Ljc1OSAzNjYuMTEgMjI0LjMwOCAzNjYuMTEgMjMxLjk4OEMzNjYuMTEgMjM5LjY2OCAzNjguNzc3IDI0Ni4xOTggMzc0LjA5IDI1MS42M0MzNzkuNDI0IDI1Ny4wNDMgMzg1Ljg0NSAyNTkuNzY4IDM5My4zODkgMjU5Ljc2OEM0MDAuMjEgMjU5Ljc2OCA0MDYuMTQxIDI1Ny41MiA0MTEuMTY1IDI1My4wMThDNDEyLjIzNSAyNTEuOTIyIDQxMi43ODEgMjUwLjY2IDQxMi43ODEgMjQ5LjE5N0M0MTIuNzgxIDI0Ny43MzQgNDEyLjMwOCAyNDYuNDcyIDQxMS4zNDggMjQ1LjUwMkM0MTAuMzg2IDI0NC41MzIgNDA5LjE3MyAyNDQuMDM5IDQwNy43MjEgMjQ0LjAzOUM0MDYuNDg5IDI0NC4wNzYgNDA1LjQxNyAyNDQuNDQxIDQwNC41MTEgMjQ1LjEzNUM0MDIuODc5IDI0Ni41NjEgNDAxLjE3NCAyNDcuNjIyIDM5OS4zNDIgMjQ4LjMzNUMzOTcuNTI4IDI0OS4wNDggMzk1LjU1MSAyNDkuMzk2IDM5My4zOTIgMjQ5LjM5NkMzOTEuMDE2IDI0OS4zOTYgMzg4LjgwMyAyNDguOTM4IDM4Ni43MTcgMjQ4LjAyNEMzODQuNjMxIDI0Ny4xMSAzODIuODE3IDI0NS44NjcgMzgxLjI1NiAyNDQuMzEyQzM3OS42OTcgMjQyLjc1OCAzNzguNDYyIDI0MC44OTMgMzc3LjU3MyAyMzguNzg5QzM3Ni42ODQgMjM2LjY2NyAzNzYuMjMgMjM0LjQgMzc2LjIzIDIzMS45ODZDMzc2LjIzIDIyOS41NzEgMzc2LjY4NCAyMjcuMzA0IDM3Ny41NzMgMjI1LjE4MkMzNzguNDYyIDIyMy4wNiAzNzkuNjk0IDIyMS4yMzIgMzgxLjI1NiAyMTkuNjU5VjIxOS42NDFMMzgxLjI1NCAyMTkuNjQ5WiIvPiYjeGE7PC9nPiYjeGE7PGRlZnM+JiN4YTs8Y2xpcFBhdGggaWQ9ImNsaXAwXzkwNDVfMjA3MTEiPiYjeGE7PHJlY3QgdHJhbnNmb3JtPSJ0cmFuc2xhdGUoODYuNzkzNSAxNjUpIiBmaWxsPSJ3aGl0ZSIgaGVpZ2h0PSIxMTAiIHdpZHRoPSI0ODUuOTEzIi8+JiN4YTs8L2NsaXBQYXRoPiYjeGE7PC9kZWZzPiYjeGE7PC9zdmc+;clipPath=inset(30% 9% 33% 9%);" vertex="1" parent="1">
          <mxGeometry x="-628.8599999999998" y="810" width="185.08" height="55.67" as="geometry" />
        </mxCell>
        <mxCell id="u09T2UKGBhBd8F7zZof4-1" value="" style="endArrow=classic;startArrow=classic;html=1;rounded=0;exitX=1;exitY=0.5;exitDx=0;exitDy=0;entryX=1;entryY=0.5;entryDx=0;entryDy=0;" edge="1" parent="1" source="7tyj4xhOJmE-xARo_hg0-1" target="6NX9De0AIqx8eO8tG6Va-20">
          <mxGeometry width="50" height="50" relative="1" as="geometry">
            <mxPoint x="-417.40999999999997" y="950" as="sourcePoint" />
            <mxPoint x="-440" y="850" as="targetPoint" />
          </mxGeometry>
        </mxCell>
        <mxCell id="u09T2UKGBhBd8F7zZof4-3" value="HTTP" style="text;html=1;align=center;verticalAlign=middle;whiteSpace=wrap;rounded=0;fontSize=20;" vertex="1" parent="1">
          <mxGeometry x="-738" y="865.6700000000001" width="60" height="30" as="geometry" />
        </mxCell>
        <mxCell id="u09T2UKGBhBd8F7zZof4-5" value="8501" style="text;html=1;align=center;verticalAlign=middle;whiteSpace=wrap;rounded=0;fontSize=15;" vertex="1" parent="1">
          <mxGeometry x="-350" y="826.83" width="60" height="30" as="geometry" />
        </mxCell>
        <mxCell id="u09T2UKGBhBd8F7zZof4-6" value="8000" style="text;html=1;align=center;verticalAlign=middle;whiteSpace=wrap;rounded=0;fontSize=15;" vertex="1" parent="1">
          <mxGeometry x="-780" y="900" width="60" height="30" as="geometry" />
        </mxCell>
      </root>
    </mxGraphModel>
  </diagram>
</mxfile>
